STARTFONT 2.1
COMMENT
COMMENT Converted from OpenType font "CUSONG.ttf" by "otf2bdf 3.0".
COMMENT
FONT -FreeType-Chusung-Medium-R-Normal--24-240-72-72-P-224-ISO10646-1
SIZE 24 72 72
FONTBOUNDINGBOX 25 29 -1 -6
STARTPROPERTIES 19
FOUNDRY "FreeType"
FAMILY_NAME "Chusung"
WEIGHT_NAME "Medium"
SLANT "R"
SETWIDTH_NAME "Normal"
ADD_STYLE_NAME ""
PIXEL_SIZE 24
POINT_SIZE 240
RESOLUTION_X 72
RESOLUTION_Y 72
SPACING "P"
AVERAGE_WIDTH 224
CHARSET_REGISTRY "ISO10646"
CHARSET_ENCODING "1"
FONT_ASCENT 21
FONT_DESCENT 3
COPYRIGHT "Copyright (c) 1988  The Institute of Software, Academia Sinica,                2020  diaowinner <diaowinner 47 qq d07 com>"
_OTF_FONTFILE "CUSONG.ttf"
_OTF_PSNAME "Chusung16"
ENDPROPERTIES
CHARS 7573
STARTCHAR 0000
ENCODING 0
SWIDTH 500 0
DWIDTH 12 0
BBX 0 0 0 0
BITMAP
ENDCHAR
STARTCHAR 0001
ENCODING 1
SWIDTH 500 0
DWIDTH 12 0
BBX 12 15 0 0
BITMAP
7FE0
FFF0
C030
D9B0
D9B0
C030
C030
DFB0
DFB0
CF30
CF30
C030
C030
FFF0
7FE0
ENDCHAR
STARTCHAR 0002
ENCODING 2
SWIDTH 500 0
DWIDTH 12 0
BBX 11 15 0 0
BITMAP
7F80
FFE0
FFE0
FFE0
FFE0
EDE0
FFE0
FFE0
FFE0
DF60
FFE0
E1E0
FFE0
FFE0
7F80
ENDCHAR
STARTCHAR 0003
ENCODING 3
SWIDTH 500 0
DWIDTH 12 0
BBX 11 14 -1 0
BITMAP
3B80
3B80
FBE0
FFE0
FFE0
FFE0
FFE0
FFE0
FFE0
FFE0
3F80
1F00
1F00
0400
ENDCHAR
STARTCHAR 0004
ENCODING 4
SWIDTH 500 0
DWIDTH 12 0
BBX 11 11 0 3
BITMAP
0C00
0C00
1F00
7F80
7F80
FFE0
FFE0
7F80
1F00
1F00
0C00
ENDCHAR
STARTCHAR 0005
ENCODING 5
SWIDTH 500 0
DWIDTH 12 0
BBX 11 14 -1 0
BITMAP
0400
0400
1F00
1F00
1F00
0400
3F80
3B80
FBE0
FBE0
3B80
0400
1F00
1F00
ENDCHAR
STARTCHAR 0006
ENCODING 6
SWIDTH 500 0
DWIDTH 12 0
BBX 11 15 0 0
BITMAP
0C00
1F00
1F00
7F80
7F80
7F80
FFE0
FFE0
FFE0
FFE0
FFE0
7B80
0C00
1F00
1F00
ENDCHAR
STARTCHAR 0007
ENCODING 7
SWIDTH 500 0
DWIDTH 12 0
BBX 6 8 3 3
BITMAP
78
78
FC
FC
FC
FC
FC
78
ENDCHAR
STARTCHAR 0008
ENCODING 8
SWIDTH 500 0
DWIDTH 12 0
BBX 12 24 0 -6
BITMAP
FFF0
FFF0
FFF0
FFF0
FFF0
FFF0
FFF0
FFF0
F9F0
E070
E070
E070
E070
F9F0
F9F0
FFF0
FFF0
FFF0
FFF0
FFF0
FFF0
FFF0
FFF0
FFF0
ENDCHAR
STARTCHAR 0009
ENCODING 9
SWIDTH 500 0
DWIDTH 12 0
BBX 9 11 1 1
BITMAP
1C00
7F00
7F00
E380
E380
E380
E380
E380
7F00
7F00
1C00
ENDCHAR
STARTCHAR 000A
ENCODING 10
SWIDTH 500 0
DWIDTH 12 0
BBX 12 24 0 -6
BITMAP
FFF0
FFF0
FFF0
FFF0
FFF0
FFF0
F9F0
F9F0
E070
CE30
CE30
CE30
CE30
EE70
E070
F9F0
FFF0
FFF0
FFF0
FFF0
FFF0
FFF0
FFF0
FFF0
ENDCHAR
STARTCHAR 000B
ENCODING 11
SWIDTH 500 0
DWIDTH 12 0
BBX 11 15 0 0
BITMAP
0FE0
0FE0
03E0
0FE0
0FE0
1DE0
7F00
7F00
E380
E380
E380
E380
E380
FF80
7F00
ENDCHAR
STARTCHAR 000C
ENCODING 12
SWIDTH 500 0
DWIDTH 12 0
BBX 9 15 1 0
BITMAP
7F00
FF80
E380
E380
E380
E380
7F00
7F00
1C00
FF80
FF80
1C00
1C00
1C00
1C00
ENDCHAR
STARTCHAR 000D
ENCODING 13
SWIDTH 500 0
DWIDTH 12 0
BBX 11 15 0 0
BITMAP
0FE0
0FE0
0F60
0FE0
0FE0
0F00
0F00
0F00
0F00
0F00
7F00
7F00
FF00
FF00
7C00
ENDCHAR
STARTCHAR 000E
ENCODING 14
SWIDTH 500 0
DWIDTH 12 0
BBX 10 17 0 -2
BITMAP
3FC0
3FC0
3BC0
3FC0
3FC0
3BC0
3BC0
7BC0
7BC0
FBC0
FBC0
73C0
07C0
0FC0
0FC0
0700
0700
ENDCHAR
STARTCHAR 000F
ENCODING 15
SWIDTH 500 0
DWIDTH 12 0
BBX 12 15 0 0
BITMAP
0E00
EE70
EE70
7FE0
7FE0
1F80
71E0
71E0
71E0
1F80
7FE0
7FE0
EE70
EE70
0E00
ENDCHAR
STARTCHAR 0010
ENCODING 16
SWIDTH 500 0
DWIDTH 12 0
BBX 11 14 0 0
BITMAP
C000
C000
F800
FC00
FC00
FF80
FFE0
FFE0
FF80
FF80
FC00
F800
F800
C000
ENDCHAR
STARTCHAR 0011
ENCODING 17
SWIDTH 500 0
DWIDTH 12 0
BBX 11 14 0 0
BITMAP
0060
0060
03E0
1FE0
1FE0
7FE0
FFE0
FFE0
7FE0
7FE0
1FE0
03E0
03E0
0060
ENDCHAR
STARTCHAR 0012
ENCODING 18
SWIDTH 500 0
DWIDTH 12 0
BBX 9 15 1 0
BITMAP
1C00
7F00
7F00
FF80
FF80
1C00
1C00
1C00
1C00
1C00
FF80
FF80
7F00
3F00
1C00
ENDCHAR
STARTCHAR 0013
ENCODING 19
SWIDTH 500 0
DWIDTH 12 0
BBX 9 15 1 0
BITMAP
E380
E380
E380
E380
E380
E380
E380
E380
E380
E380
E380
0000
E380
E380
E380
ENDCHAR
STARTCHAR 0014
ENCODING 20
SWIDTH 500 0
DWIDTH 12 0
BBX 12 15 0 0
BITMAP
7FF0
FFF0
EE70
EE70
EE70
EE70
EE70
FE70
7E70
0E70
0E70
0E70
0E70
0E70
0E70
ENDCHAR
STARTCHAR 0015
ENCODING 21
SWIDTH 500 0
DWIDTH 12 0
BBX 11 18 0 -3
BITMAP
7F80
7F80
E1E0
E1E0
E1E0
7800
7F80
7F80
FDE0
FFE0
EFE0
7F80
7F80
0380
E1E0
E1E0
FFE0
7F80
ENDCHAR
STARTCHAR 0016
ENCODING 22
SWIDTH 500 0
DWIDTH 12 0
BBX 11 6 0 0
BITMAP
FFE0
FFE0
FFE0
FFE0
FFE0
FFE0
ENDCHAR
STARTCHAR 0017
ENCODING 23
SWIDTH 500 0
DWIDTH 12 0
BBX 9 15 1 0
BITMAP
1C00
7F00
7F00
FF80
FF80
1C00
1C00
1C00
1C00
FF80
FF80
7F00
1C00
FF80
FF80
ENDCHAR
STARTCHAR 0018
ENCODING 24
SWIDTH 500 0
DWIDTH 12 0
BBX 9 15 1 0
BITMAP
1C00
7F00
7F00
FF80
FF80
1C00
1C00
1C00
1C00
1C00
1C00
1C00
1C00
1C00
1C00
ENDCHAR
STARTCHAR 0019
ENCODING 25
SWIDTH 500 0
DWIDTH 12 0
BBX 9 15 1 0
BITMAP
1C00
1C00
1C00
1C00
1C00
1C00
1C00
1C00
1C00
1C00
FF80
FF80
7F00
7F00
1C00
ENDCHAR
STARTCHAR 001A
ENCODING 26
SWIDTH 500 0
DWIDTH 12 0
BBX 12 8 0 3
BITMAP
0380
0380
03E0
FFF0
FFF0
03E0
03E0
0380
ENDCHAR
STARTCHAR 001B
ENCODING 27
SWIDTH 500 0
DWIDTH 12 0
BBX 11 8 0 3
BITMAP
1C00
1C00
7C00
FFE0
FFE0
7C00
7C00
1C00
ENDCHAR
STARTCHAR 001C
ENCODING 28
SWIDTH 500 0
DWIDTH 12 0
BBX 11 6 0 3
BITMAP
E000
E000
E000
E000
FFE0
FFE0
ENDCHAR
STARTCHAR 001D
ENCODING 29
SWIDTH 500 0
DWIDTH 12 0
BBX 12 8 0 3
BITMAP
1980
1980
79E0
FFF0
FFF0
79E0
79E0
1980
ENDCHAR
STARTCHAR 001E
ENCODING 30
SWIDTH 500 0
DWIDTH 12 0
BBX 11 12 0 1
BITMAP
0C00
1F00
1F00
1F00
1F00
1F00
7F80
7F80
7F80
FFE0
FFE0
FFE0
ENDCHAR
STARTCHAR 001F
ENCODING 31
SWIDTH 500 0
DWIDTH 12 0
BBX 11 12 0 1
BITMAP
FFE0
FFE0
FFE0
7F80
7F80
7F80
7F80
7F80
1F00
1F00
1F00
0C00
ENDCHAR
STARTCHAR 0020
ENCODING 32
SWIDTH 500 0
DWIDTH 12 0
BBX 0 0 0 0
BITMAP
ENDCHAR
STARTCHAR 0021
ENCODING 33
SWIDTH 500 0
DWIDTH 12 0
BBX 6 16 3 0
BITMAP
38
38
FC
FC
FC
FC
FC
FC
38
38
38
00
00
38
38
38
ENDCHAR
STARTCHAR 0022
ENCODING 34
SWIDTH 500 0
DWIDTH 12 0
BBX 8 8 2 9
BITMAP
F3
F3
F3
F3
F3
F3
33
33
ENDCHAR
STARTCHAR 0023
ENCODING 35
SWIDTH 541 0
DWIDTH 13 0
BBX 11 16 0 0
BITMAP
39C0
39C0
39C0
39C0
39C0
FFE0
FFE0
39C0
39C0
FFE0
FFE0
39C0
39C0
39C0
39C0
39C0
ENDCHAR
STARTCHAR 0024
ENCODING 36
SWIDTH 541 0
DWIDTH 13 0
BBX 11 19 0 -3
BITMAP
0700
0700
0700
3F80
3F80
E0E0
E0E0
E000
3F00
3F00
1F80
00E0
E0E0
E0E0
3F80
3F80
0700
0700
0700
ENDCHAR
STARTCHAR 0025
ENCODING 37
SWIDTH 541 0
DWIDTH 13 0
BBX 11 11 0 0
BITMAP
3860
3860
38E0
0380
0380
0700
1C00
1C00
38E0
E0E0
E0E0
ENDCHAR
STARTCHAR 0026
ENCODING 38
SWIDTH 541 0
DWIDTH 13 0
BBX 11 16 0 0
BITMAP
1F00
1F00
3B80
3B80
1F00
1F00
1C00
3CE0
3FE0
3FE0
E380
E380
E380
E380
3CE0
3CE0
ENDCHAR
STARTCHAR 0027
ENCODING 39
SWIDTH 500 0
DWIDTH 12 0
BBX 5 6 4 11
BITMAP
38
38
38
38
E0
E0
ENDCHAR
STARTCHAR 0028
ENCODING 40
SWIDTH 500 0
DWIDTH 12 0
BBX 6 16 3 0
BITMAP
1C
1C
38
38
E0
E0
E0
E0
E0
E0
E0
E0
E0
38
1C
1C
ENDCHAR
STARTCHAR 0029
ENCODING 41
SWIDTH 500 0
DWIDTH 12 0
BBX 6 16 3 0
BITMAP
E0
E0
38
38
1C
1C
1C
1C
1C
1C
1C
1C
1C
38
E0
E0
ENDCHAR
STARTCHAR 002A
ENCODING 42
SWIDTH 541 0
DWIDTH 13 0
BBX 11 8 0 3
BITMAP
3B80
3F80
1F00
FFE0
FFE0
1F00
3B80
3B80
ENDCHAR
STARTCHAR 002B
ENCODING 43
SWIDTH 500 0
DWIDTH 12 0
BBX 9 8 1 3
BITMAP
1C00
1C00
1C00
FF80
FF80
1C00
1C00
1C00
ENDCHAR
STARTCHAR 002C
ENCODING 44
SWIDTH 500 0
DWIDTH 12 0
BBX 5 7 4 -2
BITMAP
38
38
38
38
38
E0
E0
ENDCHAR
STARTCHAR 002D
ENCODING 45
SWIDTH 541 0
DWIDTH 13 0
BBX 11 2 0 6
BITMAP
FFE0
FFE0
ENDCHAR
STARTCHAR 002E
ENCODING 46
SWIDTH 500 0
DWIDTH 12 0
BBX 3 3 4 0
BITMAP
E0
E0
E0
ENDCHAR
STARTCHAR 002F
ENCODING 47
SWIDTH 500 0
DWIDTH 12 0
BBX 11 13 0 0
BITMAP
0060
0060
00E0
0080
0380
0700
0700
1C00
3800
3800
E000
C000
C000
ENDCHAR
STARTCHAR 0030
ENCODING 48
SWIDTH 500 0
DWIDTH 12 0
BBX 11 16 0 0
BITMAP
7F80
7F80
E0E0
E0E0
E0E0
E3E0
E3E0
E7E0
FCE0
FCE0
F8E0
E0E0
E0E0
E0E0
7F80
7F80
ENDCHAR
STARTCHAR 0031
ENCODING 49
SWIDTH 500 0
DWIDTH 12 0
BBX 9 16 1 0
BITMAP
1C00
1C00
FC00
FC00
1C00
1C00
1C00
1C00
1C00
1C00
1C00
1C00
1C00
1C00
FF80
FF80
ENDCHAR
STARTCHAR 0032
ENCODING 50
SWIDTH 500 0
DWIDTH 12 0
BBX 11 16 0 0
BITMAP
3F80
3F80
E0E0
E0E0
E0E0
00E0
00E0
0380
0700
0700
1C00
3800
3800
E0E0
FFE0
FFE0
ENDCHAR
STARTCHAR 0033
ENCODING 51
SWIDTH 500 0
DWIDTH 12 0
BBX 11 16 0 0
BITMAP
7F80
7F80
E0E0
E0E0
00E0
00E0
1F80
1F80
00E0
00E0
00E0
00E0
00E0
E0E0
7F80
7F80
ENDCHAR
STARTCHAR 0034
ENCODING 52
SWIDTH 500 0
DWIDTH 12 0
BBX 11 16 0 0
BITMAP
0380
0380
0780
1F80
1F80
3B80
E380
E380
E380
E380
FFE0
FFE0
0380
0380
07E0
07E0
ENDCHAR
STARTCHAR 0035
ENCODING 53
SWIDTH 500 0
DWIDTH 12 0
BBX 11 16 0 0
BITMAP
FFE0
FFE0
E000
E000
E000
E000
FF80
FF80
00E0
00E0
00E0
00E0
00E0
E0E0
7F80
7F80
ENDCHAR
STARTCHAR 0036
ENCODING 54
SWIDTH 500 0
DWIDTH 12 0
BBX 11 16 0 0
BITMAP
7F80
7F80
E0E0
E0E0
E000
E000
FF80
FF80
E0E0
E0E0
E0E0
E0E0
E0E0
E0E0
7F80
7F80
ENDCHAR
STARTCHAR 0037
ENCODING 55
SWIDTH 500 0
DWIDTH 12 0
BBX 11 16 0 0
BITMAP
FFE0
FFE0
E0E0
00E0
00E0
0380
0780
0700
1C00
1C00
1C00
1C00
1C00
1C00
1C00
1C00
ENDCHAR
STARTCHAR 0038
ENCODING 56
SWIDTH 500 0
DWIDTH 12 0
BBX 11 16 0 0
BITMAP
7F80
7F80
E0E0
E0E0
E0E0
E0E0
7F80
7F80
E0E0
E0E0
E0E0
E0E0
E0E0
E0E0
7F80
7F80
ENDCHAR
STARTCHAR 0039
ENCODING 57
SWIDTH 500 0
DWIDTH 12 0
BBX 11 16 0 0
BITMAP
7F80
7F80
E0E0
E0E0
E0E0
E0E0
E0E0
E0E0
7FE0
7FE0
00E0
00E0
00E0
E0E0
7F80
7F80
ENDCHAR
STARTCHAR 003A
ENCODING 58
SWIDTH 500 0
DWIDTH 12 0
BBX 3 9 6 2
BITMAP
E0
E0
E0
00
00
00
E0
E0
E0
ENDCHAR
STARTCHAR 003B
ENCODING 59
SWIDTH 500 0
DWIDTH 12 0
BBX 5 13 4 -2
BITMAP
38
38
38
00
00
00
38
38
38
38
38
E0
E0
ENDCHAR
STARTCHAR 003C
ENCODING 60
SWIDTH 500 0
DWIDTH 12 0
BBX 9 14 0 0
BITMAP
0380
0700
0700
1C00
3800
3800
E000
E000
3800
1C00
1C00
0700
0380
0380
ENDCHAR
STARTCHAR 003D
ENCODING 61
SWIDTH 541 0
DWIDTH 13 0
BBX 11 5 0 5
BITMAP
FFE0
FFE0
0000
FFE0
FFE0
ENDCHAR
STARTCHAR 003E
ENCODING 62
SWIDTH 500 0
DWIDTH 12 0
BBX 9 14 1 0
BITMAP
E000
3800
3800
1C00
0700
0700
0380
0380
0700
1C00
1C00
3800
E000
E000
ENDCHAR
STARTCHAR 003F
ENCODING 63
SWIDTH 541 0
DWIDTH 13 0
BBX 11 16 0 0
BITMAP
7F80
7F80
E0E0
E0E0
E0E0
0380
0700
0700
0700
0700
0700
0000
0000
0700
0700
0700
ENDCHAR
STARTCHAR 0040
ENCODING 64
SWIDTH 541 0
DWIDTH 13 0
BBX 11 16 0 0
BITMAP
7F80
7F80
E0E0
E0E0
E0E0
E0E0
E0E0
EFE0
EFE0
EFE0
EFE0
EF80
EF80
E000
7FE0
7FE0
ENDCHAR
STARTCHAR 0041
ENCODING 65
SWIDTH 541 0
DWIDTH 13 0
BBX 11 16 0 0
BITMAP
1F00
1F00
3B80
E0E0
E0E0
E0E0
E0E0
E0E0
FFE0
FFE0
E0E0
E0E0
E0E0
E0E0
E0E0
E0E0
ENDCHAR
STARTCHAR 0042
ENCODING 66
SWIDTH 500 0
DWIDTH 12 0
BBX 10 16 0 0
BITMAP
FF80
FF80
71C0
71C0
71C0
71C0
7F80
7F80
71C0
71C0
71C0
71C0
71C0
71C0
FF80
FF80
ENDCHAR
STARTCHAR 0043
ENCODING 67
SWIDTH 500 0
DWIDTH 12 0
BBX 11 16 0 0
BITMAP
1F80
1F80
38E0
38E0
E060
E000
E000
E000
E000
E000
E000
E060
E060
38E0
1F80
1F80
ENDCHAR
STARTCHAR 0044
ENCODING 68
SWIDTH 541 0
DWIDTH 13 0
BBX 11 16 0 0
BITMAP
FF00
FF00
3B80
3B80
38E0
38E0
38E0
38E0
38E0
38E0
38E0
38E0
38E0
3B80
FF00
FF00
ENDCHAR
STARTCHAR 0045
ENCODING 69
SWIDTH 541 0
DWIDTH 13 0
BBX 11 16 0 0
BITMAP
FFE0
FFE0
38E0
3800
3800
38C0
3FC0
3FC0
38C0
38C0
3800
3800
3800
38E0
FFE0
FFE0
ENDCHAR
STARTCHAR 0046
ENCODING 70
SWIDTH 500 0
DWIDTH 12 0
BBX 10 16 0 0
BITMAP
FFC0
FFC0
39C0
3800
3800
3980
3F80
3F80
3980
3980
3800
3800
3800
3800
FC00
FC00
ENDCHAR
STARTCHAR 0047
ENCODING 71
SWIDTH 541 0
DWIDTH 13 0
BBX 11 16 0 0
BITMAP
7F80
7F80
E0E0
E0E0
E0E0
E000
E000
E000
E000
E3E0
E3E0
E0E0
E0E0
E0E0
7F80
7F80
ENDCHAR
STARTCHAR 0048
ENCODING 72
SWIDTH 541 0
DWIDTH 13 0
BBX 11 16 0 0
BITMAP
E0E0
E0E0
E0E0
E0E0
E0E0
E0E0
FFE0
FFE0
E0E0
E0E0
E0E0
E0E0
E0E0
E0E0
E0E0
E0E0
ENDCHAR
STARTCHAR 0049
ENCODING 73
SWIDTH 500 0
DWIDTH 12 0
BBX 6 16 3 0
BITMAP
FC
FC
38
38
38
38
38
38
38
38
38
38
38
38
FC
FC
ENDCHAR
STARTCHAR 004A
ENCODING 74
SWIDTH 500 0
DWIDTH 12 0
BBX 9 16 0 0
BITMAP
1F80
1F80
0700
0700
0700
0700
0700
0700
0700
0700
0700
E700
E700
E700
7C00
7C00
ENDCHAR
STARTCHAR 004B
ENCODING 75
SWIDTH 541 0
DWIDTH 13 0
BBX 11 16 0 0
BITMAP
E0E0
E0E0
E0E0
E380
E380
E700
E400
FC00
FC00
FC00
E700
E380
E380
E0E0
E0E0
E0E0
ENDCHAR
STARTCHAR 004C
ENCODING 76
SWIDTH 500 0
DWIDTH 12 0
BBX 11 16 0 0
BITMAP
FC00
FC00
3800
3800
3800
3800
3800
3800
3800
3800
3800
3860
3860
39E0
FFE0
FFE0
ENDCHAR
STARTCHAR 004D
ENCODING 77
SWIDTH 541 0
DWIDTH 13 0
BBX 11 16 0 0
BITMAP
E0E0
E0E0
E0E0
FBE0
FBE0
FBE0
FBE0
FFE0
ECE0
ECE0
ECE0
ECE0
ECE0
E0E0
E0E0
E0E0
ENDCHAR
STARTCHAR 004E
ENCODING 78
SWIDTH 541 0
DWIDTH 13 0
BBX 11 16 0 0
BITMAP
E0E0
E0E0
E0E0
F8E0
F8E0
F8E0
F8E0
FCE0
E7E0
E7E0
E3E0
E3E0
E3E0
E0E0
E0E0
E0E0
ENDCHAR
STARTCHAR 004F
ENCODING 79
SWIDTH 541 0
DWIDTH 13 0
BBX 11 16 0 0
BITMAP
7F80
7F80
E0E0
E0E0
E0E0
E0E0
E0E0
E0E0
E0E0
E0E0
E0E0
E0E0
E0E0
E0E0
7F80
7F80
ENDCHAR
STARTCHAR 0050
ENCODING 80
SWIDTH 541 0
DWIDTH 13 0
BBX 11 16 0 0
BITMAP
FF80
FF80
38E0
38E0
38E0
38E0
38E0
38E0
3F80
3F80
3800
3800
3800
3800
FC00
FC00
ENDCHAR
STARTCHAR 0051
ENCODING 81
SWIDTH 541 0
DWIDTH 13 0
BBX 11 18 0 -2
BITMAP
7F80
7F80
E0E0
E0E0
E0E0
E0E0
E0E0
E0E0
E0E0
E0E0
E0E0
ECE0
ECE0
ECE0
7F80
7F80
00E0
00E0
ENDCHAR
STARTCHAR 0052
ENCODING 82
SWIDTH 541 0
DWIDTH 13 0
BBX 11 16 0 0
BITMAP
FF80
FF80
38E0
38E0
38E0
38E0
38E0
3F80
3F00
3F00
3B80
38E0
38E0
38E0
F8E0
F8E0
ENDCHAR
STARTCHAR 0053
ENCODING 83
SWIDTH 541 0
DWIDTH 13 0
BBX 11 16 0 0
BITMAP
7F80
7F80
E0E0
E0E0
E000
E000
7C00
7C00
0F80
00E0
00E0
00E0
00E0
E0E0
7F80
7F80
ENDCHAR
STARTCHAR 0054
ENCODING 84
SWIDTH 500 0
DWIDTH 12 0
BBX 9 16 1 0
BITMAP
FF80
FF80
DC80
1C00
1C00
1C00
1C00
1C00
1C00
1C00
1C00
1C00
1C00
1C00
3F00
3F00
ENDCHAR
STARTCHAR 0055
ENCODING 85
SWIDTH 541 0
DWIDTH 13 0
BBX 11 16 0 0
BITMAP
E0E0
E0E0
E0E0
E0E0
E0E0
E0E0
E0E0
E0E0
E0E0
E0E0
E0E0
E0E0
E0E0
E0E0
7F80
7F80
ENDCHAR
STARTCHAR 0056
ENCODING 86
SWIDTH 541 0
DWIDTH 13 0
BBX 11 16 0 0
BITMAP
E0E0
E0E0
E0E0
E0E0
E0E0
E0E0
E0E0
E0E0
E0E0
E0E0
E0E0
3B80
3B80
1F00
0400
0400
ENDCHAR
STARTCHAR 0057
ENCODING 87
SWIDTH 541 0
DWIDTH 13 0
BBX 11 16 0 0
BITMAP
E0E0
E0E0
E0E0
E0E0
E0E0
ECE0
ECE0
ECE0
ECE0
ECE0
FFE0
FBE0
FBE0
E0E0
E0E0
E0E0
ENDCHAR
STARTCHAR 0058
ENCODING 88
SWIDTH 541 0
DWIDTH 13 0
BBX 11 16 0 0
BITMAP
E0E0
E0E0
E0E0
E0E0
E0E0
3B80
3B80
1F00
1F00
1F00
3B80
E0E0
E0E0
E0E0
E0E0
E0E0
ENDCHAR
STARTCHAR 0059
ENCODING 89
SWIDTH 500 0
DWIDTH 12 0
BBX 9 16 1 0
BITMAP
E380
E380
E380
E380
E380
E380
E380
E380
3F00
3F00
1C00
1C00
1C00
1C00
3F00
3F00
ENDCHAR
STARTCHAR 005A
ENCODING 90
SWIDTH 541 0
DWIDTH 13 0
BBX 11 16 0 0
BITMAP
FFE0
FFE0
E0E0
C0E0
C0E0
0380
0380
0700
1C00
1C00
3800
E060
E060
E0E0
FFE0
FFE0
ENDCHAR
STARTCHAR 005B
ENCODING 91
SWIDTH 500 0
DWIDTH 12 0
BBX 8 16 1 0
BITMAP
FF
FF
E0
E0
E0
E0
E0
E0
E0
E0
E0
E0
E0
E0
FF
FF
ENDCHAR
STARTCHAR 005C
ENCODING 92
SWIDTH 500 0
DWIDTH 12 0
BBX 11 13 0 0
BITMAP
C000
C000
E000
2000
3800
1C00
1C00
0700
0380
0380
00E0
0060
0060
ENDCHAR
STARTCHAR 005D
ENCODING 93
SWIDTH 500 0
DWIDTH 12 0
BBX 8 16 1 0
BITMAP
FF
FF
07
07
07
07
07
07
07
07
07
07
07
07
FF
FF
ENDCHAR
STARTCHAR 005E
ENCODING 94
SWIDTH 541 0
DWIDTH 13 0
BBX 11 6 0 11
BITMAP
0400
1F00
1F00
3B80
E0E0
E0E0
ENDCHAR
STARTCHAR 005F
ENCODING 95
SWIDTH 500 0
DWIDTH 12 0
BBX 12 2 0 -3
BITMAP
FFF0
FFF0
ENDCHAR
STARTCHAR 0060
ENCODING 96
SWIDTH 500 0
DWIDTH 12 0
BBX 5 6 4 11
BITMAP
E0
E0
E0
E0
38
38
ENDCHAR
STARTCHAR 0061
ENCODING 97
SWIDTH 541 0
DWIDTH 13 0
BBX 11 11 0 0
BITMAP
7E00
7E00
0380
7F80
7F80
E380
E380
E380
EF80
7CE0
7CE0
ENDCHAR
STARTCHAR 0062
ENCODING 98
SWIDTH 500 0
DWIDTH 12 0
BBX 10 16 0 0
BITMAP
F000
F000
7000
7000
7000
7F80
7F80
71C0
71C0
71C0
71C0
71C0
71C0
71C0
FF80
FF80
ENDCHAR
STARTCHAR 0063
ENCODING 99
SWIDTH 541 0
DWIDTH 13 0
BBX 11 11 0 0
BITMAP
7F80
FFE0
E0E0
E000
E000
E000
E000
E000
E0E0
7F80
7F80
ENDCHAR
STARTCHAR 0064
ENCODING 100
SWIDTH 541 0
DWIDTH 13 0
BBX 11 16 0 0
BITMAP
0F80
0F80
0380
0380
0380
3F80
3F80
E380
E380
E380
E380
E380
E380
E380
3FE0
3FE0
ENDCHAR
STARTCHAR 0065
ENCODING 101
SWIDTH 541 0
DWIDTH 13 0
BBX 11 11 0 0
BITMAP
7F80
FFE0
E0E0
E0E0
E0E0
FFE0
FFE0
E000
E0E0
7F80
7F80
ENDCHAR
STARTCHAR 0066
ENCODING 102
SWIDTH 541 0
DWIDTH 13 0
BBX 11 16 0 0
BITMAP
0F80
0F80
1CE0
1CE0
1C00
1C00
FF80
FF80
1C00
1C00
1C00
1C00
1C00
1C00
3F00
3F00
ENDCHAR
STARTCHAR 0067
ENCODING 103
SWIDTH 541 0
DWIDTH 13 0
BBX 11 14 0 -3
BITMAP
7CE0
FFE0
E3E0
E0E0
E0E0
E0E0
E3E0
7CE0
7CE0
00E0
00E0
E0E0
7F80
7F80
ENDCHAR
STARTCHAR 0068
ENCODING 104
SWIDTH 541 0
DWIDTH 13 0
BBX 11 16 0 0
BITMAP
F800
F800
3800
3800
3800
3FC0
3FC0
38E0
38E0
38E0
38E0
38E0
38E0
38E0
F8E0
F8E0
ENDCHAR
STARTCHAR 0069
ENCODING 105
SWIDTH 500 0
DWIDTH 12 0
BBX 6 16 3 0
BITMAP
38
38
38
00
00
F8
F8
38
38
38
38
38
38
38
FC
FC
ENDCHAR
STARTCHAR 006A
ENCODING 106
SWIDTH 500 0
DWIDTH 12 0
BBX 9 19 0 -3
BITMAP
0380
0380
0380
0000
0000
0F80
0F80
0380
0380
0380
0380
0380
0380
0380
E380
E380
E380
3F00
3F00
ENDCHAR
STARTCHAR 006B
ENCODING 107
SWIDTH 541 0
DWIDTH 13 0
BBX 11 16 0 0
BITMAP
F800
F800
3800
3800
3800
38E0
38E0
38E0
39C0
3F00
3F00
39C0
39C0
38E0
F8E0
F8E0
ENDCHAR
STARTCHAR 006C
ENCODING 108
SWIDTH 500 0
DWIDTH 12 0
BBX 5 16 4 0
BITMAP
E0
E0
E0
E0
E0
E0
E0
E0
E0
E0
E0
E0
E0
E0
F8
F8
ENDCHAR
STARTCHAR 006D
ENCODING 109
SWIDTH 541 0
DWIDTH 13 0
BBX 11 11 0 0
BITMAP
3B80
3B80
FFE0
E4E0
E4E0
E4E0
E4E0
E0E0
E0E0
E0E0
E0E0
ENDCHAR
STARTCHAR 006E
ENCODING 110
SWIDTH 541 0
DWIDTH 13 0
BBX 11 11 0 0
BITMAP
E780
E780
38E0
38E0
38E0
38E0
38E0
38E0
38E0
38E0
38E0
ENDCHAR
STARTCHAR 006F
ENCODING 111
SWIDTH 541 0
DWIDTH 13 0
BBX 11 11 0 0
BITMAP
7F80
7F80
E0E0
E0E0
E0E0
E0E0
E0E0
E0E0
E0E0
7F80
7F80
ENDCHAR
STARTCHAR 0070
ENCODING 112
SWIDTH 541 0
DWIDTH 13 0
BBX 11 14 0 -3
BITMAP
E780
E780
38E0
38E0
38E0
38E0
38E0
3F80
3F80
3800
3800
3800
FC00
FC00
ENDCHAR
STARTCHAR 0071
ENCODING 113
SWIDTH 541 0
DWIDTH 13 0
BBX 11 14 0 -3
BITMAP
7CE0
7CE0
E380
E380
E380
E380
E380
7F80
7F80
0380
0380
0380
07E0
07E0
ENDCHAR
STARTCHAR 0072
ENCODING 114
SWIDTH 541 0
DWIDTH 13 0
BBX 11 11 0 0
BITMAP
E780
FFE0
38E0
3800
3800
3800
3800
3800
3800
FC00
FC00
ENDCHAR
STARTCHAR 0073
ENCODING 115
SWIDTH 541 0
DWIDTH 13 0
BBX 11 11 0 0
BITMAP
7F80
7F80
E0E0
E0E0
7F80
7F80
00E0
00E0
E0E0
7F80
7F80
ENDCHAR
STARTCHAR 0074
ENCODING 116
SWIDTH 541 0
DWIDTH 13 0
BBX 11 16 0 0
BITMAP
1C00
1C00
1C00
1C00
1C00
FF80
FF80
1C00
1C00
1C00
1C00
1C00
1CE0
1CE0
0F80
0F80
ENDCHAR
STARTCHAR 0075
ENCODING 117
SWIDTH 541 0
DWIDTH 13 0
BBX 11 11 0 0
BITMAP
E380
E380
E380
E380
E380
E380
E380
E380
E380
7CE0
7CE0
ENDCHAR
STARTCHAR 0076
ENCODING 118
SWIDTH 541 0
DWIDTH 13 0
BBX 11 11 0 0
BITMAP
E0E0
E0E0
E0E0
E0E0
E0E0
E0E0
3B80
3B80
1F00
0400
0400
ENDCHAR
STARTCHAR 0077
ENCODING 119
SWIDTH 541 0
DWIDTH 13 0
BBX 11 11 0 0
BITMAP
E0E0
E0E0
E0E0
E4E0
E4E0
E4E0
E4E0
E4E0
FFE0
3B80
3B80
ENDCHAR
STARTCHAR 0078
ENCODING 120
SWIDTH 541 0
DWIDTH 13 0
BBX 11 11 0 0
BITMAP
E0E0
E0E0
E0E0
3B80
1F00
1F00
3B80
3B80
E0E0
E0E0
E0E0
ENDCHAR
STARTCHAR 0079
ENCODING 121
SWIDTH 541 0
DWIDTH 13 0
BBX 11 14 0 -3
BITMAP
E0E0
E0E0
E0E0
E0E0
E0E0
E0E0
E3E0
FFE0
7CE0
00E0
00E0
E0E0
7F80
7F80
ENDCHAR
STARTCHAR 007A
ENCODING 122
SWIDTH 541 0
DWIDTH 13 0
BBX 11 11 0 0
BITMAP
FFE0
FFE0
C0E0
0380
0380
0700
1C00
1C00
3860
FFE0
FFE0
ENDCHAR
STARTCHAR 007B
ENCODING 123
SWIDTH 500 0
DWIDTH 12 0
BBX 9 16 1 0
BITMAP
0780
0780
1C00
1C00
1C00
1C00
F800
F800
1C00
1C00
1C00
1C00
1C00
1C00
0780
0780
ENDCHAR
STARTCHAR 007C
ENCODING 124
SWIDTH 500 0
DWIDTH 12 0
BBX 3 16 4 0
BITMAP
E0
E0
E0
E0
E0
E0
00
00
E0
E0
E0
E0
E0
E0
E0
E0
ENDCHAR
STARTCHAR 007D
ENCODING 125
SWIDTH 500 0
DWIDTH 12 0
BBX 9 16 1 0
BITMAP
F800
F800
1C00
1C00
1C00
1C00
0780
0780
1C00
1C00
1C00
1C00
1C00
1C00
F800
F800
ENDCHAR
STARTCHAR 007E
ENCODING 126
SWIDTH 541 0
DWIDTH 13 0
BBX 11 3 0 13
BITMAP
7CE0
EF80
EF80
ENDCHAR
STARTCHAR 007F
ENCODING 127
SWIDTH 541 0
DWIDTH 13 0
BBX 11 10 0 1
BITMAP
0400
0400
1F00
1F00
1F00
3B80
3B80
3B80
FFE0
FFE0
ENDCHAR
STARTCHAR 00A4
ENCODING 164
SWIDTH 1000 0
DWIDTH 24 0
BBX 20 21 3 -2
BITMAP
C0F030
270E40
270E40
180180
180180
200040
200040
200040
C00030
C00030
C00030
C00030
C00030
200040
200040
200040
180180
270E40
270E40
C0F030
C0F030
ENDCHAR
STARTCHAR 00A7
ENCODING 167
SWIDTH 1000 0
DWIDTH 24 0
BBX 8 23 9 -2
BITMAP
3C
3C
C3
C3
C0
20
20
18
24
24
C3
C3
C3
24
18
18
04
04
03
C3
C3
3C
3C
ENDCHAR
STARTCHAR 00A8
ENCODING 168
SWIDTH 1000 0
DWIDTH 24 0
BBX 17 6 4 8
BITMAP
380E00
FC1F80
FC1F80
FC1F80
380E00
380E00
ENDCHAR
STARTCHAR 00B0
ENCODING 176
SWIDTH 1000 0
DWIDTH 24 0
BBX 8 8 9 13
BITMAP
3C
3C
C3
C3
C3
C3
3C
3C
ENDCHAR
STARTCHAR 00B1
ENCODING 177
SWIDTH 1041 0
DWIDTH 25 0
BBX 14 17 6 2
BITMAP
0300
0300
0300
0300
0300
0300
FFFC
FFFC
0300
0300
0300
0300
0300
0300
0000
FFFC
FFFC
ENDCHAR
STARTCHAR 00D7
ENCODING 215
SWIDTH 1000 0
DWIDTH 24 0
BBX 14 15 6 1
BITMAP
C00C
C00C
2010
1860
1860
0480
0780
0300
0480
1860
1860
2010
2010
C00C
C00C
ENDCHAR
STARTCHAR 00E0
ENCODING 224
SWIDTH 1041 0
DWIDTH 25 0
BBX 13 19 6 2
BITMAP
1C00
1C00
0700
0380
0380
0000
7CE0
7CE0
E3E0
E3E0
E0E0
E0E0
E0E0
E0E0
E0E0
E0E0
E3E0
7CF8
7CF8
ENDCHAR
STARTCHAR 00E1
ENCODING 225
SWIDTH 1041 0
DWIDTH 25 0
BBX 13 19 6 2
BITMAP
0380
0380
0700
1C00
1C00
0000
7CE0
7CE0
E3E0
E3E0
E0E0
E0E0
E0E0
E0E0
E0E0
E0E0
E3E0
7CF8
7CF8
ENDCHAR
STARTCHAR 00E8
ENCODING 232
SWIDTH 1000 0
DWIDTH 24 0
BBX 12 19 6 2
BITMAP
1C00
1C00
0700
0380
0380
0000
1F80
1F80
38E0
38E0
E070
FFF0
FFF0
E000
E000
E000
3870
1FE0
1FE0
ENDCHAR
STARTCHAR 00E9
ENCODING 233
SWIDTH 1000 0
DWIDTH 24 0
BBX 12 19 6 2
BITMAP
0380
0380
0700
1C00
1C00
0000
1F80
1F80
38E0
38E0
E070
FFF0
FFF0
E000
E000
E000
3870
1FE0
1FE0
ENDCHAR
STARTCHAR 00EA
ENCODING 234
SWIDTH 1000 0
DWIDTH 24 0
BBX 12 19 6 2
BITMAP
0700
1F80
1F80
38E0
38E0
0000
1F80
1F80
38E0
38E0
E070
FFF0
FFF0
E000
E000
E000
3870
1FE0
1FE0
ENDCHAR
STARTCHAR 00EC
ENCODING 236
SWIDTH 1000 0
DWIDTH 24 0
BBX 6 19 9 2
BITMAP
E0
E0
38
1C
1C
00
38
38
38
38
38
38
38
38
38
38
38
38
38
ENDCHAR
STARTCHAR 00ED
ENCODING 237
SWIDTH 1000 0
DWIDTH 24 0
BBX 6 19 7 2
BITMAP
1C
1C
38
E0
E0
00
38
38
38
38
38
38
38
38
38
38
38
38
38
ENDCHAR
STARTCHAR 00F2
ENCODING 242
SWIDTH 1000 0
DWIDTH 24 0
BBX 12 19 6 2
BITMAP
1C00
1C00
0700
0380
0380
0000
1F80
1F80
38E0
38E0
E070
E070
E070
E070
E070
E070
38E0
1F80
1F80
ENDCHAR
STARTCHAR 00F3
ENCODING 243
SWIDTH 1000 0
DWIDTH 24 0
BBX 12 19 6 2
BITMAP
0380
0380
0700
1C00
1C00
0000
1F80
1F80
38E0
38E0
E070
E070
E070
E070
E070
E070
38E0
1F80
1F80
ENDCHAR
STARTCHAR 00F7
ENCODING 247
SWIDTH 1000 0
DWIDTH 24 0
BBX 15 14 4 3
BITMAP
0380
0380
0380
0000
0000
0000
FFFE
FFFE
0000
0000
0000
0380
0380
0380
ENDCHAR
STARTCHAR 00F9
ENCODING 249
SWIDTH 1041 0
DWIDTH 25 0
BBX 14 19 6 2
BITMAP
1C00
1C00
0700
0380
0380
0000
0000
E070
E070
E070
E070
E070
E070
E070
E070
E070
38F0
1F7C
1F7C
ENDCHAR
STARTCHAR 00FA
ENCODING 250
SWIDTH 1041 0
DWIDTH 25 0
BBX 14 19 6 2
BITMAP
0380
0380
0700
1C00
1C00
0000
0000
E070
E070
E070
E070
E070
E070
E070
E070
E070
38F0
1F7C
1F7C
ENDCHAR
STARTCHAR 00FC
ENCODING 252
SWIDTH 1041 0
DWIDTH 25 0
BBX 14 16 6 2
BITMAP
1880
1880
0000
0000
E070
E070
E070
E070
E070
E070
E070
E070
E070
38F0
1F7C
1F7C
ENDCHAR
STARTCHAR 0101
ENCODING 257
SWIDTH 1041 0
DWIDTH 25 0
BBX 13 17 6 2
BITMAP
7FE0
7FE0
0000
0000
7CE0
7CE0
E3E0
E3E0
E0E0
E0E0
E0E0
E0E0
E0E0
E0E0
E3E0
7CF8
7CF8
ENDCHAR
STARTCHAR 0113
ENCODING 275
SWIDTH 1000 0
DWIDTH 24 0
BBX 12 17 6 2
BITMAP
3FE0
3FE0
0000
0000
1F80
1F80
38E0
38E0
E070
FFF0
FFF0
E000
E000
E000
3870
1FE0
1FE0
ENDCHAR
STARTCHAR 011B
ENCODING 283
SWIDTH 1000 0
DWIDTH 24 0
BBX 12 19 6 2
BITMAP
38E0
38E0
1F80
1F80
0700
0000
1F80
1F80
38E0
38E0
E070
FFF0
FFF0
E000
E000
E000
3870
1FE0
1FE0
ENDCHAR
STARTCHAR 012B
ENCODING 299
SWIDTH 1000 0
DWIDTH 24 0
BBX 6 17 9 2
BITMAP
FC
FC
00
38
38
38
38
38
38
38
38
38
38
38
38
38
38
ENDCHAR
STARTCHAR 014D
ENCODING 333
SWIDTH 1000 0
DWIDTH 24 0
BBX 12 17 6 2
BITMAP
3FE0
3FE0
0000
0000
1F80
1F80
38E0
38E0
E070
E070
E070
E070
E070
E070
38E0
1F80
1F80
ENDCHAR
STARTCHAR 016B
ENCODING 363
SWIDTH 1041 0
DWIDTH 25 0
BBX 14 17 6 2
BITMAP
FFF0
FFF0
0000
0000
0000
E070
E070
E070
E070
E070
E070
E070
E070
E070
38F0
1F7C
1F7C
ENDCHAR
STARTCHAR 01CE
ENCODING 462
SWIDTH 1041 0
DWIDTH 25 0
BBX 13 19 6 2
BITMAP
38E0
38E0
1F80
1F80
0700
0000
3EE0
3EE0
E1E0
E1E0
E0E0
E0E0
E0E0
E0E0
E0E0
E0E0
E1E0
3EF8
3EF8
ENDCHAR
STARTCHAR 01D0
ENCODING 464
SWIDTH 1000 0
DWIDTH 24 0
BBX 9 19 7 2
BITMAP
E380
E380
3F00
3F00
1C00
0000
1C00
1C00
1C00
1C00
1C00
1C00
1C00
1C00
1C00
1C00
1C00
1C00
1C00
ENDCHAR
STARTCHAR 01D2
ENCODING 466
SWIDTH 1000 0
DWIDTH 24 0
BBX 12 19 6 2
BITMAP
38E0
38E0
1F80
1F80
0700
0000
1F80
1F80
38E0
38E0
E070
E070
E070
E070
E070
E070
38E0
1F80
1F80
ENDCHAR
STARTCHAR 01D4
ENCODING 468
SWIDTH 1041 0
DWIDTH 25 0
BBX 14 19 6 2
BITMAP
38E0
38E0
1F80
1F80
0700
0000
0000
E070
E070
E070
E070
E070
E070
E070
E070
E070
38F0
1F7C
1F7C
ENDCHAR
STARTCHAR 01D6
ENCODING 470
SWIDTH 1041 0
DWIDTH 25 0
BBX 14 19 6 2
BITMAP
FFF0
FFF0
0000
1880
1880
0000
0000
E070
E070
E070
E070
E070
E070
E070
E070
E070
38F0
1F7C
1F7C
ENDCHAR
STARTCHAR 01D8
ENCODING 472
SWIDTH 1041 0
DWIDTH 25 0
BBX 14 21 6 2
BITMAP
0380
0380
0700
1C00
1C00
0000
1880
1880
0000
E070
E070
E070
E070
E070
E070
E070
E070
E070
38F0
1F7C
1F7C
ENDCHAR
STARTCHAR 01DA
ENCODING 474
SWIDTH 1041 0
DWIDTH 25 0
BBX 14 21 6 2
BITMAP
38E0
1F80
1F80
0700
0000
0000
1880
1880
0000
E070
E070
E070
E070
E070
E070
E070
E070
E070
38F0
1F7C
1F7C
ENDCHAR
STARTCHAR 01DC
ENCODING 476
SWIDTH 1041 0
DWIDTH 25 0
BBX 14 21 6 2
BITMAP
1C00
1C00
0700
0380
0380
0000
1880
1880
0000
E070
E070
E070
E070
E070
E070
E070
E070
E070
38F0
1F7C
1F7C
ENDCHAR
STARTCHAR 02C7
ENCODING 711
SWIDTH 1000 0
DWIDTH 24 0
BBX 17 17 4 -2
BITMAP
C00180
C00180
C00180
200200
200200
200200
180C00
180C00
180C00
041000
041000
041000
036000
036000
03E000
008000
008000
ENDCHAR
STARTCHAR 02C9
ENCODING 713
SWIDTH 1000 0
DWIDTH 24 0
BBX 11 2 7 9
BITMAP
FFE0
FFE0
ENDCHAR
STARTCHAR 0391
ENCODING 913
SWIDTH 1000 0
DWIDTH 24 0
BBX 21 19 1 3
BITMAP
007000
007000
007C00
01FC00
01FC00
018E00
038E00
038E00
030380
030380
0F0380
0FFFC0
0FFFC0
1C01C0
180070
180070
780070
FC01F8
FC01F8
ENDCHAR
STARTCHAR 0392
ENCODING 914
SWIDTH 1041 0
DWIDTH 25 0
BBX 19 17 1 3
BITMAP
FFFFC0
FFFFC0
3E03E0
3800E0
3800E0
3800E0
3803E0
3803E0
3FFC00
3803E0
3803E0
3800E0
3800E0
3800E0
3E03E0
FFFFC0
FFFFC0
ENDCHAR
STARTCHAR 0393
ENCODING 915
SWIDTH 1000 0
DWIDTH 24 0
BBX 18 17 1 3
BITMAP
FFFFC0
FFFFC0
3C01C0
3800C0
3800C0
380000
380000
380000
380000
380000
380000
380000
380000
380000
380000
FC0000
FC0000
ENDCHAR
STARTCHAR 0394
ENCODING 916
SWIDTH 1000 0
DWIDTH 24 0
BBX 22 17 1 3
BITMAP
003800
00FC00
00FC00
01C700
01C700
01C700
070380
070380
070380
0E00E0
0E00E0
0E00E0
380070
380070
380070
FFFFFC
FFFFFC
ENDCHAR
STARTCHAR 0395
ENCODING 917
SWIDTH 1000 0
DWIDTH 24 0
BBX 19 17 1 3
BITMAP
FFFFE0
FFFFE0
3E01E0
380060
380060
380000
380C00
380C00
3FFC00
3FFC00
380C00
380000
380060
380060
3E01E0
FFFFE0
FFFFE0
ENDCHAR
STARTCHAR 0396
ENCODING 918
SWIDTH 1000 0
DWIDTH 24 0
BBX 18 17 3 3
BITMAP
FFFFC0
FFFFC0
E00380
C00E00
C00E00
001C00
007000
007000
00E000
038000
038000
070000
1C0040
1C0040
3801C0
FFFFC0
FFFFC0
ENDCHAR
STARTCHAR 0397
ENCODING 919
SWIDTH 1000 0
DWIDTH 24 0
BBX 21 17 1 3
BITMAP
FC01F8
FC01F8
380070
380070
380070
380070
380070
380070
3FFFF0
3FFFF0
380070
380070
380070
380070
380070
FC01F8
FC01F8
ENDCHAR
STARTCHAR 0398
ENCODING 920
SWIDTH 1000 0
DWIDTH 24 0
BBX 20 17 1 3
BITMAP
07FE00
07FE00
1C0780
3801C0
3801C0
E00070
E40670
E40670
E7FE70
E7FE70
E40670
E00070
3801C0
3C07C0
1C0780
07FE00
07FE00
ENDCHAR
STARTCHAR 0399
ENCODING 921
SWIDTH 1000 0
DWIDTH 24 0
BBX 6 17 9 3
BITMAP
FC
FC
38
38
38
38
38
38
38
38
38
38
38
38
38
FC
FC
ENDCHAR
STARTCHAR 039A
ENCODING 922
SWIDTH 1000 0
DWIDTH 24 0
BBX 17 17 1 3
BITMAP
FC7E00
FC7E00
387000
38E000
38E000
3B8000
3F0000
3F0000
3F0000
3B8000
3B8000
38E000
387000
387000
381C00
FC1F80
FC1F80
ENDCHAR
STARTCHAR 039B
ENCODING 923
SWIDTH 1000 0
DWIDTH 24 0
BBX 20 17 1 3
BITMAP
006000
00F000
00F000
039C00
039C00
039C00
070E00
070E00
070E00
1C0380
1C0380
1C0380
3801C0
3801C0
3801C0
FC03F0
FC03F0
ENDCHAR
STARTCHAR 039C
ENCODING 924
SWIDTH 1041 0
DWIDTH 25 0
BBX 23 17 0 3
BITMAP
FC007E
FC007E
3C0078
3F01F8
3F01F8
3B01B8
3B87B8
3B87B8
398638
39EE38
39EE38
386C38
387C38
387C38
383038
FC007E
FC007E
ENDCHAR
STARTCHAR 039D
ENCODING 925
SWIDTH 1000 0
DWIDTH 24 0
BBX 21 17 1 3
BITMAP
F801F8
F801F8
3C0070
3F0070
3F0070
3B8070
38E070
38E070
387070
381C70
381C70
380E70
3803F0
3803F0
3801F0
FC0078
FC0078
ENDCHAR
STARTCHAR 039E
ENCODING 926
SWIDTH 1000 0
DWIDTH 24 0
BBX 18 17 3 3
BITMAP
FFFFC0
FFFFC0
E001C0
C000C0
C000C0
000000
1C0E00
1C0E00
1FFE00
1FFE00
1C0E00
000000
C000C0
C000C0
E001C0
FFFFC0
FFFFC0
ENDCHAR
STARTCHAR 039F
ENCODING 927
SWIDTH 1000 0
DWIDTH 24 0
BBX 20 17 1 3
BITMAP
03FC00
1FFF80
1C0380
3801C0
3801C0
E00070
E00070
E00070
E00070
E00070
E00070
E00070
3801C0
3801C0
1C0380
03FC00
03FC00
ENDCHAR
STARTCHAR 03A0
ENCODING 928
SWIDTH 1000 0
DWIDTH 24 0
BBX 21 17 1 3
BITMAP
FFFFF8
FFFFF8
3C01F0
380070
380070
380070
380070
380070
380070
380070
380070
380070
380070
380070
380070
FC01F8
FC01F8
ENDCHAR
STARTCHAR 03A1
ENCODING 929
SWIDTH 1000 0
DWIDTH 24 0
BBX 20 17 1 3
BITMAP
FFFF80
FFFF80
3C01C0
380070
380070
380070
3C01C0
3C01C0
3FFF80
3FFF80
380000
380000
380000
380000
380000
FC0000
FC0000
ENDCHAR
STARTCHAR 03A3
ENCODING 931
SWIDTH 1000 0
DWIDTH 24 0
BBX 20 17 1 3
BITMAP
FFFFF0
FFFFF0
380070
0E0030
0E0030
070000
01C000
01C000
00C000
01C000
01C000
070000
0E0030
0E0030
380070
FFFFF0
FFFFF0
ENDCHAR
STARTCHAR 03A4
ENCODING 932
SWIDTH 1000 0
DWIDTH 24 0
BBX 21 17 1 3
BITMAP
FFFFF8
FFFFF8
E07038
C07018
C07018
007000
007000
007000
007000
007000
007000
007000
007000
007000
007000
00FC00
00FC00
ENDCHAR
STARTCHAR 03A5
ENCODING 933
SWIDTH 1000 0
DWIDTH 24 0
BBX 12 17 6 3
BITMAP
00E0
3BF0
3B70
C700
C700
0700
0700
0700
0700
0700
0700
0700
0700
0700
0700
1F80
1F80
ENDCHAR
STARTCHAR 03A6
ENCODING 934
SWIDTH 1000 0
DWIDTH 24 0
BBX 18 17 3 3
BITMAP
03F000
03F000
00E000
1FFE00
1FFE00
38E380
E0E1C0
E0E1C0
E0E1C0
E0E1C0
E0E1C0
38E380
1FFE00
1FFE00
00E000
03F000
03F000
ENDCHAR
STARTCHAR 03A7
ENCODING 935
SWIDTH 1000 0
DWIDTH 24 0
BBX 21 17 1 3
BITMAP
FC01F8
FC01F8
1C01C0
070380
070380
038E00
00FC00
00FC00
007000
00FC00
00FC00
038E00
070380
070380
1C01C0
FC01F8
FC01F8
ENDCHAR
STARTCHAR 03A8
ENCODING 936
SWIDTH 1000 0
DWIDTH 24 0
BBX 21 17 1 3
BITMAP
E0FC38
F8FCF8
7870F0
1870C0
1C71C0
1C71C0
1C71C0
1C71C0
1C71C0
0FFF80
0FFF80
007000
007000
007000
007000
00FC00
00FC00
ENDCHAR
STARTCHAR 03A9
ENCODING 937
SWIDTH 1000 0
DWIDTH 24 0
BBX 20 17 1 3
BITMAP
03FC00
03FC00
070E00
1C0380
1C0380
3801C0
3801C0
3801C0
3801C0
3801C0
3801C0
1C0380
C70E30
C70E30
E30C70
FF0FF0
FF0FF0
ENDCHAR
STARTCHAR 03B1
ENCODING 945
SWIDTH 1000 0
DWIDTH 24 0
BBX 17 14 3 3
BITMAP
079C00
3FFC00
387C00
E01C00
E01C00
E01C00
E01C00
E01C00
E01C00
E01C00
E01C00
387D80
078E00
078E00
ENDCHAR
STARTCHAR 03B2
ENCODING 946
SWIDTH 1000 0
DWIDTH 24 0
BBX 14 22 4 -2
BITMAP
1FE0
1FE0
E070
E070
E070
E0E0
FF00
FF00
E0E0
E01C
E01C
E01C
E01C
E01C
F870
E7E0
E7E0
E000
E000
E000
E000
E000
ENDCHAR
STARTCHAR 03B3
ENCODING 947
SWIDTH 1041 0
DWIDTH 25 0
BBX 17 19 3 -2
BITMAP
1F0380
1F0380
3B8E00
E38E00
E38E00
009C00
00FC00
00FC00
00F000
00F000
00F000
00F000
00F000
00E000
00E000
00E000
00E000
00E000
00E000
ENDCHAR
STARTCHAR 03B4
ENCODING 948
SWIDTH 1000 0
DWIDTH 24 0
BBX 12 17 6 3
BITMAP
1F80
3FE0
38E0
1E00
1E00
0700
1B80
1B80
38E0
E070
E070
E070
E070
E070
38E0
1F80
1F80
ENDCHAR
STARTCHAR 03B5
ENCODING 949
SWIDTH 1000 0
DWIDTH 24 0
BBX 9 14 6 3
BITMAP
3F00
3F00
E380
E380
E000
3800
0700
0700
3800
E000
E000
E380
3F00
3F00
ENDCHAR
STARTCHAR 03B6
ENCODING 950
SWIDTH 1000 0
DWIDTH 24 0
BBX 11 22 6 -2
BITMAP
1800
1800
6180
7B80
7B80
1C00
1C00
1C00
7800
E000
E000
E000
E000
E000
7800
1F80
1F80
01E0
01E0
01E0
1F80
1F80
ENDCHAR
STARTCHAR 03B7
ENCODING 951
SWIDTH 1000 0
DWIDTH 24 0
BBX 14 19 4 -2
BITMAP
03F0
03F0
6C1C
DC1C
DC1C
1C1C
1C1C
1C1C
1C1C
1C1C
1C1C
1C1C
1C1C
1C1C
001C
001C
001C
001C
001C
ENDCHAR
STARTCHAR 03B8
ENCODING 952
SWIDTH 1000 0
DWIDTH 24 0
BBX 14 17 4 3
BITMAP
07C0
3FF8
3838
3018
3018
F01C
F01C
F01C
FFFC
FFFC
F01C
F01C
F01C
3018
3838
07C0
07C0
ENDCHAR
STARTCHAR 03B9
ENCODING 953
SWIDTH 1000 0
DWIDTH 24 0
BBX 8 16 8 1
BITMAP
F8
F8
38
38
38
38
38
38
38
38
38
38
3B
3B
3E
3E
ENDCHAR
STARTCHAR 03BA
ENCODING 954
SWIDTH 1000 0
DWIDTH 24 0
BBX 15 14 4 3
BITMAP
F81E
F81E
3870
38E0
38E0
3B80
3F00
3F00
3B80
38E0
38E0
3870
FC7E
FC7E
ENDCHAR
STARTCHAR 03BB
ENCODING 955
SWIDTH 1000 0
DWIDTH 24 0
BBX 12 19 6 3
BITMAP
6000
6000
D800
D800
D800
1C00
1C00
1C00
1C00
1C00
1F00
1B00
7B80
7B80
61B0
61B0
E1F0
C060
C060
ENDCHAR
STARTCHAR 03BC
ENCODING 956
SWIDTH 1000 0
DWIDTH 24 0
BBX 14 19 6 -2
BITMAP
E0E0
E0E0
E0E0
E0E0
E0E0
E0E0
E0E0
E0E0
E0E0
E0E0
E0E0
E3EC
FC70
FC70
E000
E000
E000
E000
E000
ENDCHAR
STARTCHAR 03BD
ENCODING 957
SWIDTH 1000 0
DWIDTH 24 0
BBX 14 14 4 3
BITMAP
F018
F018
300C
381C
381C
1818
1E38
1E38
0620
06E0
06E0
07C0
01C0
01C0
ENDCHAR
STARTCHAR 03BE
ENCODING 958
SWIDTH 1041 0
DWIDTH 25 0
BBX 11 22 6 -2
BITMAP
3800
3800
E000
3F00
3F00
E000
E000
E000
3F00
3F00
E000
C000
C000
C000
E000
3F80
3F80
00E0
00E0
18E0
0780
0780
ENDCHAR
STARTCHAR 03BF
ENCODING 959
SWIDTH 1000 0
DWIDTH 24 0
BBX 12 14 4 3
BITMAP
1F80
1F80
38E0
E070
E070
C010
C010
C010
C010
E070
E070
38E0
1F80
1F80
ENDCHAR
STARTCHAR 03C0
ENCODING 960
SWIDTH 1000 0
DWIDTH 24 0
BBX 18 14 3 3
BITMAP
3FFFC0
FFFFC0
C71C00
071C00
071C00
071C00
071C00
071C00
071C00
041C00
041C00
1C1D80
380E00
380E00
ENDCHAR
STARTCHAR 03C1
ENCODING 961
SWIDTH 1000 0
DWIDTH 24 0
BBX 14 19 4 -2
BITMAP
1FE0
1FE0
3870
E01C
E01C
E01C
E01C
E01C
E01C
E01C
F81C
FC70
E7E0
E7E0
E000
E000
E000
E000
E000
ENDCHAR
STARTCHAR 03C3
ENCODING 963
SWIDTH 1000 0
DWIDTH 24 0
BBX 15 14 4 3
BITMAP
1FFE
1FFE
3870
E01C
E01C
E01C
E01C
E01C
E01C
E01C
E01C
3870
1FE0
1FE0
ENDCHAR
STARTCHAR 03C4
ENCODING 964
SWIDTH 1000 0
DWIDTH 24 0
BBX 11 14 6 3
BITMAP
7FE0
FFE0
E700
0700
0700
0700
0700
0700
0700
0700
0700
0760
0380
0380
ENDCHAR
STARTCHAR 03C5
ENCODING 965
SWIDTH 1000 0
DWIDTH 24 0
BBX 14 14 4 3
BITMAP
3870
FC7C
DC1C
1C1C
1C1C
1C1C
1C1C
1C1C
1C1C
1C1C
1C1C
1C1C
07F0
07F0
ENDCHAR
STARTCHAR 03C6
ENCODING 966
SWIDTH 1000 0
DWIDTH 24 0
BBX 15 22 4 -2
BITMAP
0380
0380
0380
1FF0
1FF0
3B9C
E38E
E38E
E38E
E38E
E38E
E38E
E38E
E38E
3B9C
1FF0
1FF0
0380
0380
0380
0380
0380
ENDCHAR
STARTCHAR 03C7
ENCODING 967
SWIDTH 1000 0
DWIDTH 24 0
BBX 15 19 4 1
BITMAP
380E
FC1E
DC1C
1C1C
1C1C
0770
07E0
07E0
0380
0380
0380
07E0
1CE0
1CE0
3870
3872
3872
E01C
E01C
ENDCHAR
STARTCHAR 03C8
ENCODING 968
SWIDTH 1000 0
DWIDTH 24 0
BBX 15 22 3 -2
BITMAP
00E0
00E0
00E0
38EC
38EC
DCEE
DCEE
1CEE
1CEE
1CEE
1CEE
1CEE
1CEE
1CEE
1CEE
07FC
07FC
00E0
00E0
00E0
00E0
00E0
ENDCHAR
STARTCHAR 03C9
ENCODING 969
SWIDTH 1041 0
DWIDTH 25 0
BBX 17 14 3 3
BITMAP
041000
3C1E00
380E00
E18380
E18380
E18380
E18380
E18380
E18380
E18380
E18380
3BEE00
1C1C00
1C1C00
ENDCHAR
STARTCHAR 0401
ENCODING 1025
SWIDTH 1000 0
DWIDTH 24 0
BBX 16 22 4 -2
BITMAP
0618
0618
0000
FFFF
FFFF
3807
3803
3803
3800
3818
3FF8
3FF8
3818
3818
3800
3800
3800
3803
3E07
3E07
FFFF
FFFF
ENDCHAR
STARTCHAR 0410
ENCODING 1040
SWIDTH 1000 0
DWIDTH 24 0
BBX 17 20 4 0
BITMAP
008000
03E000
03E000
036000
077000
077000
047000
047000
047000
181C00
1FFC00
1FFC00
181C00
181C00
600E00
600E00
600E00
600E00
F81F80
F81F80
ENDCHAR
STARTCHAR 0411
ENCODING 1041
SWIDTH 1041 0
DWIDTH 25 0
BBX 16 19 4 0
BITMAP
FFFF
FFFF
3C07
3803
3803
3800
3800
3800
3FF8
387C
387C
381F
381F
3807
3807
3807
3C1C
FFF8
FFF8
ENDCHAR
STARTCHAR 0412
ENCODING 1042
SWIDTH 1041 0
DWIDTH 25 0
BBX 16 19 4 0
BITMAP
FFFC
FFFC
3C1F
3C1F
3807
381F
387F
387C
3FE0
3FE0
387C
381F
381F
3807
3807
3807
3C1C
FFF8
FFF8
ENDCHAR
STARTCHAR 0413
ENCODING 1043
SWIDTH 1000 0
DWIDTH 24 0
BBX 16 19 4 0
BITMAP
FFFF
FFFF
3E0F
3803
3803
3800
3800
3800
3800
3800
3800
3800
3800
3800
3800
3800
3800
FE00
FE00
ENDCHAR
STARTCHAR 0414
ENCODING 1044
SWIDTH 1000 0
DWIDTH 24 0
BBX 18 19 3 0
BITMAP
1FFF80
1FFF80
030E00
030E00
030E00
030E00
040E00
040E00
040E00
040E00
040E00
180E00
180E00
180E00
180E00
FFFFC0
FFFFC0
C000C0
C000C0
ENDCHAR
STARTCHAR 0415
ENCODING 1045
SWIDTH 1000 0
DWIDTH 24 0
BBX 16 19 4 0
BITMAP
FFFF
FFFF
3E07
3803
3803
3800
3818
3818
3FF8
3FF8
3818
3800
3800
3800
3803
3803
3E07
FFFF
FFFF
ENDCHAR
STARTCHAR 0416
ENCODING 1046
SWIDTH 1041 0
DWIDTH 25 0
BBX 22 19 1 0
BITMAP
F8F87C
F8F87C
3C71F0
3C71F0
047180
047180
047180
037600
077780
07FF80
07FF80
077780
077780
1C71C0
1C71C0
1C71C0
387070
FCF9FC
FCF9FC
ENDCHAR
STARTCHAR 0417
ENCODING 1047
SWIDTH 1000 0
DWIDTH 24 0
BBX 17 20 4 0
BITMAP
07E000
D87C00
D87C00
E01E00
E01F80
C00F80
001E00
007E00
007C00
03E000
03E000
007C00
001E00
001E00
C00F80
201E00
3C7E00
1C7C00
03F000
03F000
ENDCHAR
STARTCHAR 0418
ENCODING 1048
SWIDTH 1000 0
DWIDTH 24 0
BBX 17 19 4 0
BITMAP
FE1F80
FE1F80
380700
381F00
381F00
382700
382700
382700
38C700
38C700
38C700
3B0700
3B0700
3B0700
3E0700
3E0700
380700
FE1F80
FE1F80
ENDCHAR
STARTCHAR 0419
ENCODING 1049
SWIDTH 1000 0
DWIDTH 24 0
BBX 17 22 4 -1
BITMAP
0E1C00
0E1C00
07F800
07F800
FE1F80
FE1F80
381F00
381F00
382700
382700
382700
38C700
38C700
38C700
380700
390700
390700
3F0700
3E0700
380700
FE1F80
FE1F80
ENDCHAR
STARTCHAR 041A
ENCODING 1050
SWIDTH 1000 0
DWIDTH 24 0
BBX 19 19 4 0
BITMAP
FE0700
FE0700
381C80
383C80
383800
38C000
38C000
3B0000
3FC000
3FC000
38E000
383800
383800
383C00
381F00
381F00
380700
FE07E0
FE07E0
ENDCHAR
STARTCHAR 041B
ENCODING 1051
SWIDTH 1000 0
DWIDTH 24 0
BBX 17 19 3 0
BITMAP
1FFF80
1FFF80
030E00
030E00
030E00
030E00
040E00
040E00
040E00
040E00
040E00
180E00
180E00
180E00
D80E00
D80E00
F80E00
E01F80
E01F80
ENDCHAR
STARTCHAR 041C
ENCODING 1052
SWIDTH 1041 0
DWIDTH 25 0
BBX 20 17 3 0
BITMAP
F801F0
FE03F0
7E03C0
670DC0
670DC0
670DC0
630DC0
638DC0
6391C0
6091C0
60F1C0
60F1C0
60F1C0
6061C0
6061C0
F803F0
F803F0
ENDCHAR
STARTCHAR 041D
ENCODING 1053
SWIDTH 1000 0
DWIDTH 24 0
BBX 17 19 4 0
BITMAP
FE1F80
FE1F80
380700
380700
380700
380700
380700
380700
3FFF00
3FFF00
380700
380700
380700
380700
380700
380700
380700
FE1F80
FE1F80
ENDCHAR
STARTCHAR 041E
ENCODING 1054
SWIDTH 1000 0
DWIDTH 24 0
BBX 17 19 4 0
BITMAP
07F000
07F000
1C1C00
1C1C00
380E00
E00380
E00380
E00380
E00380
E00380
E00380
E00380
E00380
E00380
380E00
380E00
1C1C00
07F000
07F000
ENDCHAR
STARTCHAR 041F
ENCODING 1055
SWIDTH 1000 0
DWIDTH 24 0
BBX 17 19 4 0
BITMAP
FFFF80
FFFF80
380700
380700
380700
380700
380700
380700
380700
380700
380700
380700
380700
380700
380700
380700
380700
FE1F80
FE1F80
ENDCHAR
STARTCHAR 0420
ENCODING 1056
SWIDTH 1041 0
DWIDTH 25 0
BBX 16 19 4 0
BITMAP
FFF8
FFF8
3E1C
3807
3807
3807
3807
3807
3E1C
3E1C
3FF8
3FF8
3800
3800
3800
3800
3800
FE00
FE00
ENDCHAR
STARTCHAR 0421
ENCODING 1057
SWIDTH 1000 0
DWIDTH 24 0
BBX 15 19 4 0
BITMAP
07F8
07F8
1C1E
1C1E
380E
E002
E002
E000
E000
E000
E000
E000
E000
E000
3802
3C1E
1C1C
07F8
07F8
ENDCHAR
STARTCHAR 0422
ENCODING 1058
SWIDTH 1000 0
DWIDTH 24 0
BBX 15 17 4 2
BITMAP
FFFE
FFFE
C386
0380
0380
0380
0380
0380
0380
0380
0380
0380
0380
0380
0380
07C0
07C0
ENDCHAR
STARTCHAR 0423
ENCODING 1059
SWIDTH 1041 0
DWIDTH 25 0
BBX 18 21 4 -2
BITMAP
FE07C0
FE07C0
380300
380300
380300
3E0300
3E0300
0E0400
0F0400
0F0400
070800
073800
073800
01F000
00C000
31C000
310000
FE0000
FE0000
380000
380000
ENDCHAR
STARTCHAR 0424
ENCODING 1060
SWIDTH 1000 0
DWIDTH 24 0
BBX 18 19 3 0
BITMAP
03F800
03F800
00E000
1FFE00
1FFE00
38E380
38E380
E0E1C0
E0E1C0
E0E1C0
E0E1C0
E0E1C0
E0E1C0
38E380
1FFE00
1FFE00
00E000
03F800
03F800
ENDCHAR
STARTCHAR 0425
ENCODING 1061
SWIDTH 1000 0
DWIDTH 24 0
BBX 17 19 4 0
BITMAP
FC0F80
FC0F80
780200
780200
1C0E00
1F1C00
077000
077000
03E000
03E000
03E000
077000
077000
1C7000
181C00
181C00
600E00
F81F80
F81F80
ENDCHAR
STARTCHAR 0426
ENCODING 1062
SWIDTH 1000 0
DWIDTH 24 0
BBX 19 21 4 -2
BITMAP
FE1F80
FE1F80
380700
380700
380700
380700
380700
380700
380700
380700
380700
380700
380700
380700
380700
380700
380700
FFFFE0
FFFFE0
000060
000060
ENDCHAR
STARTCHAR 0427
ENCODING 1063
SWIDTH 1000 0
DWIDTH 24 0
BBX 17 19 4 0
BITMAP
FE1F80
FE1F80
380700
380700
380700
380700
380700
380700
381F00
3E3F00
0E3F00
07F700
07F700
000700
000700
000700
000700
001F80
001F80
ENDCHAR
STARTCHAR 0428
ENCODING 1064
SWIDTH 1000 0
DWIDTH 24 0
BBX 22 19 1 0
BITMAP
FEFEFC
FEFEFC
383838
383838
383838
383838
383838
383838
383838
383838
383838
383838
383838
383838
383838
383838
383838
FFFFFC
FFFFFC
ENDCHAR
STARTCHAR 0429
ENCODING 1065
SWIDTH 1000 0
DWIDTH 24 0
BBX 23 19 1 0
BITMAP
FEFCFC
FEFCFC
383870
383870
383870
383870
383870
383870
383870
383870
383870
383870
383870
383870
383870
FFFFFE
FFFFFE
000006
000006
ENDCHAR
STARTCHAR 042A
ENCODING 1066
SWIDTH 1000 0
DWIDTH 24 0
BBX 15 19 4 0
BITMAP
FF00
FF00
DC00
1C00
1C00
1C00
1C00
1C00
1FF0
1F1C
1F1C
1C0E
1C0E
1C0E
1C0E
1C0E
1F1C
3FF0
3FF0
ENDCHAR
STARTCHAR 042B
ENCODING 1067
SWIDTH 1000 0
DWIDTH 24 0
BBX 19 19 2 0
BITMAP
FE07E0
FE07E0
380380
380380
380380
380380
380380
380380
3FC380
3EE380
3EE380
383B80
383B80
383B80
383B80
383B80
3EE380
FFC7E0
FFC7E0
ENDCHAR
STARTCHAR 042C
ENCODING 1068
SWIDTH 1000 0
DWIDTH 24 0
BBX 14 19 5 0
BITMAP
FE00
FE00
3800
3800
3800
3800
3800
3800
3FE0
3E38
3E38
381C
381C
381C
381C
381C
3E38
FFE0
FFE0
ENDCHAR
STARTCHAR 042D
ENCODING 1069
SWIDTH 1000 0
DWIDTH 24 0
BBX 15 19 6 0
BITMAP
DFE0
DFE0
F870
F870
F01C
C00E
000E
000E
00FE
00FE
000E
000E
000E
000E
C01C
F87C
3870
1FE0
1FE0
ENDCHAR
STARTCHAR 042E
ENCODING 1070
SWIDTH 1000 0
DWIDTH 24 0
BBX 20 19 2 0
BITMAP
FE3F80
FE3F80
38E0E0
38E0E0
38C070
3BC070
3BC070
3BC070
3FC070
3FC070
3BC070
3BC070
3BC070
3BC070
3BC070
3BC070
38E0E0
FE3F80
FE3F80
ENDCHAR
STARTCHAR 042F
ENCODING 1071
SWIDTH 1000 0
DWIDTH 24 0
BBX 19 19 2 0
BITMAP
01FFE0
01FFE0
070380
0E0380
0E0380
0E0380
0E0380
0E0380
071F80
07FF80
01FB80
01C380
01C380
070380
0E0380
0E0380
380380
FE07E0
FE07E0
ENDCHAR
STARTCHAR 0430
ENCODING 1072
SWIDTH 1000 0
DWIDTH 24 0
BBX 14 15 6 2
BITMAP
1F00
3F80
3B80
E0E0
C060
C060
1F60
3BE0
3BE0
E060
E060
E0EC
3B9C
3F9C
1F10
ENDCHAR
STARTCHAR 0431
ENCODING 1073
SWIDTH 1000 0
DWIDTH 24 0
BBX 11 20 7 0
BITMAP
00E0
0780
0780
3E00
3E00
C000
DF00
F980
F980
E0E0
E0E0
E0E0
E0E0
E0E0
E0E0
E0E0
E0E0
3980
1F00
1F00
ENDCHAR
STARTCHAR 0432
ENCODING 1074
SWIDTH 1000 0
DWIDTH 24 0
BBX 13 15 5 2
BITMAP
FFE0
FFF8
3838
3838
38E0
38E0
3FC0
3FC0
38E0
3838
3838
3838
3838
FFF8
FFE0
ENDCHAR
STARTCHAR 0433
ENCODING 1075
SWIDTH 1000 0
DWIDTH 24 0
BBX 13 15 5 2
BITMAP
FFF8
FFF8
3878
3818
3818
3800
3800
3800
3800
3800
3800
3800
3800
FE00
FE00
ENDCHAR
STARTCHAR 0434
ENCODING 1076
SWIDTH 1000 0
DWIDTH 24 0
BBX 15 14 4 3
BITMAP
3FFE
3FFE
0470
0470
0470
0470
1870
1870
1870
2070
2070
FFFE
FFFE
C006
ENDCHAR
STARTCHAR 0435
ENCODING 1077
SWIDTH 1041 0
DWIDTH 25 0
BBX 14 13 6 3
BITMAP
07E0
07E0
1C70
1C70
381C
FFFC
FFFC
E000
380C
380C
1C70
07E0
07E0
ENDCHAR
STARTCHAR 0436
ENCODING 1078
SWIDTH 1000 0
DWIDTH 24 0
BBX 16 13 4 3
BITMAP
37E4
37E4
F1C7
F1C7
09D8
09D8
09D8
07E0
09D8
09D8
31C4
F7E7
F7E7
ENDCHAR
STARTCHAR 0437
ENCODING 1079
SWIDTH 1000 0
DWIDTH 24 0
BBX 13 15 5 2
BITMAP
37C0
3FE0
3038
3038
00E0
00E0
01C0
01C0
00E0
3038
F038
F038
38E0
3FE0
0FC0
ENDCHAR
STARTCHAR 0438
ENCODING 1080
SWIDTH 1000 0
DWIDTH 24 0
BBX 14 14 5 3
BITMAP
FCFC
FCFC
3838
3838
3838
38F8
3B38
3B38
3C38
3C38
3838
3838
FCFC
FCFC
ENDCHAR
STARTCHAR 0439
ENCODING 1081
SWIDTH 1000 0
DWIDTH 24 0
BBX 14 15 5 2
BITMAP
18C0
0000
FCFC
FCFC
38F0
38F0
3BF0
3CF0
3CF0
38F0
38F0
38F0
38F0
FCFC
FCFC
ENDCHAR
STARTCHAR 043A
ENCODING 1082
SWIDTH 1000 0
DWIDTH 24 0
BBX 14 14 5 3
BITMAP
FE18
FE3C
383C
38C0
38C0
3F00
39C0
39C0
38E0
3820
3820
3838
FE1C
FE1C
ENDCHAR
STARTCHAR 043B
ENCODING 1083
SWIDTH 1000 0
DWIDTH 24 0
BBX 16 14 4 3
BITMAP
3FFF
3FFF
011C
011C
011C
011C
061C
061C
061C
061C
061C
F81C
387F
387F
ENDCHAR
STARTCHAR 043C
ENCODING 1084
SWIDTH 1000 0
DWIDTH 24 0
BBX 17 13 4 3
BITMAP
E00F80
E00F80
781E00
781E00
641E00
676E00
676E00
63EE00
638E00
638E00
630E00
F81F80
F81F80
ENDCHAR
STARTCHAR 043D
ENCODING 1085
SWIDTH 1000 0
DWIDTH 24 0
BBX 14 14 5 3
BITMAP
FEFC
FEFC
3838
3838
3838
3838
3FF8
3FF8
3838
3838
3838
3838
FEFC
FEFC
ENDCHAR
STARTCHAR 043E
ENCODING 1086
SWIDTH 1000 0
DWIDTH 24 0
BBX 11 14 7 3
BITMAP
1F00
1F00
3B80
E0E0
E0E0
E0E0
E0E0
E0E0
E0E0
E0E0
E0E0
3B80
1F00
1F00
ENDCHAR
STARTCHAR 043F
ENCODING 1087
SWIDTH 1000 0
DWIDTH 24 0
BBX 14 14 5 3
BITMAP
FFFC
FFFC
3838
3838
3838
3838
3838
3838
3838
3838
3838
3838
FEFC
FEFC
ENDCHAR
STARTCHAR 0440
ENCODING 1088
SWIDTH 1000 0
DWIDTH 24 0
BBX 14 15 5 2
BITMAP
39F0
FFF8
FFB8
380C
380C
380C
3E38
39C0
39C0
3800
3800
3800
3800
FE00
FE00
ENDCHAR
STARTCHAR 0441
ENCODING 1089
SWIDTH 1000 0
DWIDTH 24 0
BBX 11 14 7 3
BITMAP
1F80
3FE0
38E0
E080
E080
E000
E000
E000
E000
E060
E060
3B80
1F00
1F00
ENDCHAR
STARTCHAR 0442
ENCODING 1090
SWIDTH 1000 0
DWIDTH 24 0
BBX 12 14 6 3
BITMAP
FFF0
FFF0
C730
0700
0700
0700
0700
0700
0700
0700
0700
0700
1F80
1F80
ENDCHAR
STARTCHAR 0443
ENCODING 1091
SWIDTH 1041 0
DWIDTH 25 0
BBX 14 15 6 2
BITMAP
FC7C
FC7C
7010
7010
1C60
1C60
0CE0
0F80
0F80
0300
0C00
0C00
F000
F000
6000
ENDCHAR
STARTCHAR 0444
ENCODING 1092
SWIDTH 1000 0
DWIDTH 24 0
BBX 15 20 4 0
BITMAP
0180
0780
0780
0380
0380
0380
1BB0
7FFC
7FFC
E38E
E38E
E38E
7FFC
7FFC
1BB0
0380
0380
0380
07C0
07C0
ENDCHAR
STARTCHAR 0445
ENCODING 1093
SWIDTH 1041 0
DWIDTH 25 0
BBX 14 15 6 2
BITMAP
FC7C
FC7C
7810
7810
1C60
1C60
0780
0380
0380
04E0
1870
1870
6070
F8FC
F8FC
ENDCHAR
STARTCHAR 0446
ENCODING 1094
SWIDTH 1000 0
DWIDTH 24 0
BBX 14 15 5 2
BITMAP
FEFC
FEFC
3838
3838
3838
3838
3838
3838
3838
3838
3838
3838
FFFC
FFFC
0004
ENDCHAR
STARTCHAR 0447
ENCODING 1095
SWIDTH 1000 0
DWIDTH 24 0
BBX 14 15 5 2
BITMAP
FEFC
FEFC
3838
3838
3838
3838
0EF8
07F8
07F8
0038
0038
0038
0038
00FC
00FC
ENDCHAR
STARTCHAR 0448
ENCODING 1096
SWIDTH 1000 0
DWIDTH 24 0
BBX 17 14 4 3
BITMAP
FBEF80
FBEF80
618600
618600
618600
618600
618600
618600
618600
618600
618600
618600
FFFF80
FFFF80
ENDCHAR
STARTCHAR 0449
ENCODING 1097
SWIDTH 1000 0
DWIDTH 24 0
BBX 17 15 4 2
BITMAP
FBEF80
FBEF80
618600
618600
618600
618600
618600
618600
618600
618600
618600
618600
FFFF80
FFFF80
000180
ENDCHAR
STARTCHAR 044A
ENCODING 1098
SWIDTH 1000 0
DWIDTH 24 0
BBX 15 15 4 2
BITMAP
FF00
FF00
DC00
1C00
1C00
1C00
1FF0
1FF0
1F1C
1C0E
1C0E
1C0E
1F1C
3FFC
3FF0
ENDCHAR
STARTCHAR 044B
ENCODING 1099
SWIDTH 1000 0
DWIDTH 24 0
BBX 17 15 4 2
BITMAP
FE1F80
FE1F80
380700
380700
380700
380700
39C700
39C700
3EE700
383F00
383F00
383F00
3EE700
FFFF80
FFDF80
ENDCHAR
STARTCHAR 044C
ENCODING 1100
SWIDTH 1000 0
DWIDTH 24 0
BBX 14 15 5 2
BITMAP
FE00
FE00
3800
3800
3800
3800
3FE0
3FE0
3E38
381C
381C
381C
3E38
FFF8
FFE0
ENDCHAR
STARTCHAR 044D
ENCODING 1101
SWIDTH 1000 0
DWIDTH 24 0
BBX 14 15 5 2
BITMAP
0FC0
3FE0
30E0
0038
001C
001C
03FC
03FC
001C
301C
3018
F038
38E0
3FE0
0FC0
ENDCHAR
STARTCHAR 044E
ENCODING 1102
SWIDTH 1000 0
DWIDTH 24 0
BBX 17 15 4 2
BITMAP
FE3C00
FE3C00
38E700
39C380
39C380
39C380
3FC380
3FC380
39C380
39C380
39C380
39C380
38E700
FEFF00
FE3C00
ENDCHAR
STARTCHAR 044F
ENCODING 1103
SWIDTH 1000 0
DWIDTH 24 0
BBX 16 15 4 2
BITMAP
07FF
0FFF
0F3C
0E1C
0E1C
0E1C
073C
01FC
01FC
071C
071C
361C
FE1C
FE3F
383F
ENDCHAR
STARTCHAR 0451
ENCODING 1105
SWIDTH 1000 0
DWIDTH 24 0
BBX 12 15 7 2
BITMAP
1980
0000
1F80
1F80
39C0
39C0
E070
FFF0
FFF0
C000
E030
E030
39C0
3FC0
1F80
ENDCHAR
STARTCHAR 2015
ENCODING 8213
SWIDTH 1000 0
DWIDTH 24 0
BBX 23 2 1 9
BITMAP
FFFFFE
FFFFFE
ENDCHAR
STARTCHAR 2016
ENCODING 8214
SWIDTH 1000 0
DWIDTH 24 0
BBX 6 22 9 -2
BITMAP
CC
CC
CC
CC
CC
CC
CC
CC
CC
CC
CC
CC
CC
CC
CC
CC
CC
CC
CC
CC
CC
CC
ENDCHAR
STARTCHAR 2018
ENCODING 8216
SWIDTH 1000 0
DWIDTH 24 0
BBX 8 10 12 10
BITMAP
03
03
1C
1C
38
FC
FC
FC
38
38
ENDCHAR
STARTCHAR 2019
ENCODING 8217
SWIDTH 1000 0
DWIDTH 24 0
BBX 6 11 4 9
BITMAP
38
FC
FC
FC
38
38
18
20
20
C0
C0
ENDCHAR
STARTCHAR 201C
ENCODING 8220
SWIDTH 1000 0
DWIDTH 24 0
BBX 15 10 9 10
BITMAP
0302
0302
1C1C
1C1C
3870
FCFC
FCFC
FCFC
3870
3870
ENDCHAR
STARTCHAR 201D
ENCODING 8221
SWIDTH 1000 0
DWIDTH 24 0
BBX 13 11 3 9
BITMAP
3870
FDF8
FDF8
FDF8
3870
3870
1810
2060
2060
C180
C180
ENDCHAR
STARTCHAR 2026
ENCODING 8230
SWIDTH 958 0
DWIDTH 23 0
BBX 20 6 3 7
BITMAP
3870E0
3870E0
FCFFF0
FCFFF0
FCFFF0
3870E0
ENDCHAR
STARTCHAR 2030
ENCODING 8240
SWIDTH 1000 0
DWIDTH 24 0
BBX 21 21 3 0
BITMAP
000030
000030
1C0040
230180
230180
230200
230200
230C00
1C1000
1C1000
006000
00E000
008000
037070
048D88
048D88
188D88
188D88
208D88
C07070
C07070
ENDCHAR
STARTCHAR 2032
ENCODING 8242
SWIDTH 1000 0
DWIDTH 24 0
BBX 6 14 10 6
BITMAP
04
04
04
1C
1C
18
38
38
20
E0
E0
C0
C0
C0
ENDCHAR
STARTCHAR 2033
ENCODING 8243
SWIDTH 1000 0
DWIDTH 24 0
BBX 11 14 7 6
BITMAP
0460
0460
0460
1CE0
1CE0
1880
3B80
3B80
2300
E700
E700
C400
C400
C400
ENDCHAR
STARTCHAR 203B
ENCODING 8251
SWIDTH 1000 0
DWIDTH 24 0
BBX 15 16 4 2
BITMAP
C382
C382
238C
3B9C
1810
0460
0460
E38E
E38E
E38E
0460
1810
1810
238C
C382
C382
ENDCHAR
STARTCHAR 2103
ENCODING 8451
SWIDTH 1000 0
DWIDTH 24 0
BBX 19 21 1 0
BITMAP
380000
380000
C60000
C60180
C60180
38FFE0
038380
078380
070180
070000
070000
070000
070000
070000
070000
070000
078060
038060
00E180
00FF80
007E00
ENDCHAR
STARTCHAR 2116
ENCODING 8470
SWIDTH 1000 0
DWIDTH 24 0
BBX 21 22 1 -2
BITMAP
3E0780
3E0780
1E0F80
1F0F80
1F0C00
1B0C00
1B8C00
1B8C00
1B8C00
1B8C00
1B8C00
19ECF0
19EDF8
19ED98
186D98
187D98
187D98
183CF0
F83CF0
E03C00
E00DF8
E00DF8
ENDCHAR
STARTCHAR 2160
ENCODING 8544
SWIDTH 1000 0
DWIDTH 24 0
BBX 5 19 10 0
BITMAP
F8
F8
60
60
60
60
60
60
60
60
60
60
60
60
60
60
60
F8
F8
ENDCHAR
STARTCHAR 2161
ENCODING 8545
SWIDTH 1000 0
DWIDTH 24 0
BBX 11 19 7 0
BITMAP
FBE0
FBE0
6180
6180
6180
6180
6180
6180
6180
6180
6180
6180
6180
6180
6180
6180
6180
FBE0
FBE0
ENDCHAR
STARTCHAR 2162
ENCODING 8546
SWIDTH 1000 0
DWIDTH 24 0
BBX 17 19 4 0
BITMAP
FBEF80
FBEF80
618600
618600
618600
618600
618600
618600
618600
618600
618600
618600
618600
618600
618600
618600
618600
FBEF80
FBEF80
ENDCHAR
STARTCHAR 2163
ENCODING 8547
SWIDTH 1000 0
DWIDTH 24 0
BBX 17 19 4 0
BITMAP
FBEF80
FBEF80
618200
618200
618200
618200
618200
618200
618200
618200
618200
606C00
606C00
606C00
606C00
606C00
601000
F81000
F81000
ENDCHAR
STARTCHAR 2164
ENCODING 8548
SWIDTH 1041 0
DWIDTH 25 0
BBX 14 19 6 0
BITMAP
F87C
F87C
6010
6010
6010
6010
6010
7810
1860
1860
1860
1C60
1C60
0480
0480
0480
0300
0300
0300
ENDCHAR
STARTCHAR 2165
ENCODING 8549
SWIDTH 1000 0
DWIDTH 24 0
BBX 17 19 4 0
BITMAP
FBEF80
FBEF80
608600
608600
608600
608600
608600
608600
608600
608600
1B0600
1B0600
1B0600
1B0600
1B0600
1B0600
040600
040F80
040F80
ENDCHAR
STARTCHAR 2166
ENCODING 8550
SWIDTH 1041 0
DWIDTH 25 0
BBX 20 19 3 0
BITMAP
FBEFF0
FBEFF0
6086C0
6086C0
6086C0
6086C0
6086C0
6086C0
6086C0
6086C0
1B06C0
1B06C0
1B06C0
1B06C0
1B06C0
1B06C0
0406C0
040FF0
040FF0
ENDCHAR
STARTCHAR 2167
ENCODING 8551
SWIDTH 1041 0
DWIDTH 25 0
BBX 20 19 3 0
BITMAP
FBFFF0
FBFFF0
60B6C0
60B6C0
60B6C0
60B6C0
60B6C0
60B6C0
60B6C0
60B6C0
1B36C0
1B36C0
1B36C0
1B36C0
1B36C0
1B36C0
0436C0
047FF0
047FF0
ENDCHAR
STARTCHAR 2168
ENCODING 8552
SWIDTH 1000 0
DWIDTH 24 0
BBX 17 19 4 0
BITMAP
FBEF80
FBEF80
618200
618200
618200
618200
606C00
606C00
606C00
601000
601000
606C00
606C00
606C00
618200
618200
618200
FBEF80
FBEF80
ENDCHAR
STARTCHAR 2169
ENCODING 8553
SWIDTH 1041 0
DWIDTH 25 0
BBX 14 19 6 0
BITMAP
F87C
F87C
6010
6010
6010
1860
0480
0480
0300
0780
0480
1860
1860
1860
6010
6010
6010
F87C
F87C
ENDCHAR
STARTCHAR 216A
ENCODING 8554
SWIDTH 1000 0
DWIDTH 24 0
BBX 17 19 4 0
BITMAP
FBEF80
FBEF80
608600
608600
608600
608600
1B0600
1B0600
1B0600
040600
040600
1B0600
1B0600
608600
608600
608600
608600
FBEF80
FBEF80
ENDCHAR
STARTCHAR 216B
ENCODING 8555
SWIDTH 1041 0
DWIDTH 25 0
BBX 20 19 3 0
BITMAP
FFEFF0
FFEFF0
6086C0
6086C0
6086C0
6086C0
1B06C0
1B06C0
1B06C0
0406C0
0406C0
1B06C0
1B06C0
6086C0
6086C0
6086C0
6086C0
FFEFF0
FFEFF0
ENDCHAR
STARTCHAR 2190
ENCODING 8592
SWIDTH 1000 0
DWIDTH 24 0
BBX 20 11 3 4
BITMAP
018000
0F8000
0F0000
7F0000
FFFFF0
FFFFF0
7F0000
7F0000
0F0000
018000
018000
ENDCHAR
STARTCHAR 2191
ENCODING 8593
SWIDTH 1000 0
DWIDTH 24 0
BBX 11 21 7 -2
BITMAP
0600
1F00
1F00
1F00
3FC0
3FC0
3FC0
C660
C660
0600
0600
0600
0600
0600
0600
0600
0600
0600
0600
0600
0600
ENDCHAR
STARTCHAR 2192
ENCODING 8594
SWIDTH 1000 0
DWIDTH 24 0
BBX 20 11 3 4
BITMAP
003000
003E00
000E00
000FC0
FFFFF0
FFFFF0
000FC0
000FC0
000E00
003000
003000
ENDCHAR
STARTCHAR 2193
ENCODING 8595
SWIDTH 1000 0
DWIDTH 24 0
BBX 11 21 7 -2
BITMAP
0600
0600
0600
0600
0600
0600
0600
0600
0600
0600
0600
0600
C660
3FC0
3FC0
3FC0
1F00
1F00
1F00
0600
0600
ENDCHAR
STARTCHAR 2208
ENCODING 8712
SWIDTH 1000 0
DWIDTH 24 0
BBX 9 20 6 -2
BITMAP
0380
1F80
1C00
6000
6000
6000
C000
C000
C000
FF80
FF80
C000
C000
C000
6000
6000
6000
1C00
0380
0380
ENDCHAR
STARTCHAR 220F
ENCODING 8719
SWIDTH 1000 0
DWIDTH 24 0
BBX 18 18 3 0
BITMAP
FFFFC0
FFFFC0
1C0E00
1C0E00
1C0E00
1C0E00
1C0E00
1C0E00
1C0E00
1C0E00
1C0E00
1C0E00
1C0E00
1C0E00
1C0E00
1C0E00
FF3FC0
FF3FC0
ENDCHAR
STARTCHAR 2211
ENCODING 8721
SWIDTH 1000 0
DWIDTH 24 0
BBX 17 18 4 0
BITMAP
FFFF80
FFFF80
E00180
780180
7C0180
1C0000
0F0000
0F0000
0F0000
0C0000
0C0000
180000
180000
780180
600180
FFFF80
FFFF80
FFFF80
ENDCHAR
STARTCHAR 221A
ENCODING 8730
SWIDTH 1000 0
DWIDTH 24 0
BBX 17 21 3 -2
BITMAP
000180
000180
000180
000600
000600
000600
000C00
000C00
000C00
003000
003000
003000
006000
606000
606000
FB8000
DF0000
DF0000
1C0000
0C0000
0C0000
ENDCHAR
STARTCHAR 221D
ENCODING 8733
SWIDTH 1000 0
DWIDTH 24 0
BBX 18 11 3 4
BITMAP
1C07C0
7F0FC0
630C00
C1B000
C1F000
C06000
C1B000
E3BC00
630C00
1C07C0
1C07C0
ENDCHAR
STARTCHAR 221E
ENCODING 8734
SWIDTH 1000 0
DWIDTH 24 0
BBX 20 11 3 4
BITMAP
1C0700
7F0FC0
6308C0
C1B030
C1F030
C06030
C1B030
E3B8F0
6308C0
1C0700
1C0700
ENDCHAR
STARTCHAR 2220
ENCODING 8736
SWIDTH 1000 0
DWIDTH 24 0
BBX 15 15 3 3
BITMAP
0006
000E
000C
0030
0070
0060
0180
0380
0300
0C00
1C00
1800
6000
FFFE
FFFE
ENDCHAR
STARTCHAR 2225
ENCODING 8741
SWIDTH 1000 0
DWIDTH 24 0
BBX 10 18 7 0
BITMAP
18C0
18C0
18C0
18C0
18C0
18C0
3300
3300
3300
3300
3300
3300
C600
C600
C600
C600
C600
C600
ENDCHAR
STARTCHAR 2227
ENCODING 8743
SWIDTH 1000 0
DWIDTH 24 0
BBX 20 19 3 1
BITMAP
006000
006000
01B000
01B000
030C00
030C00
030C00
0C0600
0C0600
0C0600
180180
180180
180180
6000C0
6000C0
6000C0
C00030
C00030
C00030
ENDCHAR
STARTCHAR 2228
ENCODING 8744
SWIDTH 1000 0
DWIDTH 24 0
BBX 20 18 3 -2
BITMAP
C00030
C00030
C00030
6000C0
6000C0
6000C0
180180
180180
180180
0C0600
0C0600
0C0600
030C00
030C00
030C00
01B000
006000
006000
ENDCHAR
STARTCHAR 2229
ENCODING 8745
SWIDTH 1000 0
DWIDTH 24 0
BBX 17 22 4 -2
BITMAP
1FFC00
1FFC00
380F00
380F00
F00380
F00380
C00180
C00180
C00180
C00180
C00180
C00180
C00180
C00180
C00180
C00180
C00180
C00180
C00180
C00180
C00180
C00180
ENDCHAR
STARTCHAR 222A
ENCODING 8746
SWIDTH 1000 0
DWIDTH 24 0
BBX 17 21 4 -2
BITMAP
C00180
C00180
C00180
C00180
C00180
C00180
C00180
C00180
C00180
C00180
C00180
C00180
C00180
C00180
C00180
C00180
F00380
F80F80
380F00
1FFC00
1FFC00
ENDCHAR
STARTCHAR 222B
ENCODING 8747
SWIDTH 1000 0
DWIDTH 24 0
BBX 14 18 4 0
BITMAP
0078
00FC
00CC
0300
0300
0300
0300
0300
0300
0300
0300
0300
0300
0300
0300
C600
FE00
3800
ENDCHAR
STARTCHAR 222E
ENCODING 8750
SWIDTH 1000 0
DWIDTH 24 0
BBX 14 20 4 0
BITMAP
0078
0078
00CC
03CC
0300
0300
07C0
07C0
1B60
1B60
1B60
1B60
1FE0
07C0
0300
0300
0300
C600
FE00
3800
ENDCHAR
STARTCHAR 2234
ENCODING 8756
SWIDTH 1000 0
DWIDTH 24 0
BBX 17 17 3 1
BITMAP
01C000
03E000
03E000
03E000
03E000
01C000
000000
000000
000000
000000
000000
780F00
FC1F80
FC1F80
FC1F80
FC1F80
780F00
ENDCHAR
STARTCHAR 2235
ENCODING 8757
SWIDTH 1000 0
DWIDTH 24 0
BBX 16 17 4 1
BITMAP
780E
FC3F
FC3F
FC3F
FC3F
780E
0000
0000
0000
0000
0000
01C0
03C0
03C0
03C0
03C0
01C0
ENDCHAR
STARTCHAR 2236
ENCODING 8758
SWIDTH 1000 0
DWIDTH 24 0
BBX 6 17 9 1
BITMAP
78
FC
FC
FC
FC
78
00
00
00
00
00
78
FC
FC
FC
FC
78
ENDCHAR
STARTCHAR 2237
ENCODING 8759
SWIDTH 1000 0
DWIDTH 24 0
BBX 18 18 3 0
BITMAP
780780
FC0FC0
FC0FC0
FC0FC0
FC0FC0
780780
000000
000000
000000
000000
000000
000000
780780
FC0FC0
FC0FC0
FC0FC0
FC0FC0
780780
ENDCHAR
STARTCHAR 223D
ENCODING 8765
SWIDTH 1000 0
DWIDTH 24 0
BBX 20 11 3 4
BITMAP
1C0700
7C0FC0
6008C0
C03030
C07030
C06030
C18030
E380F0
6300C0
1C0700
1C0700
ENDCHAR
STARTCHAR 2248
ENCODING 8776
SWIDTH 1000 0
DWIDTH 24 0
BBX 18 11 3 4
BITMAP
1F0000
7F80C0
6180C0
C06180
DF7F80
1F3E00
6180C0
E1E1C0
C06180
003E00
003E00
ENDCHAR
STARTCHAR 224C
ENCODING 8780
SWIDTH 1000 0
DWIDTH 24 0
BBX 19 15 4 3
BITMAP
180F00
381F80
201980
C06060
C0E060
C0C060
230180
3F0380
1C0300
000000
FFFFE0
FFFFE0
000000
FFFFE0
FFFFE0
ENDCHAR
STARTCHAR 2260
ENCODING 8800
SWIDTH 1000 0
DWIDTH 24 0
BBX 17 22 4 -2
BITMAP
001800
001800
001800
001800
001800
006000
FFFF80
FFFF80
006000
006000
00C000
00C000
03C000
030000
FFFF80
FFFF80
030000
060000
060000
060000
060000
060000
ENDCHAR
STARTCHAR 2261
ENCODING 8801
SWIDTH 1000 0
DWIDTH 24 0
BBX 17 8 4 6
BITMAP
FFFF80
FFFF80
000000
FFFF80
FFFF80
000000
FFFF80
FFFF80
ENDCHAR
STARTCHAR 2264
ENCODING 8804
SWIDTH 1000 0
DWIDTH 24 0
BBX 19 24 3 -3
BITMAP
0000E0
0007E0
000700
003800
01F800
01C000
0E0000
7E0000
700000
E00000
F00000
700000
0E0000
CFC000
C1C000
703800
7E3F00
0E0700
01C0E0
01F8E0
003800
000700
0007E0
0000E0
ENDCHAR
STARTCHAR 2265
ENCODING 8805
SWIDTH 1000 0
DWIDTH 24 0
BBX 19 24 3 -3
BITMAP
E00000
FC0000
1C0000
038000
03F000
007000
000E00
000FC0
0001C0
0000E0
0001E0
0001C0
000E00
007E60
007060
0381C0
1F8FC0
1C0E00
E07000
E3F000
038000
1C0000
FC0000
E00000
ENDCHAR
STARTCHAR 226E
ENCODING 8814
SWIDTH 1000 0
DWIDTH 24 0
BBX 19 20 1 -2
BITMAP
0180E0
0187E0
018700
01B800
01F800
01E000
0F8000
7F8000
798000
E18000
F98000
798000
0F8000
0FE000
01E000
01B800
01BF00
018700
0180E0
0180E0
ENDCHAR
STARTCHAR 226F
ENCODING 8815
SWIDTH 1000 0
DWIDTH 24 0
BBX 20 20 4 0
BITMAP
E03000
E03000
1C3000
1FB000
03B000
007000
007E00
003E00
0031C0
0031F0
0030F0
0031C0
003FC0
003E00
007000
03F000
03B000
1C3000
FC3000
E03000
ENDCHAR
STARTCHAR 2299
ENCODING 8857
SWIDTH 1000 0
DWIDTH 24 0
BBX 23 23 1 -2
BITMAP
00FF00
07FFE0
0701E0
180030
38003C
30000C
30000C
F0180E
C01806
C07C06
C0FF06
C0FF06
C07C06
C07C06
C01806
30000C
30000C
30000C
180030
1F01F0
0701E0
00FF00
00FF00
ENDCHAR
STARTCHAR 22A5
ENCODING 8869
SWIDTH 1000 0
DWIDTH 24 0
BBX 17 20 4 0
BITMAP
00C000
00C000
00C000
00C000
00C000
00C000
00C000
00C000
00C000
00C000
00C000
00C000
00C000
00C000
00C000
00C000
00C000
00C000
FFFF80
FFFF80
ENDCHAR
STARTCHAR 2312
ENCODING 8978
SWIDTH 1000 0
DWIDTH 24 0
BBX 20 12 3 6
BITMAP
01F000
0FFE00
0F0E00
1C0780
1C0380
180180
6000C0
6000C0
6000C0
C00030
C00030
C00030
ENDCHAR
STARTCHAR 2460
ENCODING 9312
SWIDTH 1000 0
DWIDTH 24 0
BBX 23 23 1 -2
BITMAP
00FF00
07FFE0
0701E0
180C30
387C3C
307C0C
301C0C
F01C0E
C01C06
C01C06
C01C06
C01C06
C01C06
C01C06
C01C06
301C0C
307F0C
307F0C
180030
1F01F0
0701E0
00FF00
00FF00
ENDCHAR
STARTCHAR 2461
ENCODING 9313
SWIDTH 1000 0
DWIDTH 24 0
BBX 23 23 1 -2
BITMAP
00FE00
07FFE0
0701E0
187C30
38FE3C
30EE0C
33C78C
F3C78E
C30786
C00786
C00F86
C00E06
C01C06
C07C06
C07006
30E18C
33FF8C
33FF8C
180030
1F01F0
0701E0
00FE00
00FE00
ENDCHAR
STARTCHAR 2462
ENCODING 9314
SWIDTH 1000 0
DWIDTH 24 0
BBX 23 23 1 -2
BITMAP
00FE00
07FFE0
0701E0
187C30
187C30
30EE0C
33C78C
33C78C
C0C786
C00E06
C00E06
C01C06
C01E06
C00E06
C0C786
F3C78E
33EF8C
30EE0C
187C30
1F7DF0
0701E0
00FE00
00FE00
ENDCHAR
STARTCHAR 2463
ENCODING 9315
SWIDTH 1000 0
DWIDTH 24 0
BBX 23 23 1 -2
BITMAP
00FE00
07FFC0
0701C0
180C30
381C3C
301C0C
307C0C
307C0C
C0DC06
C0DC06
C3DC06
C31C06
C31C06
C7FF86
C7FF86
301C0C
301C0C
301C0C
187E30
1F7FF0
0701C0
00FE00
00FE00
ENDCHAR
STARTCHAR 2464
ENCODING 9316
SWIDTH 1000 0
DWIDTH 24 0
BBX 23 23 1 -2
BITMAP
01FE00
07FFE0
0701E0
180030
180030
33FF8C
33FF8C
33FE0C
C30006
C37C06
C3FE06
C3EE06
C30786
C30786
C00786
33878C
33EF8C
31EE0C
187C30
1F7DF0
0701E0
01FE00
01FE00
ENDCHAR
STARTCHAR 2465
ENCODING 9317
SWIDTH 1000 0
DWIDTH 24 0
BBX 23 23 1 -2
BITMAP
01FE00
07FFC0
0701C0
187E30
187E30
31E38C
33818C
33818C
C38006
C39C06
C3FE06
C3EE06
C3E386
C3E386
C38386
33838C
33EF8C
31EE0C
187C30
1F7DF0
0701C0
01FE00
01FE00
ENDCHAR
STARTCHAR 2466
ENCODING 9318
SWIDTH 1000 0
DWIDTH 24 0
BBX 23 23 1 -2
BITMAP
00FF00
07FFE0
0701E0
180030
180030
33FF8C
33FF8C
33FF8C
C30386
C30386
C00F06
C00F06
C00F06
C00F06
C01C06
30780C
30780C
30E00C
38E03C
18E030
0701E0
00FF00
00FF00
ENDCHAR
STARTCHAR 2467
ENCODING 9319
SWIDTH 1000 0
DWIDTH 24 0
BBX 23 23 1 -2
BITMAP
01FE00
07FFE0
0701E0
187C30
187C30
31EE0C
33878C
33878C
C38786
C1EE06
C1EE06
C07C06
C1FE06
C1EE06
C38786
F3878E
33CF8C
31EE0C
187C30
1F7DF0
0701E0
01FE00
01FE00
ENDCHAR
STARTCHAR 2468
ENCODING 9320
SWIDTH 1000 0
DWIDTH 24 0
BBX 23 23 1 -2
BITMAP
01FE00
07FFE0
0701E0
180030
387C3C
307C0C
31EE0C
31EE0C
C38786
C38786
C38786
C38786
C3EF86
C1EF86
C03786
F3B78E
33EF8C
31EE0C
187C30
1F7DF0
0701E0
01FE00
01FE00
ENDCHAR
STARTCHAR 2469
ENCODING 9321
SWIDTH 1000 0
DWIDTH 24 0
BBX 23 23 1 -2
BITMAP
00FE00
07FFC0
0701C0
18CFB0
18CFB0
37DDCC
37DDCC
33DDCC
C3DDC6
C3DDC6
C3DDC6
C3DDC6
C3DDC6
C3DDC6
C3DDC6
F3DDCE
33DDCC
37EF8C
180030
1F01F0
0701C0
00FE00
00FE00
ENDCHAR
STARTCHAR 2474
ENCODING 9332
SWIDTH 1000 0
DWIDTH 24 0
BBX 20 22 3 -2
BITMAP
180180
180180
6060C0
63E0C0
63E0C0
C1E030
C1E030
C1E030
C1E030
C1E030
C1E030
C1E030
C1E030
C1E030
C1E030
C1E030
C1E030
63F0C0
63F0C0
6000C0
180180
180180
ENDCHAR
STARTCHAR 2475
ENCODING 9333
SWIDTH 1000 0
DWIDTH 24 0
BBX 20 22 3 -2
BITMAP
180180
180180
61F0C0
63F8C0
63B8C0
CF1E30
CF1E30
CC1E30
C01E30
C03E30
C03830
C07030
C1F030
C1C030
C38630
CFFE30
CFFE30
6000C0
6000C0
6000C0
180180
180180
ENDCHAR
STARTCHAR 2476
ENCODING 9334
SWIDTH 1000 0
DWIDTH 24 0
BBX 20 22 3 -2
BITMAP
180180
180180
61F0C0
61F0C0
63B8C0
EFBEF0
CF1E30
C31E30
C33E30
C03830
C07030
C03830
C33E30
C31E30
CF1E30
CFBE30
C3B830
61F0C0
61F0C0
6000C0
180180
180180
ENDCHAR
STARTCHAR 2477
ENCODING 9335
SWIDTH 1000 0
DWIDTH 24 0
BBX 20 22 3 -2
BITMAP
183180
183180
6070C0
61F0C0
61F0C0
C37030
C37030
C37030
CC7030
CC7030
CC7030
D87030
DFFE30
DFFE30
C07030
C07030
C07030
61FCC0
61FCC0
6000C0
180180
180180
ENDCHAR
STARTCHAR 2478
ENCODING 9336
SWIDTH 1000 0
DWIDTH 24 0
BBX 20 22 3 -2
BITMAP
180180
180180
6000C0
6FFEC0
6FFEC0
CFF830
CFF830
CC0030
CDF030
CFF830
CFB830
CC1E30
CC1E30
C01E30
CF1E30
CFBE30
C3B830
61F0C0
61F0C0
6000C0
180180
180180
ENDCHAR
STARTCHAR 2479
ENCODING 9337
SWIDTH 1000 0
DWIDTH 24 0
BBX 20 22 3 -2
BITMAP
180180
180180
61F8C0
61F8C0
639EC0
EF9EF0
CF0630
CF0030
CF7030
CFF830
CFB830
CF9E30
CF9E30
CF1E30
CF1E30
CFBE30
C3B830
61F0C0
61F0C0
6000C0
180180
180180
ENDCHAR
STARTCHAR 247A
ENCODING 9338
SWIDTH 1000 0
DWIDTH 24 0
BBX 20 22 3 -2
BITMAP
180180
180180
6000C0
6000C0
6FFEC0
EFFEF0
CFFE30
CC0E30
CC0E30
C00C30
C03C30
C03C30
C03C30
C07030
C1E030
C3E030
C38030
6380C0
6380C0
6300C0
180180
180180
ENDCHAR
STARTCHAR 247B
ENCODING 9339
SWIDTH 1000 0
DWIDTH 24 0
BBX 20 22 3 -2
BITMAP
180180
180180
61F0C0
63F8C0
63B8C0
CF1E30
CF1E30
CF1E30
C3B830
C3F830
C1F030
C3B830
CFBE30
CF1E30
CF1E30
CFBE30
C3B830
61F0C0
61F0C0
6000C0
180180
180180
ENDCHAR
STARTCHAR 247C
ENCODING 9340
SWIDTH 1000 0
DWIDTH 24 0
BBX 20 22 3 -2
BITMAP
180180
180180
6000C0
61F0C0
61F0C0
C3B830
CFBE30
CF1E30
CF1E30
CF1E30
CF1E30
C3BE30
C3FE30
C05E30
CF1E30
CFBE30
C3B830
61F0C0
61F0C0
6000C0
180180
180180
ENDCHAR
STARTCHAR 247D
ENCODING 9341
SWIDTH 1000 0
DWIDTH 24 0
BBX 20 22 3 -2
BITMAP
180300
180300
633EC0
7F7FC0
7F77C0
CF7730
CF7730
CF7730
CF7730
CF7730
CF7730
CF7730
CF7730
CF7730
CF7730
CF7730
CF7730
7FBEC0
7FBEC0
6000C0
180300
180300
ENDCHAR
STARTCHAR 247E
ENCODING 9342
SWIDTH 1000 0
DWIDTH 24 0
BBX 20 22 3 -2
BITMAP
180180
180180
6306C0
7F3EC0
7F3EC0
CF0E30
CF0E30
CF0E30
CF0E30
CF0E30
CF0E30
CF0E30
CF0E30
CF0E30
CF0E30
CF0E30
CF0E30
7FBFC0
7FBFC0
6000C0
180180
180180
ENDCHAR
STARTCHAR 247F
ENCODING 9343
SWIDTH 1000 0
DWIDTH 24 0
BBX 20 22 3 -2
BITMAP
180300
180300
633EC0
7F7FC0
7F77C0
CFE730
CFE730
CF6730
CF0730
CF0F30
CF0E30
CF0E30
CF3E30
CF3830
CF3830
CF7B30
CF7330
7FFFC0
7FFFC0
6000C0
180300
180300
ENDCHAR
STARTCHAR 2480
ENCODING 9344
SWIDTH 1000 0
DWIDTH 24 0
BBX 20 22 3 -2
BITMAP
180300
180300
633EC0
633EC0
7F77C0
FFF7F0
CFE730
CF6730
CF6F30
CF0F30
CF0E30
CF0730
CF6730
CF6730
CFE730
CFF730
CF7730
7FBEC0
7FBEC0
6000C0
180300
180300
ENDCHAR
STARTCHAR 2481
ENCODING 9345
SWIDTH 1000 0
DWIDTH 24 0
BBX 20 22 3 -2
BITMAP
180180
180180
6306C0
7F0EC0
7F0EC0
CF3E30
CF7E30
CF7E30
CF6E30
CFEE30
CFEE30
CFEE30
CFFFB0
CFFFB0
CF0E30
CF0E30
CF0E30
7FBFC0
7FBFC0
6000C0
180180
180180
ENDCHAR
STARTCHAR 2482
ENCODING 9346
SWIDTH 1000 0
DWIDTH 24 0
BBX 20 22 3 -2
BITMAP
180180
180180
6300C0
7F7FC0
7F7FC0
CF7030
CF7C30
CF7C30
CF6FB0
CF6FF0
CF07F0
CF31F0
CF31F0
CF71F0
CF71F0
CF71F0
CF7FB0
FFFFF0
7FBFC0
6000C0
180180
180180
ENDCHAR
STARTCHAR 2483
ENCODING 9347
SWIDTH 1000 0
DWIDTH 24 0
BBX 20 22 3 -2
BITMAP
180300
180300
633EC0
633EC0
7F7FC0
FF7FF0
CF7330
CF7030
CF7E30
CF7F30
CF7F30
CF7730
CF7730
CF7730
CF7730
CF7730
CF7F30
FFFFF0
7FBEC0
6000C0
180300
180300
ENDCHAR
STARTCHAR 2484
ENCODING 9348
SWIDTH 1000 0
DWIDTH 24 0
BBX 20 22 3 -2
BITMAP
180180
180180
6300C0
7F7FC0
7F7FC0
CF07B0
CF07B0
CF07B0
CF07B0
CF1FB0
CF1E30
CF1E30
CF1E30
CF1E30
CF3830
CF3830
CF3830
7FB8C0
7FB8C0
6000C0
180180
180180
ENDCHAR
STARTCHAR 2485
ENCODING 9349
SWIDTH 1000 0
DWIDTH 24 0
BBX 20 22 3 -2
BITMAP
180300
180300
633EC0
633EC0
7F77C0
FFF7F0
CFF730
CF7730
CF7F30
CF7F30
CF3E30
CF7730
CF7730
CF7730
CFF730
CFF730
CF7730
7FBEC0
7FBEC0
6000C0
180300
180300
ENDCHAR
STARTCHAR 2486
ENCODING 9350
SWIDTH 1000 0
DWIDTH 24 0
BBX 20 22 3 -2
BITMAP
180300
180300
633EC0
7F7FC0
7F77C0
CFF730
CFF730
CF7730
CF7730
CF7F30
CF3F30
CF0730
CF3730
CF3730
CFF730
CFF730
CF7730
7FBEC0
7FBEC0
6000C0
180300
180300
ENDCHAR
STARTCHAR 2487
ENCODING 9351
SWIDTH 1000 0
DWIDTH 24 0
BBX 20 22 3 -2
BITMAP
180300
180300
7F3EC0
7FFFC0
7BF7C0
C3F730
C3F730
C3F730
C3F730
CFF730
CF7730
CF7730
DF7730
DC7730
DC7730
FCF730
F9F730
7FBEC0
7FBEC0
6000C0
180300
180300
ENDCHAR
STARTCHAR 2488
ENCODING 9352
SWIDTH 1000 0
DWIDTH 24 0
BBX 10 22 7 -2
BITMAP
1800
1800
F800
F800
3800
3800
3800
3800
3800
3800
3800
3800
3800
3800
3800
3800
3800
3800
3800
39C0
FDC0
FDC0
ENDCHAR
STARTCHAR 2489
ENCODING 9353
SWIDTH 1000 0
DWIDTH 24 0
BBX 15 22 4 -2
BITMAP
1F00
1F00
3B80
FBE0
F0E0
30E0
30E0
00E0
0080
0380
0380
0700
0700
0400
1C00
1C00
1800
3860
3860
30EE
FFEE
FFEE
ENDCHAR
STARTCHAR 248A
ENCODING 9354
SWIDTH 1000 0
DWIDTH 24 0
BBX 15 23 4 -3
BITMAP
1F00
1F00
3B80
FBE0
F1E0
31E0
31E0
01E0
0180
0380
0380
1F00
1F00
0380
0180
0180
31E0
F1E0
F1E0
31EE
3B8E
3F8E
1F00
ENDCHAR
STARTCHAR 248B
ENCODING 9355
SWIDTH 1000 0
DWIDTH 24 0
BBX 15 22 3 -2
BITMAP
0180
0180
0380
0F80
0F80
1B80
1B80
1B80
6380
6380
6380
6380
FFFC
FFFC
0380
0380
0380
0380
0380
038E
0FEE
0FEE
ENDCHAR
STARTCHAR 248C
ENCODING 9356
SWIDTH 1000 0
DWIDTH 24 0
BBX 15 22 6 -2
BITMAP
FFE0
FFE0
C1E0
C1E0
C060
C000
C000
C000
DF00
FF80
E380
C180
C1E0
01E0
01E0
01E0
C1E0
C1E0
C1E0
638E
7F8E
1F0E
ENDCHAR
STARTCHAR 248D
ENCODING 9357
SWIDTH 1000 0
DWIDTH 24 0
BBX 16 22 4 -2
BITMAP
1FC0
1FC0
61F0
E1F0
E040
E000
E000
E000
EF80
FFC0
F9C0
E040
E040
E070
E070
E070
E070
E070
E070
79C7
7FC7
1F87
ENDCHAR
STARTCHAR 248E
ENCODING 9358
SWIDTH 1000 0
DWIDTH 24 0
BBX 14 22 4 -2
BITMAP
FFF8
FFF8
C0E0
C0E0
00E0
00E0
00E0
00E0
00E0
03E0
03C0
07C0
07C0
0700
0700
1F00
1E00
1E00
1E1C
1E1C
061C
061C
ENDCHAR
STARTCHAR 248F
ENCODING 9359
SWIDTH 1000 0
DWIDTH 24 0
BBX 15 22 4 -2
BITMAP
1F00
1F00
7B80
FBE0
E1E0
E1E0
E1E0
E1E0
6180
7B80
1B80
1F00
7F80
7B80
E1E0
E1E0
E1E0
E1E0
E1E0
7B8E
7F8E
1F0E
ENDCHAR
STARTCHAR 2490
ENCODING 9360
SWIDTH 1000 0
DWIDTH 24 0
BBX 15 22 4 -2
BITMAP
1F00
1F00
7B80
7B80
E1E0
E1E0
E1E0
E1E0
E1E0
E1E0
7BE0
1DE0
1DE0
01E0
01E0
01E0
C1E0
E1E0
E1E0
7B8E
7F8E
1F0E
ENDCHAR
STARTCHAR 2491
ENCODING 9361
SWIDTH 1000 0
DWIDTH 24 0
BBX 19 22 3 -2
BITMAP
18FC00
18FC00
F9CE00
FBCF00
7B8700
7B8700
7B8700
7B8700
7B8700
7B8700
7B8700
7B8700
7B8700
7B8700
7B8700
7B8700
7B8700
7B8700
7B8700
79CEE0
FDFEE0
FCFCE0
ENDCHAR
STARTCHAR 2492
ENCODING 9362
SWIDTH 1000 0
DWIDTH 24 0
BBX 18 22 4 -2
BITMAP
181000
181000
F9F000
F9F000
387000
387000
387000
387000
387000
387000
387000
387000
387000
387000
387000
387000
387000
387000
387000
3871C0
FDF9C0
FDF9C0
ENDCHAR
STARTCHAR 2493
ENCODING 9363
SWIDTH 1000 0
DWIDTH 24 0
BBX 21 22 3 -2
BITMAP
18FC00
18FC00
F9CE00
FBCF80
7B8780
7B8780
7B8780
798780
780600
780E00
780E00
780C00
783C00
783C00
783000
78F000
78F000
78C180
78C180
79C7B8
FDFFB8
FDFFB8
ENDCHAR
STARTCHAR 2494
ENCODING 9364
SWIDTH 1000 0
DWIDTH 24 0
BBX 21 22 3 -2
BITMAP
18FC00
18FC00
F9CE00
FBCF80
7B8780
7B8780
7B8780
798780
780600
780E00
780E00
78FC00
78FE00
783E00
798780
798780
7B8780
7B8780
7B8780
79CE38
FDFE38
FCFC38
ENDCHAR
STARTCHAR 2495
ENCODING 9365
SWIDTH 1000 0
DWIDTH 24 0
BBX 21 22 3 -2
BITMAP
181800
181800
F83800
F87800
787800
787800
79F800
79B800
79B800
79B800
79B800
7B3800
7B3800
7B3800
7B3800
7FFF00
7FFF00
783800
783800
783838
FC7E38
FC7E38
ENDCHAR
STARTCHAR 2496
ENCODING 9366
SWIDTH 1000 0
DWIDTH 24 0
BBX 21 22 3 -2
BITMAP
1BFF80
1BFF80
FA0180
FA0180
7A0000
7A0000
7A0000
7A0000
7A7C00
7BFE00
7B8E00
7A0780
7A0780
780780
780780
780780
7A0780
7B8780
7B8780
79CE38
FDFE38
FC7C38
ENDCHAR
STARTCHAR 2497
ENCODING 9367
SWIDTH 1000 0
DWIDTH 24 0
BBX 21 22 3 -2
BITMAP
187E00
187E00
F9CF80
FBCF80
7B8600
7A0000
7A0000
7A0000
7A7C00
7BFE00
7BCE00
7B8780
7B8780
7B8780
7B8780
7B8780
7B8780
7B8780
7B8780
79CE38
FDFE38
FC7C38
ENDCHAR
STARTCHAR 2498
ENCODING 9368
SWIDTH 1000 0
DWIDTH 24 0
BBX 16 22 3 -2
BITMAP
1BFF
1BFF
FB07
FB07
7806
780E
780E
7808
7838
7838
7830
7870
7870
7870
7860
7860
79E0
79E0
79E0
79E7
FDE7
FD87
ENDCHAR
STARTCHAR 2499
ENCODING 9369
SWIDTH 1000 0
DWIDTH 24 0
BBX 21 22 3 -2
BITMAP
18FC00
18FC00
F9CE00
FBCF80
7B8780
7B8780
7B8780
7B8780
798600
79CE00
78CE00
78FC00
79FE00
79CE00
7B8780
7B8780
7B8780
7B8780
7B8780
79CE38
FDFE38
FCFC38
ENDCHAR
STARTCHAR 249A
ENCODING 9370
SWIDTH 1000 0
DWIDTH 24 0
BBX 21 22 3 -2
BITMAP
18FC00
18FC00
F9CE00
F9CE00
7B8780
7B8780
7B8780
7B8780
7B8780
7B8780
79CF80
78F780
78F780
780780
798780
798780
7B8780
7B8780
7B8780
79CE38
FDFE38
FCFC38
ENDCHAR
STARTCHAR 249B
ENCODING 9371
SWIDTH 1000 0
DWIDTH 24 0
BBX 23 22 1 -2
BITMAP
1F0F80
1F0F80
3BDDC0
3BDDC0
33DDC0
F3DDC0
F3DDC0
33DDC0
03DDC0
03DDC0
03DDC0
031DC0
071DC0
071DC0
071DC0
1F1DC0
1E1DC0
1E1DC0
1E1DC0
38DDCE
3FDFCE
3FCF8E
ENDCHAR
STARTCHAR 2500
ENCODING 9472
SWIDTH 1000 0
DWIDTH 24 0
BBX 24 2 0 9
BITMAP
FFFFFF
FFFFFF
ENDCHAR
STARTCHAR 2501
ENCODING 9473
SWIDTH 1000 0
DWIDTH 24 0
BBX 24 3 0 7
BITMAP
FFFFFF
FFFFFF
FFFFFF
ENDCHAR
STARTCHAR 2502
ENCODING 9474
SWIDTH 1000 0
DWIDTH 24 0
BBX 2 24 10 -3
BITMAP
C0
C0
C0
C0
C0
C0
C0
C0
C0
C0
C0
C0
C0
C0
C0
C0
C0
C0
C0
C0
C0
C0
C0
C0
ENDCHAR
STARTCHAR 2503
ENCODING 9475
SWIDTH 1000 0
DWIDTH 24 0
BBX 3 24 10 -3
BITMAP
E0
E0
E0
E0
E0
E0
E0
E0
E0
E0
E0
E0
E0
E0
E0
E0
E0
E0
E0
E0
E0
E0
E0
E0
ENDCHAR
STARTCHAR 2504
ENCODING 9476
SWIDTH 1000 0
DWIDTH 24 0
BBX 20 2 1 9
BITMAP
F8F9F0
F8F9F0
ENDCHAR
STARTCHAR 2505
ENCODING 9477
SWIDTH 1000 0
DWIDTH 24 0
BBX 20 3 1 7
BITMAP
F8F9F0
F8F9F0
F8F9F0
ENDCHAR
STARTCHAR 2506
ENCODING 9478
SWIDTH 1000 0
DWIDTH 24 0
BBX 2 20 10 0
BITMAP
C0
C0
C0
C0
C0
00
00
00
C0
C0
C0
C0
C0
00
00
C0
C0
C0
C0
C0
ENDCHAR
STARTCHAR 2507
ENCODING 9479
SWIDTH 1000 0
DWIDTH 24 0
BBX 3 20 10 0
BITMAP
E0
E0
E0
E0
E0
00
00
00
E0
E0
E0
E0
E0
00
00
E0
E0
E0
E0
E0
ENDCHAR
STARTCHAR 2508
ENCODING 9480
SWIDTH 1000 0
DWIDTH 24 0
BBX 23 2 0 9
BITMAP
FBEFBE
FBEFBE
ENDCHAR
STARTCHAR 2509
ENCODING 9481
SWIDTH 1000 0
DWIDTH 24 0
BBX 23 3 0 7
BITMAP
FBEFBE
FBEFBE
FBEFBE
ENDCHAR
STARTCHAR 250A
ENCODING 9482
SWIDTH 1000 0
DWIDTH 24 0
BBX 2 23 10 -2
BITMAP
C0
C0
C0
C0
C0
00
C0
C0
C0
C0
C0
00
C0
C0
C0
C0
C0
00
C0
C0
C0
C0
C0
ENDCHAR
STARTCHAR 250B
ENCODING 9483
SWIDTH 1000 0
DWIDTH 24 0
BBX 3 23 10 -2
BITMAP
E0
E0
E0
E0
E0
00
E0
E0
E0
E0
E0
00
E0
E0
E0
E0
E0
00
E0
E0
E0
E0
E0
ENDCHAR
STARTCHAR 250C
ENCODING 9484
SWIDTH 1000 0
DWIDTH 24 0
BBX 14 14 10 -3
BITMAP
FFFC
FFFC
C000
C000
C000
C000
C000
C000
C000
C000
C000
C000
C000
C000
ENDCHAR
STARTCHAR 250D
ENCODING 9485
SWIDTH 1000 0
DWIDTH 24 0
BBX 14 13 10 -3
BITMAP
FFFC
FFFC
FFFC
C000
C000
C000
C000
C000
C000
C000
C000
C000
C000
ENDCHAR
STARTCHAR 250E
ENCODING 9486
SWIDTH 1000 0
DWIDTH 24 0
BBX 14 14 10 -3
BITMAP
FFFC
FFFC
E000
E000
E000
E000
E000
E000
E000
E000
E000
E000
E000
E000
ENDCHAR
STARTCHAR 250F
ENCODING 9487
SWIDTH 1000 0
DWIDTH 24 0
BBX 14 13 10 -3
BITMAP
FFFC
FFFC
FFFC
E000
E000
E000
E000
E000
E000
E000
E000
E000
E000
ENDCHAR
STARTCHAR 2510
ENCODING 9488
SWIDTH 1000 0
DWIDTH 24 0
BBX 12 14 0 -3
BITMAP
FFF0
FFF0
0030
0030
0030
0030
0030
0030
0030
0030
0030
0030
0030
0030
ENDCHAR
STARTCHAR 2511
ENCODING 9489
SWIDTH 1000 0
DWIDTH 24 0
BBX 12 13 0 -3
BITMAP
FFF0
FFF0
FFF0
0030
0030
0030
0030
0030
0030
0030
0030
0030
0030
ENDCHAR
STARTCHAR 2512
ENCODING 9490
SWIDTH 1000 0
DWIDTH 24 0
BBX 14 14 -1 -3
BITMAP
FFFC
FFFC
001C
001C
001C
001C
001C
001C
001C
001C
001C
001C
001C
001C
ENDCHAR
STARTCHAR 2513
ENCODING 9491
SWIDTH 1000 0
DWIDTH 24 0
BBX 14 13 -1 -3
BITMAP
FFFC
FFFC
FFFC
001C
001C
001C
001C
001C
001C
001C
001C
001C
001C
ENDCHAR
STARTCHAR 2514
ENCODING 9492
SWIDTH 1000 0
DWIDTH 24 0
BBX 14 12 10 9
BITMAP
C000
C000
C000
C000
C000
C000
C000
C000
C000
C000
FFFC
FFFC
ENDCHAR
STARTCHAR 2515
ENCODING 9493
SWIDTH 1000 0
DWIDTH 24 0
BBX 14 14 10 7
BITMAP
C000
C000
C000
C000
C000
C000
C000
C000
C000
C000
C000
FFFC
FFFC
FFFC
ENDCHAR
STARTCHAR 2516
ENCODING 9494
SWIDTH 1000 0
DWIDTH 24 0
BBX 15 12 9 9
BITMAP
E000
E000
E000
E000
E000
E000
E000
E000
E000
E000
FFFE
FFFE
ENDCHAR
STARTCHAR 2517
ENCODING 9495
SWIDTH 1000 0
DWIDTH 24 0
BBX 14 14 10 7
BITMAP
E000
E000
E000
E000
E000
E000
E000
E000
E000
E000
E000
FFFC
FFFC
FFFC
ENDCHAR
STARTCHAR 2518
ENCODING 9496
SWIDTH 1000 0
DWIDTH 24 0
BBX 12 12 0 9
BITMAP
0030
0030
0030
0030
0030
0030
0030
0030
0030
0030
FFF0
FFF0
ENDCHAR
STARTCHAR 2519
ENCODING 9497
SWIDTH 1000 0
DWIDTH 24 0
BBX 12 14 0 7
BITMAP
0030
0030
0030
0030
0030
0030
0030
0030
0030
0030
0030
FFF0
FFF0
FFF0
ENDCHAR
STARTCHAR 251A
ENCODING 9498
SWIDTH 1000 0
DWIDTH 24 0
BBX 14 12 -1 9
BITMAP
001C
001C
001C
001C
001C
001C
001C
001C
001C
001C
FFFC
FFFC
ENDCHAR
STARTCHAR 251B
ENCODING 9499
SWIDTH 1000 0
DWIDTH 24 0
BBX 14 14 -1 7
BITMAP
001C
001C
001C
001C
001C
001C
001C
001C
001C
001C
001C
FFFC
FFFC
FFFC
ENDCHAR
STARTCHAR 251C
ENCODING 9500
SWIDTH 1000 0
DWIDTH 24 0
BBX 14 24 10 -3
BITMAP
C000
C000
C000
C000
C000
C000
C000
C000
C000
C000
FFFC
FFFC
C000
C000
C000
C000
C000
C000
C000
C000
C000
C000
C000
C000
ENDCHAR
STARTCHAR 251D
ENCODING 9501
SWIDTH 1000 0
DWIDTH 24 0
BBX 14 24 10 -3
BITMAP
C000
C000
C000
C000
C000
C000
C000
C000
C000
C000
C000
FFFC
FFFC
FFFC
C000
C000
C000
C000
C000
C000
C000
C000
C000
C000
ENDCHAR
STARTCHAR 251E
ENCODING 9502
SWIDTH 1000 0
DWIDTH 24 0
BBX 14 24 10 -3
BITMAP
F000
F000
F000
F000
F000
F000
F000
F000
F000
F000
FFFC
FFFC
C000
C000
C000
C000
C000
C000
C000
C000
C000
C000
C000
C000
ENDCHAR
STARTCHAR 251F
ENCODING 9503
SWIDTH 1000 0
DWIDTH 24 0
BBX 14 24 10 -3
BITMAP
C000
C000
C000
C000
C000
C000
C000
C000
C000
C000
FFFC
FFFC
F000
F000
F000
F000
F000
F000
F000
F000
F000
F000
F000
F000
ENDCHAR
STARTCHAR 2520
ENCODING 9504
SWIDTH 1000 0
DWIDTH 24 0
BBX 14 24 10 -3
BITMAP
E000
E000
E000
E000
E000
E000
E000
E000
E000
E000
FFFC
FFFC
E000
E000
E000
E000
E000
E000
E000
E000
E000
E000
E000
E000
ENDCHAR
STARTCHAR 2521
ENCODING 9505
SWIDTH 1000 0
DWIDTH 24 0
BBX 14 24 10 -3
BITMAP
F000
F000
F000
F000
F000
F000
F000
F000
F000
F000
F000
FFFC
FFFC
FFFC
C000
C000
C000
C000
C000
C000
C000
C000
C000
C000
ENDCHAR
STARTCHAR 2522
ENCODING 9506
SWIDTH 1000 0
DWIDTH 24 0
BBX 14 24 10 -3
BITMAP
C000
C000
C000
C000
C000
C000
C000
C000
C000
C000
C000
FFFC
FFFC
FFFC
F000
F000
F000
F000
F000
F000
F000
F000
F000
F000
ENDCHAR
STARTCHAR 2523
ENCODING 9507
SWIDTH 1000 0
DWIDTH 24 0
BBX 14 24 10 -3
BITMAP
E000
E000
E000
E000
E000
E000
E000
E000
E000
E000
E000
FFFC
FFFC
FFFC
E000
E000
E000
E000
E000
E000
E000
E000
E000
E000
ENDCHAR
STARTCHAR 2524
ENCODING 9508
SWIDTH 1000 0
DWIDTH 24 0
BBX 12 24 0 -3
BITMAP
0030
0030
0030
0030
0030
0030
0030
0030
0030
0030
FFF0
FFF0
0030
0030
0030
0030
0030
0030
0030
0030
0030
0030
0030
0030
ENDCHAR
STARTCHAR 2525
ENCODING 9509
SWIDTH 1000 0
DWIDTH 24 0
BBX 12 24 0 -3
BITMAP
0030
0030
0030
0030
0030
0030
0030
0030
0030
0030
0030
FFF0
FFF0
FFF0
0030
0030
0030
0030
0030
0030
0030
0030
0030
0030
ENDCHAR
STARTCHAR 2526
ENCODING 9510
SWIDTH 1000 0
DWIDTH 24 0
BBX 14 24 -1 -3
BITMAP
001C
001C
001C
001C
001C
001C
001C
001C
001C
001C
FFFC
FFFC
0018
0018
0018
0018
0018
0018
0018
0018
0018
0018
0018
0018
ENDCHAR
STARTCHAR 2527
ENCODING 9511
SWIDTH 1000 0
DWIDTH 24 0
BBX 14 24 -1 -3
BITMAP
0018
0018
0018
0018
0018
0018
0018
0018
0018
0018
FFFC
FFFC
001C
001C
001C
001C
001C
001C
001C
001C
001C
001C
001C
001C
ENDCHAR
STARTCHAR 2528
ENCODING 9512
SWIDTH 1000 0
DWIDTH 24 0
BBX 14 24 -1 -3
BITMAP
001C
001C
001C
001C
001C
001C
001C
001C
001C
001C
FFFC
FFFC
001C
001C
001C
001C
001C
001C
001C
001C
001C
001C
001C
001C
ENDCHAR
STARTCHAR 2529
ENCODING 9513
SWIDTH 1000 0
DWIDTH 24 0
BBX 14 24 -1 -3
BITMAP
001C
001C
001C
001C
001C
001C
001C
001C
001C
001C
001C
FFFC
FFFC
FFFC
0018
0018
0018
0018
0018
0018
0018
0018
0018
0018
ENDCHAR
STARTCHAR 252A
ENCODING 9514
SWIDTH 1000 0
DWIDTH 24 0
BBX 14 24 -1 -3
BITMAP
0018
0018
0018
0018
0018
0018
0018
0018
0018
0018
001C
FFFC
FFFC
FFFC
001C
001C
001C
001C
001C
001C
001C
001C
001C
001C
ENDCHAR
STARTCHAR 252B
ENCODING 9515
SWIDTH 1000 0
DWIDTH 24 0
BBX 14 24 -1 -3
BITMAP
001C
001C
001C
001C
001C
001C
001C
001C
001C
001C
001C
FFFC
FFFC
FFFC
001C
001C
001C
001C
001C
001C
001C
001C
001C
001C
ENDCHAR
STARTCHAR 252C
ENCODING 9516
SWIDTH 1000 0
DWIDTH 24 0
BBX 24 14 0 -3
BITMAP
FFFFFF
FFFFFF
003000
003000
003000
003000
003000
003000
003000
003000
003000
003000
003000
003000
ENDCHAR
STARTCHAR 252D
ENCODING 9517
SWIDTH 1000 0
DWIDTH 24 0
BBX 24 14 0 -3
BITMAP
FFFFFF
FFFFFF
FFF000
FFF000
003000
003000
003000
003000
003000
003000
003000
003000
003000
003000
ENDCHAR
STARTCHAR 252E
ENCODING 9518
SWIDTH 1000 0
DWIDTH 24 0
BBX 24 14 0 -3
BITMAP
FFFFFF
FFFFFF
003FFF
003FFF
003000
003000
003000
003000
003000
003000
003000
003000
003000
003000
ENDCHAR
STARTCHAR 252F
ENCODING 9519
SWIDTH 1000 0
DWIDTH 24 0
BBX 24 13 0 -3
BITMAP
FFFFFF
FFFFFF
FFFFFF
003000
003000
003000
003000
003000
003000
003000
003000
003000
003000
ENDCHAR
STARTCHAR 2530
ENCODING 9520
SWIDTH 1000 0
DWIDTH 24 0
BBX 24 14 0 -3
BITMAP
FFFFFF
FFFFFF
007000
007000
007000
007000
007000
007000
007000
007000
007000
007000
007000
007000
ENDCHAR
STARTCHAR 2531
ENCODING 9521
SWIDTH 1000 0
DWIDTH 24 0
BBX 24 14 0 -3
BITMAP
FFFFFF
FFFFFF
FFF000
FFF000
007000
007000
007000
007000
007000
007000
007000
007000
007000
007000
ENDCHAR
STARTCHAR 2532
ENCODING 9522
SWIDTH 1000 0
DWIDTH 24 0
BBX 25 14 -1 -3
BITMAP
FFFFFF80
FFFFFF80
001FFF80
001FFF80
001C0000
001C0000
001C0000
001C0000
001C0000
001C0000
001C0000
001C0000
001C0000
001C0000
ENDCHAR
STARTCHAR 2533
ENCODING 9523
SWIDTH 1000 0
DWIDTH 24 0
BBX 24 13 0 -3
BITMAP
FFFFFF
FFFFFF
FFFFFF
003C00
003C00
003C00
003C00
003C00
003C00
003C00
003C00
003C00
003C00
ENDCHAR
STARTCHAR 2534
ENCODING 9524
SWIDTH 1000 0
DWIDTH 24 0
BBX 24 12 0 9
BITMAP
003000
003000
003000
003000
003000
003000
003000
003000
003000
003000
FFFFFF
FFFFFF
ENDCHAR
STARTCHAR 2535
ENCODING 9525
SWIDTH 1000 0
DWIDTH 24 0
BBX 24 14 0 7
BITMAP
003000
003000
003000
003000
003000
003000
003000
003000
003000
003000
003000
FFFFFF
FFFFFF
FFF000
ENDCHAR
STARTCHAR 2536
ENCODING 9526
SWIDTH 1000 0
DWIDTH 24 0
BBX 24 14 0 7
BITMAP
003000
003000
003000
003000
003000
003000
003000
003000
003000
003000
003000
FFFFFF
FFFFFF
003FFF
ENDCHAR
STARTCHAR 2537
ENCODING 9527
SWIDTH 1000 0
DWIDTH 24 0
BBX 24 14 0 7
BITMAP
003000
003000
003000
003000
003000
003000
003000
003000
003000
003000
003000
FFFFFF
FFFFFF
FFFFFF
ENDCHAR
STARTCHAR 2538
ENCODING 9528
SWIDTH 1000 0
DWIDTH 24 0
BBX 24 12 0 9
BITMAP
003C00
003C00
003C00
003C00
003C00
003C00
003C00
003C00
003C00
003C00
FFFFFF
FFFFFF
ENDCHAR
STARTCHAR 2539
ENCODING 9529
SWIDTH 1000 0
DWIDTH 24 0
BBX 24 14 0 7
BITMAP
003C00
003C00
003C00
003C00
003C00
003C00
003C00
003C00
003C00
003C00
003C00
FFFFFF
FFFFFF
FFFC00
ENDCHAR
STARTCHAR 253A
ENCODING 9530
SWIDTH 1000 0
DWIDTH 24 0
BBX 24 14 0 7
BITMAP
003C00
003C00
003C00
003C00
003C00
003C00
003C00
003C00
003C00
003C00
003C00
FFFFFF
FFFFFF
003FFF
ENDCHAR
STARTCHAR 253B
ENCODING 9531
SWIDTH 1000 0
DWIDTH 24 0
BBX 24 14 0 7
BITMAP
003C00
003C00
003C00
003C00
003C00
003C00
003C00
003C00
003C00
003C00
003C00
FFFFFF
FFFFFF
FFFFFF
ENDCHAR
STARTCHAR 253C
ENCODING 9532
SWIDTH 1000 0
DWIDTH 24 0
BBX 24 24 0 -3
BITMAP
003000
003000
003000
003000
003000
003000
003000
003000
003000
003000
FFFFFF
FFFFFF
003000
003000
003000
003000
003000
003000
003000
003000
003000
003000
003000
003000
ENDCHAR
STARTCHAR 253D
ENCODING 9533
SWIDTH 1000 0
DWIDTH 24 0
BBX 24 24 0 -3
BITMAP
003000
003000
003000
003000
003000
003000
003000
003000
003000
003000
003000
FFFFFF
FFFFFF
FFF000
003000
003000
003000
003000
003000
003000
003000
003000
003000
003000
ENDCHAR
STARTCHAR 253E
ENCODING 9534
SWIDTH 1000 0
DWIDTH 24 0
BBX 24 24 0 -3
BITMAP
003000
003000
003000
003000
003000
003000
003000
003000
003000
003000
003000
FFFFFF
FFFFFF
003FFF
003000
003000
003000
003000
003000
003000
003000
003000
003000
003000
ENDCHAR
STARTCHAR 253F
ENCODING 9535
SWIDTH 1000 0
DWIDTH 24 0
BBX 24 24 0 -3
BITMAP
003000
003000
003000
003000
003000
003000
003000
003000
003000
003000
003000
FFFFFF
FFFFFF
FFFFFF
003000
003000
003000
003000
003000
003000
003000
003000
003000
003000
ENDCHAR
STARTCHAR 2540
ENCODING 9536
SWIDTH 1000 0
DWIDTH 24 0
BBX 24 24 0 -3
BITMAP
003C00
003C00
003C00
003C00
003C00
003C00
003C00
003C00
003C00
003C00
FFFFFF
FFFFFF
003000
003000
003000
003000
003000
003000
003000
003000
003000
003000
003000
003000
ENDCHAR
STARTCHAR 2541
ENCODING 9537
SWIDTH 1000 0
DWIDTH 24 0
BBX 24 24 0 -3
BITMAP
003000
003000
003000
003000
003000
003000
003000
003000
003000
003000
FFFFFF
FFFFFF
003C00
003C00
003C00
003C00
003C00
003C00
003C00
003C00
003C00
003C00
003C00
003C00
ENDCHAR
STARTCHAR 2542
ENCODING 9538
SWIDTH 1000 0
DWIDTH 24 0
BBX 24 24 0 -3
BITMAP
003C00
003C00
003C00
003C00
003C00
003C00
003C00
003C00
003C00
003C00
FFFFFF
FFFFFF
003C00
003C00
003C00
003C00
003C00
003C00
003C00
003C00
003C00
003C00
003C00
003C00
ENDCHAR
STARTCHAR 2543
ENCODING 9539
SWIDTH 1000 0
DWIDTH 24 0
BBX 24 24 0 -3
BITMAP
003C00
003C00
003C00
003C00
003C00
003C00
003C00
003C00
003C00
003C00
003C00
FFFFFF
FFFC00
FFFC00
003000
003000
003000
003000
003000
003000
003000
003000
003000
003000
ENDCHAR
STARTCHAR 2544
ENCODING 9540
SWIDTH 1000 0
DWIDTH 24 0
BBX 25 24 -1 -3
BITMAP
001C0000
001C0000
001C0000
001C0000
001C0000
001C0000
001C0000
001C0000
001C0000
001C0000
001C0000
FFFFFF80
FFFFFF80
001FFF80
00180000
00180000
00180000
00180000
00180000
00180000
00180000
00180000
00180000
00180000
ENDCHAR
STARTCHAR 2545
ENCODING 9541
SWIDTH 1000 0
DWIDTH 24 0
BBX 25 24 -1 -3
BITMAP
00180000
00180000
00180000
00180000
00180000
00180000
00180000
00180000
00180000
00180000
00180000
FFFFFF80
FFFFFF80
FFFC0000
001C0000
001C0000
001C0000
001C0000
001C0000
001C0000
001C0000
001C0000
001C0000
001C0000
ENDCHAR
STARTCHAR 2546
ENCODING 9542
SWIDTH 1000 0
DWIDTH 24 0
BBX 25 24 -1 -3
BITMAP
00180000
00180000
00180000
00180000
00180000
00180000
00180000
00180000
00180000
00180000
00180000
FFFFFF80
FFFFFF80
001FFF80
001C0000
001C0000
001C0000
001C0000
001C0000
001C0000
001C0000
001C0000
001C0000
001C0000
ENDCHAR
STARTCHAR 2547
ENCODING 9543
SWIDTH 1000 0
DWIDTH 24 0
BBX 24 24 0 -3
BITMAP
003C00
003C00
003C00
003C00
003C00
003C00
003C00
003C00
003C00
003C00
003C00
FFFFFF
FFFFFF
FFFFFF
003000
003000
003000
003000
003000
003000
003000
003000
003000
003000
ENDCHAR
STARTCHAR 2548
ENCODING 9544
SWIDTH 1000 0
DWIDTH 24 0
BBX 24 24 0 -3
BITMAP
003000
003000
003000
003000
003000
003000
003000
003000
003000
003000
003000
FFFFFF
FFFFFF
FFFFFF
003C00
003C00
003C00
003C00
003C00
003C00
003C00
003C00
003C00
003C00
ENDCHAR
STARTCHAR 2549
ENCODING 9545
SWIDTH 1000 0
DWIDTH 24 0
BBX 20 21 1 -2
BITMAP
00E000
00E000
00E000
00E000
00E000
00E000
00E000
00E000
00E000
FFFFF0
FFFFF0
FFE000
00E000
00E000
00E000
00E000
00E000
00E000
00E000
00E000
00E000
ENDCHAR
STARTCHAR 254A
ENCODING 9546
SWIDTH 1000 0
DWIDTH 24 0
BBX 25 24 -1 -3
BITMAP
001C0000
001C0000
001C0000
001C0000
001C0000
001C0000
001C0000
001C0000
001C0000
001C0000
001C0000
FFFFFF80
FFFFFF80
001FFF80
001C0000
001C0000
001C0000
001C0000
001C0000
001C0000
001C0000
001C0000
001C0000
001C0000
ENDCHAR
STARTCHAR 254B
ENCODING 9547
SWIDTH 1000 0
DWIDTH 24 0
BBX 24 24 0 -3
BITMAP
003C00
003C00
003C00
003C00
003C00
003C00
003C00
003C00
003C00
003C00
003C00
FFFFFF
FFFFFF
FFFFFF
003C00
003C00
003C00
003C00
003C00
003C00
003C00
003C00
003C00
003C00
ENDCHAR
STARTCHAR 25A0
ENCODING 9632
SWIDTH 1000 0
DWIDTH 24 0
BBX 18 18 4 0
BITMAP
FFFFC0
FFFFC0
FFFFC0
FFFFC0
FFFFC0
FFFFC0
FFFFC0
FFFFC0
FFFFC0
FFFFC0
FFFFC0
FFFFC0
FFFFC0
FFFFC0
FFFFC0
FFFFC0
FFFFC0
FFFFC0
ENDCHAR
STARTCHAR 25A1
ENCODING 9633
SWIDTH 1000 0
DWIDTH 24 0
BBX 19 18 4 0
BITMAP
FFFFE0
FFFFE0
C00060
C00060
C00060
C00060
C00060
C00060
C00060
C00060
C00060
C00060
C00060
C00060
C00060
C00060
FFFFE0
FFFFE0
ENDCHAR
STARTCHAR 25B2
ENCODING 9650
SWIDTH 1000 0
DWIDTH 24 0
BBX 23 20 1 0
BITMAP
001800
001800
007C00
007C00
007C00
00FF00
00FF00
00FF00
03FF80
03FF80
03FF80
07FFE0
07FFE0
07FFE0
1FFFF0
1FFFF0
1FFFF0
3FFFFC
FFFFFE
FFFFFE
ENDCHAR
STARTCHAR 25B3
ENCODING 9651
SWIDTH 1000 0
DWIDTH 24 0
BBX 23 20 1 0
BITMAP
001800
001800
007C00
007C00
006C00
00C300
00C300
00C300
030180
030180
030180
060060
060060
060060
180030
180030
180030
30000C
FFFFFE
FFFFFE
ENDCHAR
STARTCHAR 25C6
ENCODING 9670
SWIDTH 1000 0
DWIDTH 24 0
BBX 23 23 1 -2
BITMAP
001800
007C00
007C00
00FF00
03FF80
03FF80
07FFE0
1FFFF0
1FFFF0
3FFFFC
FFFFFE
FFFFFE
3FFFFC
3FFFFC
1FFFF0
07FFE0
07FFE0
03FF80
00FF00
00FF00
007C00
001800
001800
ENDCHAR
STARTCHAR 25C7
ENCODING 9671
SWIDTH 1000 0
DWIDTH 24 0
BBX 23 23 1 -2
BITMAP
001800
007C00
006C00
00C300
03C380
030180
060060
1E0070
180030
30000C
F0000E
C00006
30000C
38003C
180030
060060
0701E0
030180
00C300
00EF00
006C00
001800
001800
ENDCHAR
STARTCHAR 25CB
ENCODING 9675
SWIDTH 1000 0
DWIDTH 24 0
BBX 23 23 1 -2
BITMAP
00FF00
07FFE0
0701E0
180030
38003C
30000C
30000C
F0000E
C00006
C00006
C00006
C00006
C00006
C00006
C00006
30000C
30000C
30000C
180030
1F01F0
0701E0
00FF00
00FF00
ENDCHAR
STARTCHAR 25CE
ENCODING 9678
SWIDTH 1000 0
DWIDTH 24 0
BBX 23 23 1 -2
BITMAP
01FF00
07FFE0
0701E0
187C30
3BFFBC
33838C
34006C
F4006E
C40066
D80036
D80036
D80036
D80036
D80036
C40066
F4006E
34006C
33838C
187C30
1F7DF0
0701E0
01FF00
01FF00
ENDCHAR
STARTCHAR 25CF
ENCODING 9679
SWIDTH 1000 0
DWIDTH 24 0
BBX 23 23 1 -2
BITMAP
00FF00
07FFE0
07FFE0
1FFFF0
3FFFFC
3FFFFC
3FFFFC
FFFFFE
FFFFFE
FFFFFE
FFFFFE
FFFFFE
FFFFFE
FFFFFE
FFFFFE
3FFFFC
3FFFFC
3FFFFC
1FFFF0
1FFFF0
07FFE0
00FF00
00FF00
ENDCHAR
STARTCHAR 2605
ENCODING 9733
SWIDTH 1000 0
DWIDTH 24 0
BBX 23 23 1 -2
BITMAP
001800
001800
001800
007C00
007C00
007C00
00FF00
FFFFFE
FFFFFE
3FFFFC
3FFFFC
1FFFF0
07FFE0
07FFE0
03FF80
07FFE0
07FFE0
07EFE0
1FC3F0
1FC3F0
1E0070
30000C
30000C
ENDCHAR
STARTCHAR 2606
ENCODING 9734
SWIDTH 1000 0
DWIDTH 24 0
BBX 23 23 1 -2
BITMAP
001800
001800
001800
006C00
006C00
006C00
00C300
FFC3FE
FF01FE
30000C
38003C
180030
060060
0701E0
030180
061860
067C60
066C60
1BC3B0
1FC3F0
1E0070
30000C
30000C
ENDCHAR
STARTCHAR 2640
ENCODING 9792
SWIDTH 1000 0
DWIDTH 24 0
BBX 14 20 6 0
BITMAP
0F80
0F80
1860
1860
1860
1860
1FE0
0F80
0300
0300
0300
FFFC
FFFC
0300
0300
0300
0300
0300
0300
0300
ENDCHAR
STARTCHAR 2642
ENCODING 9794
SWIDTH 1000 0
DWIDTH 24 0
BBX 11 20 7 0
BITMAP
0600
0600
1F00
3FC0
36C0
C660
C660
0600
0600
0600
0600
0600
1F00
1F00
30C0
30C0
30C0
30C0
3FC0
1F00
ENDCHAR
STARTCHAR 3000
ENCODING 12288
SWIDTH 1000 0
DWIDTH 24 0
BBX 0 0 0 0
BITMAP
ENDCHAR
STARTCHAR 3001
ENCODING 12289
SWIDTH 1000 0
DWIDTH 24 0
BBX 9 6 3 0
BITMAP
E000
FF00
7F00
1F80
1F80
0F80
ENDCHAR
STARTCHAR 3002
ENCODING 12290
SWIDTH 1000 0
DWIDTH 24 0
BBX 9 8 1 -2
BITMAP
7F00
FF80
E380
E380
E380
E380
7F00
7F00
ENDCHAR
STARTCHAR 3003
ENCODING 12291
SWIDTH 1000 0
DWIDTH 24 0
BBX 14 17 4 0
BITMAP
030C
030C
030C
071C
071C
071C
1F7C
1E78
1860
1860
1860
30C0
30C0
30C0
C300
C300
C300
ENDCHAR
STARTCHAR 3005
ENCODING 12293
SWIDTH 1000 0
DWIDTH 24 0
BBX 17 20 4 0
BITMAP
030000
030000
0FC000
0FC000
0F0000
1C0600
3FFF80
3FFF80
380E00
F81E00
C01C00
001C00
0C7C00
0C7000
03E000
03E000
00E000
00F000
00F000
006000
ENDCHAR
STARTCHAR 3008
ENCODING 12296
SWIDTH 1000 0
DWIDTH 24 0
BBX 9 17 6 0
BITMAP
0180
0180
0300
0F00
0C00
1800
7800
6000
C000
E000
6000
1800
1C00
0C00
0300
0380
0180
ENDCHAR
STARTCHAR 3009
ENCODING 12297
SWIDTH 1000 0
DWIDTH 24 0
BBX 9 17 12 1
BITMAP
C000
E000
6000
1800
1C00
0C00
0300
0380
0180
0300
0F00
0C00
1800
7800
6000
C000
C000
ENDCHAR
STARTCHAR 300A
ENCODING 12298
SWIDTH 1000 0
DWIDTH 24 0
BBX 9 15 6 1
BITMAP
1980
1980
1980
6300
6300
6300
CC00
CC00
CC00
6300
6300
6300
1980
1980
1980
ENDCHAR
STARTCHAR 300B
ENCODING 12299
SWIDTH 1000 0
DWIDTH 24 0
BBX 9 15 9 1
BITMAP
CC00
CC00
CC00
6300
6300
6300
1980
1980
1980
6300
6300
6300
CC00
CC00
CC00
ENDCHAR
STARTCHAR 300C
ENCODING 12300
SWIDTH 1000 0
DWIDTH 24 0
BBX 8 18 10 0
BITMAP
FF
FF
C0
C0
C0
C0
C0
C0
C0
C0
C0
C0
C0
C0
C0
C0
C0
C0
ENDCHAR
STARTCHAR 300D
ENCODING 12301
SWIDTH 1000 0
DWIDTH 24 0
BBX 8 18 6 0
BITMAP
03
03
03
03
03
03
03
03
03
03
03
03
03
03
03
03
FF
FF
ENDCHAR
STARTCHAR 300E
ENCODING 12302
SWIDTH 1000 0
DWIDTH 24 0
BBX 11 18 9 0
BITMAP
FFE0
FFE0
C060
DFE0
DFE0
D800
D800
D800
D800
D800
D800
D800
D800
D800
D800
D800
F800
F800
ENDCHAR
STARTCHAR 300F
ENCODING 12303
SWIDTH 1000 0
DWIDTH 24 0
BBX 14 20 4 -2
BITMAP
007C
007C
006C
006C
006C
006C
006C
006C
006C
006C
006C
006C
006C
006C
006C
FFEC
FFEC
C06C
FFFC
FFFC
ENDCHAR
STARTCHAR 3010
ENCODING 12304
SWIDTH 1000 0
DWIDTH 24 0
BBX 11 18 7 0
BITMAP
FFE0
FFE0
FFC0
FF00
FF00
FE00
FE00
FE00
F800
F800
FE00
FE00
FE00
FF00
FF00
FFC0
FFE0
FFE0
ENDCHAR
STARTCHAR 3011
ENCODING 12305
SWIDTH 1000 0
DWIDTH 24 0
BBX 11 18 7 0
BITMAP
FFE0
FFE0
3FE0
1FE0
1FE0
07E0
07E0
07E0
03E0
03E0
07E0
07E0
07E0
1FE0
1FE0
3FE0
FFE0
FFE0
ENDCHAR
STARTCHAR 3013
ENCODING 12307
SWIDTH 1000 0
DWIDTH 24 0
BBX 17 22 4 -2
BITMAP
FFFF80
FFFF80
FFFF80
FFFF80
FFFF80
FFFF80
FFFF80
FFFF80
000000
000000
000000
000000
000000
000000
FFFF80
FFFF80
FFFF80
FFFF80
FFFF80
FFFF80
FFFF80
FFFF80
ENDCHAR
STARTCHAR 3014
ENCODING 12308
SWIDTH 1000 0
DWIDTH 24 0
BBX 8 22 13 -2
BITMAP
07
07
3E
3E
F0
C0
C0
C0
C0
C0
C0
C0
C0
C0
C0
C0
C0
F0
F0
3E
07
07
ENDCHAR
STARTCHAR 3015
ENCODING 12309
SWIDTH 1000 0
DWIDTH 24 0
BBX 8 22 4 -2
BITMAP
E0
E0
7C
7C
0F
03
03
03
03
03
03
03
03
03
03
03
03
0F
0F
7C
E0
E0
ENDCHAR
STARTCHAR 3016
ENCODING 12310
SWIDTH 1000 0
DWIDTH 24 0
BBX 12 18 6 0
BITMAP
FFF0
FFF0
C060
C180
C380
C300
C300
C300
CC00
CC00
CC00
C300
C300
C380
C180
C060
FFF0
FFF0
ENDCHAR
STARTCHAR 3017
ENCODING 12311
SWIDTH 1000 0
DWIDTH 24 0
BBX 13 18 7 0
BITMAP
FFF8
FFF8
3018
1818
1E18
0618
0618
0618
0318
0318
0318
0618
0618
1E18
1818
3018
FFF8
FFF8
ENDCHAR
STARTCHAR 3041
ENCODING 12353
SWIDTH 1000 0
DWIDTH 24 0
BBX 16 20 4 -2
BITMAP
0300
0300
0300
0300
3FFC
3FFC
0300
07C0
07C0
1B60
3BFC
23DC
C303
DFC3
DCC3
200C
201C
0018
0060
0060
ENDCHAR
STARTCHAR 3042
ENCODING 12354
SWIDTH 1000 0
DWIDTH 24 0
BBX 17 21 4 -2
BITMAP
008000
008000
008000
030000
FFFE00
FFFE00
030000
038000
07F000
077000
1B6C00
1B6C00
236200
23E380
208180
C36180
3C0200
3C0E00
000C00
001000
001000
ENDCHAR
STARTCHAR 3043
ENCODING 12355
SWIDTH 1000 0
DWIDTH 24 0
BBX 14 15 6 1
BITMAP
C000
C060
C060
C030
C03C
C03C
C00C
6000
6000
6000
1800
1B00
1B00
0C00
0C00
ENDCHAR
STARTCHAR 3044
ENCODING 12356
SWIDTH 1000 0
DWIDTH 24 0
BBX 17 18 4 0
BITMAP
C00000
C00000
C00000
C01800
C01C00
C00C00
C00F80
C00F80
F00300
F00300
300000
300000
380000
380000
18C000
1B0000
1F0000
060000
ENDCHAR
STARTCHAR 3045
ENCODING 12357
SWIDTH 1000 0
DWIDTH 24 0
BBX 12 17 6 0
BITMAP
7F80
7F80
01E0
0FE0
0F00
1800
FFE0
FFE0
0070
0070
0030
01E0
03E0
0380
0C00
1C00
1800
ENDCHAR
STARTCHAR 3046
ENCODING 12358
SWIDTH 1000 0
DWIDTH 24 0
BBX 14 20 6 -2
BITMAP
7F80
7FE0
01E0
0380
0F80
0C00
FFE0
FFE0
0070
003C
003C
0030
0070
0070
01E0
0300
0F00
0C00
1800
1800
ENDCHAR
STARTCHAR 3047
ENCODING 12359
SWIDTH 1000 0
DWIDTH 24 0
BBX 14 17 6 1
BITMAP
1C00
1F00
0F00
1800
1800
0000
FFE0
FFE0
0180
0300
0F00
0C00
1B00
7B8C
638C
C1F0
C1F0
ENDCHAR
STARTCHAR 3048
ENCODING 12360
SWIDTH 1000 0
DWIDTH 24 0
BBX 17 18 4 0
BITMAP
07E000
07E000
00C000
030000
030000
000000
3FF800
3FF800
006000
00C000
03C000
030000
06C000
1EC000
18C000
30E180
F0FF80
C07F80
ENDCHAR
STARTCHAR 3049
ENCODING 12361
SWIDTH 1000 0
DWIDTH 24 0
BBX 16 17 4 1
BITMAP
2000
2000
1878
187C
181C
3C00
3C78
1878
1B8C
1F8F
1C03
3803
F98F
D98C
3878
3878
1800
ENDCHAR
STARTCHAR 304A
ENCODING 12362
SWIDTH 1000 0
DWIDTH 24 0
BBX 17 18 4 0
BITMAP
300E00
380F80
180380
180000
FF1C00
FF1C00
186200
18E380
18C180
1B0180
1F0180
1E0180
38C200
F8EE00
D86C00
381000
381000
180000
ENDCHAR
STARTCHAR 304B
ENCODING 12363
SWIDTH 1000 0
DWIDTH 24 0
BBX 17 18 4 0
BITMAP
060000
070000
030000
C30C00
FFCF00
3FC300
036300
036300
066180
066180
066180
186180
186380
38E380
30C300
30C000
F3C000
C30000
ENDCHAR
STARTCHAR 304C
ENCODING 12364
SWIDTH 1000 0
DWIDTH 24 0
BBX 19 20 4 0
BITMAP
000300
000300
0601E0
0701E0
030000
C30DE0
FFCFE0
3FC300
036300
036300
066180
066180
066180
186180
186380
38E380
30C300
30C000
F3C000
C30000
ENDCHAR
STARTCHAR 304D
ENCODING 12365
SWIDTH 1000 0
DWIDTH 24 0
BBX 12 21 6 -2
BITMAP
1800
1800
1800
0FF0
FC00
FF00
0300
03F0
FFF0
FD80
0180
0180
0060
1C60
1C60
63B0
63F0
6060
1C00
03E0
03E0
ENDCHAR
STARTCHAR 304E
ENCODING 12366
SWIDTH 1000 0
DWIDTH 24 0
BBX 16 23 6 -2
BITMAP
0008
0008
1807
180F
1808
0FF7
FC00
FF00
0300
03F0
FFF0
FD80
0180
0180
0060
1C60
1C60
63B0
63F0
6060
1C00
03E0
03E0
ENDCHAR
STARTCHAR 304F
ENCODING 12367
SWIDTH 1000 0
DWIDTH 24 0
BBX 9 20 6 -2
BITMAP
0180
0380
0380
0E00
0E00
1C00
1C00
1000
6000
E000
E000
6000
1000
1C00
1C00
0E00
0E00
0380
0380
0180
ENDCHAR
STARTCHAR 3050
ENCODING 12368
SWIDTH 1000 0
DWIDTH 24 0
BBX 17 23 6 -2
BITMAP
000C00
000F80
000780
018C00
038F80
038780
0E0000
0E0000
1C0000
1C0000
100000
600000
E00000
E00000
600000
100000
1C0000
1C0000
0E0000
0E0000
038000
038000
018000
ENDCHAR
STARTCHAR 3051
ENCODING 12369
SWIDTH 1000 0
DWIDTH 24 0
BBX 17 22 4 -2
BITMAP
001800
001800
C01C00
C01C00
C00C00
C07F80
C07F80
C00C00
C00C00
F00C00
F00C00
300C00
300C00
300C00
380C00
3B0C00
1B0C00
1E0C00
1E1C00
181800
006000
006000
ENDCHAR
STARTCHAR 3052
ENCODING 12370
SWIDTH 1000 0
DWIDTH 24 0
BBX 20 23 4 -2
BITMAP
000180
0001F0
000070
C01980
C01980
C00C70
C00C70
C00C00
C07F80
C07F80
C00C00
F00C00
F00C00
300C00
300C00
380C00
380C00
1B0C00
1F0C00
1E0C00
181800
006000
006000
ENDCHAR
STARTCHAR 3053
ENCODING 12371
SWIDTH 1000 0
DWIDTH 24 0
BBX 16 16 4 1
BITMAP
3FE0
3FE0
00F8
03F8
03C0
0000
0000
0000
0000
0000
C000
C000
C000
381F
1FFC
1FFC
ENDCHAR
STARTCHAR 3054
ENCODING 12372
SWIDTH 1000 0
DWIDTH 24 0
BBX 18 20 4 1
BITMAP
000200
0003C0
0001C0
000200
3FE3C0
3FE1C0
00F800
03F800
03C000
000000
000000
000000
000000
000000
C00000
C00000
C00000
381E00
1FFC00
1FFC00
ENDCHAR
STARTCHAR 3055
ENCODING 12373
SWIDTH 1000 0
DWIDTH 24 0
BBX 12 21 6 -2
BITMAP
1800
1800
1C00
0C00
0FF0
FFF0
FB00
0380
0380
0180
0180
01E0
0060
1C70
1C70
6380
63E0
6060
1C00
03E0
03E0
ENDCHAR
STARTCHAR 3056
ENCODING 12374
SWIDTH 1000 0
DWIDTH 24 0
BBX 17 23 6 -2
BITMAP
000C00
000C00
180780
180F80
180C00
0C0780
0FF000
FFF000
FB0000
038000
038000
018000
018000
01E000
006000
1C7000
1C7000
638000
63E000
606000
1C0000
03E000
03E000
ENDCHAR
STARTCHAR 3057
ENCODING 12375
SWIDTH 1000 0
DWIDTH 24 0
BBX 13 18 7 0
BITMAP
C000
C000
C000
C000
C000
C000
C000
C000
C000
C000
C000
C000
C018
F078
F060
38C0
3FC0
1F00
ENDCHAR
STARTCHAR 3058
ENCODING 12376
SWIDTH 1000 0
DWIDTH 24 0
BBX 14 20 7 0
BITMAP
0060
0060
C01C
C07C
C060
C01C
C01C
C000
C000
C000
C000
C000
C000
C000
C018
F078
F060
38C0
3FC0
1F00
ENDCHAR
STARTCHAR 3059
ENCODING 12377
SWIDTH 1000 0
DWIDTH 24 0
BBX 17 22 4 -2
BITMAP
00C000
00C000
00C000
00C000
00C000
00C000
FFFF80
FFFF80
00C000
03C000
03C000
06C000
06C000
06C000
036000
036000
006000
00C000
03C000
030000
060000
060000
ENDCHAR
STARTCHAR 305A
ENCODING 12378
SWIDTH 1000 0
DWIDTH 24 0
BBX 19 23 4 -2
BITMAP
000300
00C3E0
00C1E0
00C300
00C3E0
00C1E0
00C000
FFFF80
FFFF80
00C000
03C000
03C000
06C000
06C000
06C000
036000
036000
006000
00C000
03C000
030000
060000
060000
ENDCHAR
STARTCHAR 305B
ENCODING 12379
SWIDTH 1000 0
DWIDTH 24 0
BBX 17 18 4 0
BITMAP
001800
061800
061800
061800
FFFF80
FFFF80
061800
061800
061800
061800
06D800
06D800
066000
066000
060000
060000
07FF00
03FF00
ENDCHAR
STARTCHAR 305C
ENCODING 12380
SWIDTH 1000 0
DWIDTH 24 0
BBX 19 21 4 0
BITMAP
000300
0003E0
0001E0
001B00
061BE0
0619E0
061800
FFFF80
FFFF80
061800
061800
061800
061800
06D800
06D800
066000
066000
060000
060000
07FF00
03FF00
ENDCHAR
STARTCHAR 305D
ENCODING 12381
SWIDTH 1000 0
DWIDTH 24 0
BBX 14 20 4 -2
BITMAP
1FE0
1FE0
0660
00C0
03C0
0300
0600
1E7C
187C
37C0
FFC0
F8C0
0300
0300
0300
0300
03C0
00C0
007C
007C
ENDCHAR
STARTCHAR 305E
ENCODING 12382
SWIDTH 1000 0
DWIDTH 24 0
BBX 18 23 4 -2
BITMAP
000200
0003C0
0001C0
1FE200
1FE3C0
0661C0
00C000
03C000
030000
060000
1E7C00
187C00
37C000
FFC000
F8C000
030000
030000
030000
030000
03C000
00C000
007C00
007C00
ENDCHAR
STARTCHAR 305F
ENCODING 12383
SWIDTH 1000 0
DWIDTH 24 0
BBX 18 20 3 -2
BITMAP
0C0000
0C0F80
0C0F80
7F81C0
7F81C0
0C0180
0C0600
0C0600
0C0000
0C0000
0C0000
0C0000
1C6000
7C6000
786000
603000
E03FC0
E00FC0
C00000
C00000
ENDCHAR
STARTCHAR 3060
ENCODING 12384
SWIDTH 1000 0
DWIDTH 24 0
BBX 21 23 3 -2
BITMAP
0000C0
0000F8
000038
0C00C0
0C0FF8
0C0FB8
7F81C0
7F81C0
0C0180
0C0600
0C0600
0C0000
0C0000
0C0000
0C0000
1C6000
7C6000
786000
603000
E03FC0
E00FC0
C00000
C00000
ENDCHAR
STARTCHAR 3061
ENCODING 12385
SWIDTH 1000 0
DWIDTH 24 0
BBX 15 22 6 -2
BITMAP
0300
0300
0360
E370
E330
7FE0
7FE0
0300
0300
0300
0300
0370
0370
038C
0F0E
0F0E
000E
003C
003C
0070
0180
0180
ENDCHAR
STARTCHAR 3062
ENCODING 12386
SWIDTH 1000 0
DWIDTH 24 0
BBX 18 23 6 -2
BITMAP
000600
0307C0
0301C0
036600
E377C0
E331C0
7FE000
7FE000
030000
030000
030000
030000
037000
037000
038C00
0F0E00
0F0E00
000E00
003C00
003C00
007000
018000
018000
ENDCHAR
STARTCHAR 3063
ENCODING 12387
SWIDTH 1000 0
DWIDTH 24 0
BBX 14 11 6 3
BITMAP
C3E0
C3E0
7C30
7C3C
000C
000C
003C
0030
01E0
03E0
0300
ENDCHAR
STARTCHAR 3064
ENCODING 12388
SWIDTH 1000 0
DWIDTH 24 0
BBX 18 14 3 1
BITMAP
003E00
C3FF80
C3E180
7C00C0
7C00C0
0000C0
000180
000180
000180
000E00
007E00
007000
018000
018000
ENDCHAR
STARTCHAR 3065
ENCODING 12389
SWIDTH 1000 0
DWIDTH 24 0
BBX 19 20 3 1
BITMAP
000100
0001E0
0000E0
000100
0001E0
0000E0
003E00
C3FF00
C3E100
7C00C0
7C00C0
0000C0
000100
000100
000100
000E00
007E00
007000
018000
018000
ENDCHAR
STARTCHAR 3066
ENCODING 12390
SWIDTH 1000 0
DWIDTH 24 0
BBX 17 17 4 0
BITMAP
001F80
001F80
07E000
FFE000
FB0000
030000
030000
030000
030000
030000
030000
060000
060000
060000
031C00
03FC00
00F800
ENDCHAR
STARTCHAR 3067
ENCODING 12391
SWIDTH 1000 0
DWIDTH 24 0
BBX 20 21 4 0
BITMAP
000180
0001F0
000070
000180
001FF0
001F70
07E000
FFE000
FB0000
030000
030000
030000
030000
030000
030000
060000
060000
060000
031C00
03FC00
00F800
ENDCHAR
STARTCHAR 3068
ENCODING 12392
SWIDTH 1000 0
DWIDTH 24 0
BBX 11 20 6 -2
BITMAP
0C00
0C00
0C00
0C00
0C00
0C00
0D80
0F80
0F00
1C00
7C00
6000
C000
C000
C000
C000
E1E0
61E0
1F80
1F80
ENDCHAR
STARTCHAR 3069
ENCODING 12393
SWIDTH 1000 0
DWIDTH 24 0
BBX 17 22 6 -2
BITMAP
000C00
000C00
0C0780
0C0F80
0C0C00
0C0780
0C0780
0C0000
0D8000
0F8000
0F0000
1C0000
7C0000
600000
C00000
C00000
C00000
C00000
E1E000
61E000
1F8000
1F8000
ENDCHAR
STARTCHAR 306A
ENCODING 12394
SWIDTH 1000 0
DWIDTH 24 0
BBX 18 20 3 -2
BITMAP
0C0000
0C0E00
0C0E00
7F8780
7F8780
0C0180
0C0600
0C0600
0C0800
0C0800
0C0800
0C0600
1C0600
7C7600
787600
618F80
618F80
E046C0
E07EC0
C03800
ENDCHAR
STARTCHAR 306B
ENCODING 12395
SWIDTH 1000 0
DWIDTH 24 0
BBX 17 18 4 0
BITMAP
300000
300300
300300
30FC00
30FC00
300000
300000
F00000
C00000
C00000
C00000
C00000
C00000
C60000
C60000
38C380
38FF80
307F00
ENDCHAR
STARTCHAR 306C
ENCODING 12396
SWIDTH 1000 0
DWIDTH 24 0
BBX 20 17 3 1
BITMAP
0C0000
0F3E00
033E00
01E180
01E180
6F80C0
6F80C0
6D80C0
1B00C0
1B00C0
7F00C0
6C00C0
DB0F80
DBBFC0
D9B1C0
600EF0
600EF0
ENDCHAR
STARTCHAR 306D
ENCODING 12397
SWIDTH 1000 0
DWIDTH 24 0
BBX 22 20 1 0
BITMAP
060000
060000
060000
060F00
060F00
3F1980
3F79E0
066060
066030
36E030
36C030
370030
3F0070
1E0060
1E03E0
3E0FF0
360C70
DE03BC
DE03BC
060000
ENDCHAR
STARTCHAR 306E
ENCODING 12398
SWIDTH 1000 0
DWIDTH 24 0
BBX 18 18 3 0
BITMAP
03E000
1FF800
1C3800
618600
618600
C18180
C18180
C18180
C180C0
C180C0
E381C0
630180
630180
6F0780
6C0600
181800
183800
003000
ENDCHAR
STARTCHAR 306F
ENCODING 12399
SWIDTH 1000 0
DWIDTH 24 0
BBX 17 22 4 -2
BITMAP
001800
001800
301800
331980
331980
30FF00
30FF00
301800
301800
301800
301800
300C00
300C00
C00C00
C00C00
C00C00
C0F800
DBFF00
DB1F00
336180
00C000
00C000
ENDCHAR
STARTCHAR 3070
ENCODING 12400
SWIDTH 1000 0
DWIDTH 24 0
BBX 20 23 4 -2
BITMAP
000180
0019F0
001870
301980
3319F0
331870
30FF00
30FF00
301800
301800
301800
301800
300C00
300C00
C00C00
C00C00
C00C00
C0F800
DBFF00
DB1F00
336180
00C000
00C000
ENDCHAR
STARTCHAR 3071
ENCODING 12401
SWIDTH 1000 0
DWIDTH 24 0
BBX 20 23 4 -2
BITMAP
000060
0019F0
0019B0
301860
3319E0
331980
30FF00
30FF00
301800
301800
301800
301800
300C00
300C00
C00C00
C00C00
C00C00
C0F800
DBFF00
DB1F00
336180
00C000
00C000
ENDCHAR
STARTCHAR 3072
ENCODING 12402
SWIDTH 1000 0
DWIDTH 24 0
BBX 19 20 4 -2
BITMAP
000C00
1C0F00
1C0F00
F80F00
F80F80
200D80
200D80
200DE0
200C60
200C00
E00C00
C00C00
C00300
C00300
C00300
200C00
3C7C00
1C7000
038000
038000
ENDCHAR
STARTCHAR 3073
ENCODING 12403
SWIDTH 1000 0
DWIDTH 24 0
BBX 20 23 4 -2
BITMAP
000180
0001F0
000070
000D80
1C0FF0
1C0F70
F80F00
F80F80
200D80
200D80
200DE0
200C60
200C00
E00C00
C00C00
C00300
C00300
C00300
200C00
3C7C00
1C7000
038000
038000
ENDCHAR
STARTCHAR 3074
ENCODING 12404
SWIDTH 1000 0
DWIDTH 24 0
BBX 20 22 4 -2
BITMAP
000060
000060
000DB0
1C0FF0
1C0F60
F80F00
F80F80
200D80
200D80
200DE0
200C60
200C00
E00C00
C00C00
C00300
C00300
C00300
200C00
3C7C00
1C7000
038000
038000
ENDCHAR
STARTCHAR 3075
ENCODING 12405
SWIDTH 1000 0
DWIDTH 24 0
BBX 19 17 3 0
BITMAP
038000
038000
01E000
01E000
018000
030000
038000
018000
006000
01F800
01F800
0F3700
FF37E0
FB33E0
61B0C0
61F0C0
006000
ENDCHAR
STARTCHAR 3076
ENCODING 12406
SWIDTH 1000 0
DWIDTH 24 0
BBX 19 20 3 0
BITMAP
000600
000600
0003C0
0387C0
038600
01E3C0
01E3C0
018000
030000
038000
018000
006000
01F800
01F800
0F3700
FF37E0
FB33E0
61B0C0
61F0C0
006000
ENDCHAR
STARTCHAR 3077
ENCODING 12407
SWIDTH 1000 0
DWIDTH 24 0
BBX 19 18 3 0
BITMAP
000300
0387C0
0386C0
01E300
01E300
018000
030000
038000
018000
006000
01F800
01F800
0F3700
FF37E0
FB33E0
61B0C0
61F0C0
006000
ENDCHAR
STARTCHAR 3078
ENCODING 12408
SWIDTH 1000 0
DWIDTH 24 0
BBX 19 9 4 3
BITMAP
180000
3C0000
340000
C38000
C3F800
01F800
001F00
001FE0
0003E0
ENDCHAR
STARTCHAR 3079
ENCODING 12409
SWIDTH 1000 0
DWIDTH 24 0
BBX 19 17 4 3
BITMAP
000C00
000C00
000380
000F80
000C00
000380
000380
000000
180000
3C0000
340000
C38000
C3F800
01F800
001F00
001FE0
0003E0
ENDCHAR
STARTCHAR 307A
ENCODING 12410
SWIDTH 1000 0
DWIDTH 24 0
BBX 19 15 4 3
BITMAP
000300
000F80
000D80
000300
000300
000000
180000
3C0000
340000
C38000
C3F800
01F800
001F00
001FE0
0003E0
ENDCHAR
STARTCHAR 307B
ENCODING 12411
SWIDTH 1000 0
DWIDTH 24 0
BBX 17 22 4 -2
BITMAP
00FF00
00FF00
301800
301800
301800
33FF80
33FF80
301800
301800
301800
301800
300C00
300C00
C00C00
C00C00
C00C00
C0F800
DBFF00
DB1F00
336180
00C000
00C000
ENDCHAR
STARTCHAR 307C
ENCODING 12412
SWIDTH 1000 0
DWIDTH 24 0
BBX 20 23 4 -2
BITMAP
000180
00FFF0
00FF70
301980
3019F0
301870
33FF80
33FF80
301800
301800
301800
301800
300C00
300C00
C00C00
C00C00
C00C00
C0F800
DBFF00
DB1F00
336180
00C000
00C000
ENDCHAR
STARTCHAR 307D
ENCODING 12413
SWIDTH 1000 0
DWIDTH 24 0
BBX 20 22 4 -2
BITMAP
00FF60
00FF60
3019B0
3019F0
301860
33FF80
33FF80
301800
301800
301800
301800
300C00
300C00
C00C00
C00C00
C00C00
C0F800
DBFF00
DB1F00
336180
00C000
00C000
ENDCHAR
STARTCHAR 307E
ENCODING 12414
SWIDTH 1000 0
DWIDTH 24 0
BBX 14 21 4 -2
BITMAP
00C0
00C0
00C0
00C0
07F8
07F8
00C0
00C0
00C0
1FFC
1FFC
00C0
00C0
00C0
00C0
1EC0
3FE0
33E0
C778
3800
3800
ENDCHAR
STARTCHAR 307F
ENCODING 12415
SWIDTH 1000 0
DWIDTH 24 0
BBX 19 17 1 0
BITMAP
07E000
07E000
006000
006000
008180
008180
008180
030180
1B0380
1B0380
378300
F7F300
C67300
D80F00
D83380
F873E0
3061E0
ENDCHAR
STARTCHAR 3080
ENCODING 12416
SWIDTH 1000 0
DWIDTH 24 0
BBX 19 22 4 -2
BITMAP
180000
180000
180000
FF0000
FF0000
180380
180FE0
180C60
180C00
380C00
380C00
DE0300
DE0300
DE0300
380300
380300
180300
180300
1E0F00
1E0C00
37F800
37F800
ENDCHAR
STARTCHAR 3081
ENCODING 12417
SWIDTH 1000 0
DWIDTH 24 0
BBX 18 20 3 0
BITMAP
006000
006000
606000
63F000
63F000
7C6C00
7C6E00
186600
1DE180
7FE1C0
6380C0
C180C0
C3E1C0
C36180
633180
6F3780
6C0600
180C00
183C00
003000
ENDCHAR
STARTCHAR 3082
ENCODING 12418
SWIDTH 1000 0
DWIDTH 24 0
BBX 13 21 7 -2
BITMAP
1800
1800
1800
F800
1F00
1F00
1E00
38C0
38C0
D860
3818
3818
1F18
1818
1818
1818
1860
1860
06C0
0300
0300
ENDCHAR
STARTCHAR 3083
ENCODING 12419
SWIDTH 1000 0
DWIDTH 24 0
BBX 15 19 6 -2
BITMAP
1D80
1D80
6200
7A30
1830
19CC
19CC
DE06
FE06
7806
0CCC
0C30
0E30
0200
01C0
01F0
00F0
00C0
00C0
ENDCHAR
STARTCHAR 3084
ENCODING 12420
SWIDTH 1000 0
DWIDTH 24 0
BBX 20 19 3 -2
BITMAP
0E0000
0E0000
118300
118300
100EC0
1C7EC0
0C70C0
EF8030
FF8030
1E0030
0188C0
018FC0
018700
006000
007000
007F00
003F00
000E00
000E00
ENDCHAR
STARTCHAR 3085
ENCODING 12421
SWIDTH 1000 0
DWIDTH 24 0
BBX 15 20 6 -2
BITMAP
0060
01F0
01F0
C36C
CFEE
CDE6
CC66
CC66
CC66
CC66
CC66
CC66
DB6C
FBFC
F9F0
6060
61E0
0180
0300
0300
ENDCHAR
STARTCHAR 3086
ENCODING 12422
SWIDTH 1000 0
DWIDTH 24 0
BBX 19 22 4 -2
BITMAP
001800
001800
C06C00
C0FF80
C0FB80
C31980
C319E0
C31860
C31860
C31860
C31860
C31860
C31860
C31860
C0D860
C6F860
C67860
D80380
F81F80
301C00
00E000
00E000
ENDCHAR
STARTCHAR 3087
ENCODING 12423
SWIDTH 1000 0
DWIDTH 24 0
BBX 13 18 7 0
BITMAP
0C00
0C00
0C00
0FC0
0FC0
0C00
0C00
0F00
0300
0300
0300
0300
3CC0
FCC0
C0C0
2378
3F78
1C00
ENDCHAR
STARTCHAR 3088
ENCODING 12424
SWIDTH 1000 0
DWIDTH 24 0
BBX 13 22 7 -2
BITMAP
0600
0600
0600
07C0
07C0
0600
0600
0600
0600
0700
0300
0300
0300
0300
00C0
3EC0
3EC0
C3E0
C3F8
C378
3E00
3E00
ENDCHAR
STARTCHAR 3089
ENCODING 12425
SWIDTH 1000 0
DWIDTH 24 0
BBX 11 20 9 -2
BITMAP
1C00
1F00
0F00
7800
F800
C000
C000
C000
C000
C000
DF80
DF80
F9E0
F9E0
0060
01E0
0FE0
0F80
7800
7800
ENDCHAR
STARTCHAR 308A
ENCODING 12426
SWIDTH 1000 0
DWIDTH 24 0
BBX 11 20 6 -2
BITMAP
6000
6000
6000
6000
6E00
6E00
7B80
7B80
7980
F860
F860
6060
0060
0060
0180
0180
0180
0200
0C00
0C00
ENDCHAR
STARTCHAR 308B
ENCODING 12427
SWIDTH 1000 0
DWIDTH 24 0
BBX 17 20 4 -2
BITMAP
63E000
7FE000
1C6000
018000
018000
018000
030000
037C00
037C00
0F8600
0F8600
1C0180
7C0180
780180
E1E180
033600
03BE00
018C00
007000
007000
ENDCHAR
STARTCHAR 308C
ENCODING 12428
SWIDTH 1000 0
DWIDTH 24 0
BBX 22 20 1 0
BITMAP
060000
060000
060000
060F00
060F00
3F1980
3F7980
066180
066180
36E380
36C300
370300
3F0300
1E0300
1E0300
3E030C
36030C
DE01B0
DE01F0
060060
ENDCHAR
STARTCHAR 308D
ENCODING 12429
SWIDTH 1000 0
DWIDTH 24 0
BBX 17 20 4 -2
BITMAP
63E000
7FE000
1C6000
018000
018000
018000
030000
037C00
037C00
0F8600
1F8780
1C0780
780180
780180
E00780
E00780
000600
000C00
003000
003000
ENDCHAR
STARTCHAR 308E
ENCODING 12430
SWIDTH 1000 0
DWIDTH 24 0
BBX 16 17 4 1
BITMAP
3000
3000
1800
1800
1800
3E00
3EE0
18E0
1B1C
1F1F
1E03
3803
F80F
D80C
3818
3818
1800
ENDCHAR
STARTCHAR 308F
ENCODING 12431
SWIDTH 1000 0
DWIDTH 24 0
BBX 17 18 4 0
BITMAP
300000
380000
180000
180000
FF0000
FF0000
181C00
18FF00
18E300
1B0180
1F0180
1E0180
380300
F80F00
D80C00
381800
381800
180000
ENDCHAR
STARTCHAR 3090
ENCODING 12432
SWIDTH 1000 0
DWIDTH 24 0
BBX 20 19 1 -2
BITMAP
3FC000
3FC000
330000
330F00
030F00
037180
03F1E0
03C060
070070
1F0070
1E0030
360070
F60F70
C60F60
363060
3E3DE0
180D80
000300
000300
ENDCHAR
STARTCHAR 3091
ENCODING 12433
SWIDTH 1000 0
DWIDTH 24 0
BBX 17 20 4 -2
BITMAP
07E000
07E000
008000
037000
037000
078C00
1F8C00
180C00
00B000
036000
03E000
008000
070000
1F0C00
180C00
343300
FF7380
DB6380
008C00
008C00
ENDCHAR
STARTCHAR 3092
ENCODING 12434
SWIDTH 1000 0
DWIDTH 24 0
BBX 17 21 4 -2
BITMAP
020000
020000
020000
1FC000
1FC000
020000
0C1E00
183180
7EF780
7EC600
E3B800
E3F800
01C000
0F8000
1F8000
198000
618000
799800
181800
0FF000
0FF000
ENDCHAR
STARTCHAR 3093
ENCODING 12435
SWIDTH 1000 0
DWIDTH 24 0
BBX 17 18 4 0
BITMAP
030000
030000
030000
060000
060000
060000
18E000
1BF800
1B1800
1E1800
1E1800
181800
301800
301800
301800
C00D80
C00F80
C00300
ENDCHAR
STARTCHAR 30A1
ENCODING 12449
SWIDTH 1000 0
DWIDTH 24 0
BBX 13 16 6 1
BITMAP
FFF8
FFF8
0038
0DF8
0DC0
0F00
0F00
0C00
0C00
0C00
1800
1800
1800
6000
C000
C000
ENDCHAR
STARTCHAR 30A2
ENCODING 12450
SWIDTH 1000 0
DWIDTH 24 0
BBX 18 22 4 -2
BITMAP
FFFFC0
FFFFC0
000180
008F80
008E00
00F800
00F800
008000
008000
008000
008000
038000
038000
030000
040000
040000
040000
180000
380000
200000
C00000
C00000
ENDCHAR
STARTCHAR 30A3
ENCODING 12451
SWIDTH 1000 0
DWIDTH 24 0
BBX 10 16 6 1
BITMAP
01C0
01C0
0F00
7F00
7C00
CC00
CC00
0C00
0C00
0C00
0C00
0C00
0C00
0C00
0C00
0C00
ENDCHAR
STARTCHAR 30A4
ENCODING 12452
SWIDTH 1000 0
DWIDTH 24 0
BBX 18 22 3 -2
BITMAP
001FC0
001FC0
01F800
1FF800
1FC000
E0C000
E0C000
00C000
00C000
00C000
00C000
00C000
00C000
00C000
00C000
00C000
00C000
00C000
00C000
00C000
00C000
00C000
ENDCHAR
STARTCHAR 30A5
ENCODING 12453
SWIDTH 1000 0
DWIDTH 24 0
BBX 14 17 6 1
BITMAP
0300
0300
0300
FFFC
FFFC
C00C
C00C
C00C
0030
0030
0030
0060
0180
0380
0300
0C00
0C00
ENDCHAR
STARTCHAR 30A6
ENCODING 12454
SWIDTH 1000 0
DWIDTH 24 0
BBX 17 22 6 -2
BITMAP
018000
018000
018000
FFFF80
FFFF80
C00180
C00180
C00600
000600
000600
000C00
000C00
000C00
003000
003000
003000
006000
018000
038000
030000
0C0000
0C0000
ENDCHAR
STARTCHAR 30A7
ENCODING 12455
SWIDTH 1000 0
DWIDTH 24 0
BBX 17 11 4 4
BITMAP
1FFC00
1FFC00
00C000
00C000
00C000
00C000
00C000
00C000
00C000
FFFF80
FFFF80
ENDCHAR
STARTCHAR 30A8
ENCODING 12456
SWIDTH 1000 0
DWIDTH 24 0
BBX 20 14 3 3
BITMAP
1FFF80
1FFF80
006000
006000
006000
006000
006000
006000
006000
006000
006000
006000
FFFFF0
FFFFF0
ENDCHAR
STARTCHAR 30A9
ENCODING 12457
SWIDTH 1000 0
DWIDTH 24 0
BBX 14 15 6 1
BITMAP
0060
0060
0060
FFFC
01E0
03E0
0360
0C60
0C60
1860
6360
6360
C1E0
0060
0060
ENDCHAR
STARTCHAR 30AA
ENCODING 12458
SWIDTH 1000 0
DWIDTH 24 0
BBX 18 21 4 -2
BITMAP
000C00
000C00
000C00
000C00
FFFFC0
FFFFC0
001C00
006C00
006C00
008C00
030C00
030C00
040C00
180C00
180C00
200C00
C06C00
C06C00
001C00
000C00
000C00
ENDCHAR
STARTCHAR 30AB
ENCODING 12459
SWIDTH 1000 0
DWIDTH 24 0
BBX 17 22 3 -2
BITMAP
018000
018000
018000
018000
018000
FFFF80
FFFF80
018180
018180
018180
018180
030180
030180
030180
0C0600
0C0600
0C0600
180600
786E00
606C00
C03000
C03000
ENDCHAR
STARTCHAR 30AC
ENCODING 12460
SWIDTH 1000 0
DWIDTH 24 0
BBX 20 23 3 -2
BITMAP
000180
0181F0
0180F0
018180
0181F0
0180F0
FFFF80
FFFF80
018180
018180
018180
018180
030180
030180
030180
0C0600
0C0600
0C0600
180600
786E00
606C00
C03000
C03000
ENDCHAR
STARTCHAR 30AD
ENCODING 12461
SWIDTH 1000 0
DWIDTH 24 0
BBX 14 19 6 0
BITMAP
1800
1800
1C00
0C00
0FFC
FFFC
FF00
0300
0300
0300
03FC
FFFC
FF80
0180
0180
0180
0060
0060
0060
ENDCHAR
STARTCHAR 30AE
ENCODING 12462
SWIDTH 1000 0
DWIDTH 24 0
BBX 17 21 6 0
BITMAP
000C00
180F80
180780
180C00
1C0F80
0C0780
0FFC00
FFFC00
FF0000
030000
030000
030000
03FC00
FFFC00
FF8000
018000
018000
018000
006000
006000
006000
ENDCHAR
STARTCHAR 30AF
ENCODING 12463
SWIDTH 1000 0
DWIDTH 24 0
BBX 14 21 4 -2
BITMAP
0600
0600
1E00
1800
1FFC
1FFC
180C
3018
F018
C018
0060
00E0
00C0
0300
0700
0600
1800
3800
3000
C000
C000
ENDCHAR
STARTCHAR 30B0
ENCODING 12464
SWIDTH 1000 0
DWIDTH 24 0
BBX 18 23 4 -2
BITMAP
000200
000200
0601C0
0603C0
1E03C0
1801C0
1FFC00
1FFC00
180C00
301800
F01800
C01800
006000
00E000
00C000
030000
070000
060000
180000
380000
300000
C00000
C00000
ENDCHAR
STARTCHAR 30B1
ENCODING 12465
SWIDTH 1000 0
DWIDTH 24 0
BBX 16 20 4 0
BITMAP
0300
0300
0600
1E00
1800
37FF
F7FF
C060
0060
00E0
00C0
00C0
03C0
0300
0600
1E00
1800
3000
F000
C000
ENDCHAR
STARTCHAR 30B2
ENCODING 12466
SWIDTH 1000 0
DWIDTH 24 0
BBX 19 21 4 0
BITMAP
000300
0303E0
0301E0
060000
1E01E0
1801E0
37FF00
F7FF00
C06000
006000
00E000
00C000
00C000
03C000
030000
060000
1E0000
180000
300000
F00000
C00000
ENDCHAR
STARTCHAR 30B3
ENCODING 12467
SWIDTH 1000 0
DWIDTH 24 0
BBX 18 12 3 3
BITMAP
7FFF80
7FFF80
000180
000180
000180
000180
000180
000180
000180
000180
FFFFC0
FFFFC0
ENDCHAR
STARTCHAR 30B4
ENCODING 12468
SWIDTH 1000 0
DWIDTH 24 0
BBX 20 18 3 3
BITMAP
000180
0001F0
0000F0
000180
0001F0
0000F0
7FFF80
7FFF80
000180
000180
000180
000180
000180
000180
000180
000180
FFFFC0
FFFFC0
ENDCHAR
STARTCHAR 30B5
ENCODING 12469
SWIDTH 1000 0
DWIDTH 24 0
BBX 20 21 3 -2
BITMAP
000C00
030C00
030C00
030C00
030C00
030C00
FFFFF0
FFFFF0
030C00
030C00
030C00
030C00
030C00
030C00
000C00
000C00
000C00
000C00
003000
006000
006000
ENDCHAR
STARTCHAR 30B6
ENCODING 12470
SWIDTH 1000 0
DWIDTH 24 0
BBX 20 23 3 -2
BITMAP
000180
000180
000CF0
030DF0
030D80
030CF0
030CF0
030C00
FFFFF0
FFFFF0
030C00
030C00
030C00
030C00
030C00
030C00
000C00
000C00
000C00
000C00
003000
006000
006000
ENDCHAR
STARTCHAR 30B7
ENCODING 12471
SWIDTH 1000 0
DWIDTH 24 0
BBX 17 20 4 -2
BITMAP
780000
7C0000
1C0000
000000
000180
000180
780600
7C0E00
1C0C00
003000
007000
006000
018000
038000
030000
0C0000
7C0000
780000
E00000
E00000
ENDCHAR
STARTCHAR 30B8
ENCODING 12472
SWIDTH 1000 0
DWIDTH 24 0
BBX 18 23 4 -2
BITMAP
000600
0007C0
0001C0
780600
7C07C0
1C01C0
000000
000180
000180
780600
7C0E00
1C0C00
003000
007000
006000
018000
038000
030000
0C0000
7C0000
780000
E00000
E00000
ENDCHAR
STARTCHAR 30B9
ENCODING 12473
SWIDTH 1000 0
DWIDTH 24 0
BBX 17 16 4 1
BITMAP
3FFF00
3FFF00
000C00
001C00
001800
006000
00E000
00C000
036000
077800
061800
180C00
380F00
300300
C00180
C00180
ENDCHAR
STARTCHAR 30BA
ENCODING 12474
SWIDTH 1000 0
DWIDTH 24 0
BBX 18 20 4 1
BITMAP
000200
0003C0
0001C0
000200
3FFFC0
3FFDC0
000C00
001C00
001800
006000
00E000
00C000
036000
077800
061800
180C00
380E00
300200
C00180
C00180
ENDCHAR
STARTCHAR 30BB
ENCODING 12475
SWIDTH 1000 0
DWIDTH 24 0
BBX 18 17 3 1
BITMAP
030000
030000
030000
037FC0
FFFFC0
FF80C0
030180
030780
030600
030000
030000
030000
030000
030000
030000
03FE00
03FE00
ENDCHAR
STARTCHAR 30BC
ENCODING 12476
SWIDTH 1000 0
DWIDTH 24 0
BBX 19 20 3 1
BITMAP
000100
0001E0
0000E0
030100
0301E0
0300E0
037FC0
FFFFC0
FF80C0
030100
030700
030600
030000
030000
030000
030000
030000
030000
03FE00
03FE00
ENDCHAR
STARTCHAR 30BD
ENCODING 12477
SWIDTH 1000 0
DWIDTH 24 0
BBX 12 20 6 -2
BITMAP
0030
0030
0030
C030
E030
E030
6060
6060
0060
0060
01E0
0180
0300
0F00
0C00
1800
7800
6000
C000
C000
ENDCHAR
STARTCHAR 30BE
ENCODING 12478
SWIDTH 1000 0
DWIDTH 24 0
BBX 17 23 6 -2
BITMAP
000C00
000F80
000780
000C00
003F80
003780
C03000
E03000
E03000
606000
606000
006000
006000
01E000
018000
030000
0F0000
0C0000
180000
780000
600000
C00000
C00000
ENDCHAR
STARTCHAR 30BF
ENCODING 12479
SWIDTH 1000 0
DWIDTH 24 0
BBX 14 21 4 -2
BITMAP
0600
0600
1E00
1800
1FFC
1FFC
180C
3018
F618
C618
0360
03E0
00C0
0360
0778
0618
1800
3800
3000
C000
C000
ENDCHAR
STARTCHAR 30C0
ENCODING 12480
SWIDTH 1000 0
DWIDTH 24 0
BBX 18 23 4 -2
BITMAP
000200
000200
0601C0
0603C0
1E03C0
1801C0
1FFC00
1FFC00
180C00
301800
F61800
C61800
036000
03E000
00C000
036000
077800
061800
180000
380000
300000
C00000
C00000
ENDCHAR
STARTCHAR 30C1
ENCODING 12481
SWIDTH 1000 0
DWIDTH 24 0
BBX 18 20 3 -2
BITMAP
007E00
1FFE00
1F8000
006000
006000
006000
006000
FFFFC0
FFFFC0
006000
006000
018000
018000
018000
030000
0C0000
1C0000
180000
600000
600000
ENDCHAR
STARTCHAR 30C2
ENCODING 12482
SWIDTH 1000 0
DWIDTH 24 0
BBX 20 23 3 -2
BITMAP
000180
0001F0
0000F0
007D80
1FFDF0
1F80F0
006000
006000
006000
006000
FFFFC0
FFFFC0
006000
006000
018000
018000
018000
030000
0C0000
1C0000
180000
600000
600000
ENDCHAR
STARTCHAR 30C3
ENCODING 12483
SWIDTH 1000 0
DWIDTH 24 0
BBX 10 14 7 1
BITMAP
00C0
00C0
D8C0
D8C0
D8C0
0300
0300
0300
0600
1800
3800
3000
C000
C000
ENDCHAR
STARTCHAR 30C4
ENCODING 12484
SWIDTH 1000 0
DWIDTH 24 0
BBX 16 17 4 0
BITMAP
C303
C303
F3C3
F3CF
30CC
0018
0078
0060
00C0
03C0
0300
0600
1E00
1800
3000
F000
C000
ENDCHAR
STARTCHAR 30C5
ENCODING 12485
SWIDTH 1000 0
DWIDTH 24 0
BBX 18 21 4 0
BITMAP
000200
0003C0
0001C0
000200
C303C0
C303C0
F3C200
F3CE00
30CC00
001800
007800
006000
00C000
03C000
030000
060000
1E0000
180000
300000
F00000
C00000
ENDCHAR
STARTCHAR 30C6
ENCODING 12486
SWIDTH 1000 0
DWIDTH 24 0
BBX 18 20 3 -2
BITMAP
1FFE00
1FFE00
000000
000000
000000
000000
FFFFC0
FFFFC0
006000
006000
006000
018000
018000
018000
030000
0C0000
1C0000
180000
600000
600000
ENDCHAR
STARTCHAR 30C7
ENCODING 12487
SWIDTH 1000 0
DWIDTH 24 0
BBX 20 23 3 -2
BITMAP
000180
0001F0
0000F0
1FFD80
1FFDF0
0000F0
000000
000000
000000
FFFFC0
FFFFC0
006000
006000
006000
018000
018000
018000
030000
0C0000
1C0000
180000
600000
600000
ENDCHAR
STARTCHAR 30C8
ENCODING 12488
SWIDTH 1000 0
DWIDTH 24 0
BBX 8 21 9 -2
BITMAP
C0
C0
C0
C0
C0
C0
E0
F8
D8
CC
CF
C3
C0
C0
C0
C0
C0
C0
C0
C0
C0
ENDCHAR
STARTCHAR 30C9
ENCODING 12489
SWIDTH 1000 0
DWIDTH 24 0
BBX 14 23 9 -2
BITMAP
0060
0060
C03C
C07C
C060
C03C
C03C
C000
E000
F800
D800
CC00
CF00
C300
C000
C000
C000
C000
C000
C000
C000
C000
C000
ENDCHAR
STARTCHAR 30CA
ENCODING 12490
SWIDTH 1000 0
DWIDTH 24 0
BBX 20 20 3 -2
BITMAP
006000
006000
006000
006000
006000
006000
FFFFF0
FFFFF0
006000
006000
006000
018000
018000
018000
030000
0C0000
1C0000
180000
600000
600000
ENDCHAR
STARTCHAR 30CB
ENCODING 12491
SWIDTH 1000 0
DWIDTH 24 0
BBX 20 13 3 4
BITMAP
1FFF80
1FFF80
000000
000000
000000
000000
000000
000000
000000
000000
000000
FFFFF0
FFFFF0
ENDCHAR
STARTCHAR 30CC
ENCODING 12492
SWIDTH 1000 0
DWIDTH 24 0
BBX 16 19 4 -2
BITMAP
3FFF
3FFF
000C
000C
000C
1818
1E18
0618
0360
03E0
00C0
0360
0778
0618
1800
3800
3000
C000
C000
ENDCHAR
STARTCHAR 30CD
ENCODING 12493
SWIDTH 1000 0
DWIDTH 24 0
BBX 17 22 3 -2
BITMAP
030000
030000
018000
01E000
006000
1FF000
1FF000
006000
018000
018000
036C00
0F6E00
0C6600
186180
786180
606000
C06000
C06000
006000
006000
006000
006000
ENDCHAR
STARTCHAR 30CE
ENCODING 12494
SWIDTH 1000 0
DWIDTH 24 0
BBX 14 15 4 3
BITMAP
000C
001C
001C
0078
0078
0060
00C0
03C0
0300
0600
1E00
1800
3000
F000
C000
ENDCHAR
STARTCHAR 30CF
ENCODING 12495
SWIDTH 1000 0
DWIDTH 24 0
BBX 18 13 3 4
BITMAP
018000
018000
038000
038C00
030C00
0C0600
0C0600
0C0180
1C0180
180180
6000C0
C00000
C00000
ENDCHAR
STARTCHAR 30D0
ENCODING 12496
SWIDTH 1000 0
DWIDTH 24 0
BBX 20 17 3 4
BITMAP
000180
0001F0
0000F0
000180
0181F0
0180F0
038000
038C00
030C00
0C0600
0C0600
0C0180
1C0180
180180
6000C0
C00000
C00000
ENDCHAR
STARTCHAR 30D1
ENCODING 12497
SWIDTH 1000 0
DWIDTH 24 0
BBX 20 16 3 4
BITMAP
0000C0
0000C0
0001B0
0181F0
0180C0
038000
038C00
030C00
0C0600
0C0600
0C0180
1C0180
180180
6000C0
C00000
C00000
ENDCHAR
STARTCHAR 30D2
ENCODING 12498
SWIDTH 1000 0
DWIDTH 24 0
BBX 9 17 9 1
BITMAP
C000
C000
C000
C380
DF80
DC00
E000
E000
C000
C000
C000
C000
C000
C000
C000
7F80
7F80
ENDCHAR
STARTCHAR 30D3
ENCODING 12499
SWIDTH 1000 0
DWIDTH 24 0
BBX 14 20 9 1
BITMAP
0060
007C
003C
C060
C07C
C03C
C380
DF80
DC00
E000
E000
C000
C000
C000
C000
C000
C000
C000
7F80
7F80
ENDCHAR
STARTCHAR 30D4
ENCODING 12500
SWIDTH 1000 0
DWIDTH 24 0
BBX 14 19 9 1
BITMAP
0030
0030
C06C
C07C
C030
C380
DF80
DC00
E000
E000
C000
C000
C000
C000
C000
C000
C000
7F80
7F80
ENDCHAR
STARTCHAR 30D5
ENCODING 12501
SWIDTH 1000 0
DWIDTH 24 0
BBX 16 17 4 0
BITMAP
FFFF
FFFF
0003
000F
000C
0018
0078
0060
00C0
03C0
0300
0600
1E00
1800
3000
F000
C000
ENDCHAR
STARTCHAR 30D6
ENCODING 12502
SWIDTH 1000 0
DWIDTH 24 0
BBX 18 21 4 0
BITMAP
000200
0003C0
0001C0
000200
FFFFC0
FFFDC0
000200
000E00
000C00
001800
007800
006000
00C000
03C000
030000
060000
1E0000
180000
300000
F00000
C00000
ENDCHAR
STARTCHAR 30D7
ENCODING 12503
SWIDTH 1000 0
DWIDTH 24 0
BBX 19 20 4 0
BITMAP
000060
000060
000180
FFFFE0
FFFF60
000300
000F00
000C00
001800
007800
006000
00C000
03C000
030000
060000
1E0000
180000
300000
F00000
C00000
ENDCHAR
STARTCHAR 30D8
ENCODING 12504
SWIDTH 1000 0
DWIDTH 24 0
BBX 17 13 4 1
BITMAP
060000
060000
1B0000
3BC000
30C000
C06000
C07800
001800
000C00
000F00
000300
000180
000180
ENDCHAR
STARTCHAR 30D9
ENCODING 12505
SWIDTH 1000 0
DWIDTH 24 0
BBX 18 20 4 1
BITMAP
000200
0003C0
0001C0
000200
0003C0
0001C0
000000
060000
060000
1B0000
3BC000
30C000
C06000
C07800
001800
000C00
000E00
000200
000180
000180
ENDCHAR
STARTCHAR 30DA
ENCODING 12506
SWIDTH 1000 0
DWIDTH 24 0
BBX 17 19 4 1
BITMAP
000180
000180
000300
000380
000180
000000
060000
060000
1B0000
3BC000
30C000
C06000
C07800
001800
000C00
000F00
000300
000180
000180
ENDCHAR
STARTCHAR 30DB
ENCODING 12507
SWIDTH 1000 0
DWIDTH 24 0
BBX 20 18 3 0
BITMAP
006000
006000
006000
FFFFF0
FFFFF0
01F000
036C00
0F6E00
0C6600
186180
7861C0
6060C0
C06030
C36030
036000
01E000
01E000
006000
ENDCHAR
STARTCHAR 30DC
ENCODING 12508
SWIDTH 1000 0
DWIDTH 24 0
BBX 20 21 3 0
BITMAP
000180
0001F0
0000F0
006180
0061F0
0060F0
006000
FFFFF0
FFFFF0
036C00
0F6E00
0C6600
186180
7861C0
6060C0
C06030
C36030
036000
01E000
01E000
006000
ENDCHAR
STARTCHAR 30DD
ENCODING 12509
SWIDTH 1000 0
DWIDTH 24 0
BBX 21 20 3 0
BITMAP
000030
000030
0060D8
0060F8
006030
006000
FFFFF0
FFFFF0
036C00
0F6E00
0C6600
186180
7861C0
6060C0
C06030
C36030
036000
01E000
01E000
006000
ENDCHAR
STARTCHAR 30DE
ENCODING 12510
SWIDTH 1000 0
DWIDTH 24 0
BBX 17 14 4 1
BITMAP
FFFF80
FFFF80
000300
000C00
001C00
001800
006000
06E000
06C000
030000
03C000
00C000
006000
006000
ENDCHAR
STARTCHAR 30DF
ENCODING 12511
SWIDTH 1000 0
DWIDTH 24 0
BBX 15 17 4 1
BITMAP
3C00
3FF0
03F0
0000
0000
0000
3C00
3FF0
03F0
0000
C000
C000
3C00
3FF0
03F0
000E
000E
ENDCHAR
STARTCHAR 30E0
ENCODING 12512
SWIDTH 1000 0
DWIDTH 24 0
BBX 19 17 4 1
BITMAP
006000
006000
00E000
00E000
00C000
030000
030000
030000
060000
060000
060000
180C00
300300
FFFF80
FFFD80
000060
000060
ENDCHAR
STARTCHAR 30E1
ENCODING 12513
SWIDTH 1000 0
DWIDTH 24 0
BBX 16 18 4 0
BITMAP
0003
0003
000F
000F
000C
1818
0618
07F8
03E0
00C0
03E0
0360
0618
1E18
1800
3000
F000
C000
ENDCHAR
STARTCHAR 30E2
ENCODING 12514
SWIDTH 1000 0
DWIDTH 24 0
BBX 18 16 3 1
BITMAP
0FFE00
0FFE00
006000
006000
006000
006000
006000
006000
FFFFC0
FFFFC0
006000
006000
006000
006000
007F80
007F80
ENDCHAR
STARTCHAR 30E3
ENCODING 12515
SWIDTH 1000 0
DWIDTH 24 0
BBX 14 16 6 1
BITMAP
1800
1800
1800
FFFC
FFFC
0C0C
0C3C
0C30
0300
0300
0300
0180
0180
0180
0180
0180
ENDCHAR
STARTCHAR 30E4
ENCODING 12516
SWIDTH 1000 0
DWIDTH 24 0
BBX 17 18 4 0
BITMAP
180000
180000
180000
FFFF80
FFFF80
060300
060C00
060C00
060000
030000
030000
030000
030000
03C000
00C000
00C000
00C000
00C000
ENDCHAR
STARTCHAR 30E5
ENCODING 12517
SWIDTH 1000 0
DWIDTH 24 0
BBX 15 9 4 6
BITMAP
1FF0
1FF0
0010
0010
0010
0010
0010
FFFE
FFFE
ENDCHAR
STARTCHAR 30E6
ENCODING 12518
SWIDTH 1000 0
DWIDTH 24 0
BBX 20 11 3 4
BITMAP
7FFE00
7FFE00
000600
000600
000600
000600
000C00
000C00
000000
FFFFF0
FFFFF0
ENDCHAR
STARTCHAR 30E7
ENCODING 12519
SWIDTH 1000 0
DWIDTH 24 0
BBX 11 14 7 3
BITMAP
FFE0
FFE0
0060
0060
0060
0060
FFE0
FFE0
0060
0060
0060
0060
FFE0
FFE0
ENDCHAR
STARTCHAR 30E8
ENCODING 12520
SWIDTH 1000 0
DWIDTH 24 0
BBX 17 18 4 0
BITMAP
FFFF80
FFFF80
000180
000180
000180
000180
000180
FFFF80
FFFF80
000180
000180
000180
000180
000180
000180
000180
FFFF80
FFFF80
ENDCHAR
STARTCHAR 30E9
ENCODING 12521
SWIDTH 1000 0
DWIDTH 24 0
BBX 17 20 4 -2
BITMAP
1FFC00
1FFC00
000000
000000
FFFF80
FFFF80
000300
000F00
000C00
001800
007800
006000
00C000
03C000
030000
060000
1E0000
180000
300000
300000
ENDCHAR
STARTCHAR 30EA
ENCODING 12522
SWIDTH 1000 0
DWIDTH 24 0
BBX 8 21 7 -2
BITMAP
03
03
03
C3
C3
C3
C3
C3
C3
C3
C3
C3
C3
C3
03
06
18
38
30
C0
C0
ENDCHAR
STARTCHAR 30EB
ENCODING 12523
SWIDTH 1000 0
DWIDTH 24 0
BBX 18 21 3 -2
BITMAP
003000
0C3000
0C3000
0C3000
0C3000
0C3000
0C3000
0C3000
0C3000
0C3000
0C3000
0C3000
0C3000
1C30C0
1830C0
183180
783780
603600
603C00
E03C00
C03000
ENDCHAR
STARTCHAR 30EC
ENCODING 12524
SWIDTH 1000 0
DWIDTH 24 0
BBX 15 18 6 0
BITMAP
6000
6000
6000
6000
6006
6006
600C
603C
6030
6060
61E0
6180
6300
6F00
6C00
7800
F800
E000
ENDCHAR
STARTCHAR 30ED
ENCODING 12525
SWIDTH 1000 0
DWIDTH 24 0
BBX 15 16 6 1
BITMAP
FFFE
FFFE
C006
C006
C006
C006
C006
C006
C006
C006
C006
C006
C006
C006
FFFE
FFFE
ENDCHAR
STARTCHAR 30EE
ENCODING 12526
SWIDTH 1000 0
DWIDTH 24 0
BBX 14 14 6 1
BITMAP
FFFC
FFFC
C00C
C00C
C00C
0030
0030
0030
0060
0180
0380
0300
0C00
0C00
ENDCHAR
STARTCHAR 30EF
ENCODING 12527
SWIDTH 1000 0
DWIDTH 24 0
BBX 17 19 6 -2
BITMAP
FFFF80
FFFF80
C00180
C00180
C00600
000600
000600
000C00
000C00
000C00
003000
003000
003000
006000
018000
038000
030000
0C0000
0C0000
ENDCHAR
STARTCHAR 30F0
ENCODING 12528
SWIDTH 1000 0
DWIDTH 24 0
BBX 20 20 3 0
BITMAP
006000
006000
006000
006000
006000
1FFE00
1FFE00
186000
186000
186000
186000
186000
FFFFF0
FFFFF0
006000
006000
006000
006000
006000
006000
ENDCHAR
STARTCHAR 30F1
ENCODING 12529
SWIDTH 1000 0
DWIDTH 24 0
BBX 20 14 3 3
BITMAP
1FFF80
1FFF80
000600
000E00
000C00
007000
007000
006000
006000
006000
006000
006000
FFFFF0
FFFFF0
ENDCHAR
STARTCHAR 30F2
ENCODING 12530
SWIDTH 1000 0
DWIDTH 24 0
BBX 16 18 4 0
BITMAP
FFFF
FFFF
0003
FFFF
FFFF
000C
0018
0078
0060
00C0
03C0
0300
0600
1E00
1800
3000
F000
C000
ENDCHAR
STARTCHAR 30F3
ENCODING 12531
SWIDTH 1000 0
DWIDTH 24 0
BBX 17 19 4 -2
BITMAP
780000
780000
1C0000
1C0180
000180
000600
000E00
000C00
003000
007000
006000
018000
038000
030000
0C0000
7C0000
780000
E00000
E00000
ENDCHAR
STARTCHAR 30F4
ENCODING 12532
SWIDTH 1000 0
DWIDTH 24 0
BBX 18 23 6 -2
BITMAP
000600
0007C0
0001C0
018600
0187C0
0181C0
FFFF80
FFFF80
C00600
000600
000600
000C00
000C00
000C00
003000
003000
003000
006000
018000
038000
030000
0C0000
0C0000
ENDCHAR
STARTCHAR 30F5
ENCODING 12533
SWIDTH 1000 0
DWIDTH 24 0
BBX 13 15 7 3
BITMAP
0600
0600
0600
FFF8
FFF8
0618
0618
0618
0618
1818
1818
1818
30D8
F0F8
C060
ENDCHAR
STARTCHAR 30F6
ENCODING 12534
SWIDTH 1000 0
DWIDTH 24 0
BBX 12 16 6 1
BITMAP
0C00
0C00
1800
1FF0
1FF0
6180
E180
C180
0300
0300
0300
0C00
1C00
1800
6000
6000
ENDCHAR
STARTCHAR 30FB
ENCODING 12539
SWIDTH 1000 0
DWIDTH 24 0
BBX 6 6 9 6
BITMAP
78
FC
FC
FC
FC
78
ENDCHAR
STARTCHAR 3105
ENCODING 12549
SWIDTH 1000 0
DWIDTH 24 0
BBX 19 22 2 -3
BITMAP
060000
0E0000
3E0000
380000
FFFFE0
FFFFE0
0003E0
0001E0
0001E0
0001E0
0001E0
0001E0
0001E0
0001E0
0001E0
0001E0
000180
000180
00E380
007F00
007F00
001C00
ENDCHAR
STARTCHAR 3106
ENCODING 12550
SWIDTH 1000 0
DWIDTH 24 0
BBX 18 21 3 -2
BITMAP
020000
0E0000
1E0000
1C0000
7FFFC0
7FFFC0
0003C0
0003C0
0007C0
000700
01C700
01FF00
00FE00
003800
003800
00FE00
01FF00
01C700
0E0300
F80000
F80000
ENDCHAR
STARTCHAR 3107
ENCODING 12551
SWIDTH 1000 0
DWIDTH 24 0
BBX 18 12 3 3
BITMAP
FFFFC0
FFFFC0
E001C0
E001C0
E001C0
E001C0
E001C0
E001C0
E001C0
E001C0
E001C0
E001C0
ENDCHAR
STARTCHAR 3108
ENCODING 12552
SWIDTH 1000 0
DWIDTH 24 0
BBX 18 18 3 0
BITMAP
FFFF80
FFFF80
780000
780000
780000
780000
780000
780000
780000
780000
780000
780000
780000
780000
780000
780000
7FFFC0
1FFFC0
ENDCHAR
STARTCHAR 3109
ENCODING 12553
SWIDTH 1000 0
DWIDTH 24 0
BBX 18 22 3 -3
BITMAP
030000
0F0000
1F0000
1C0000
7FFFC0
7FFFC0
01C1C0
01C1C0
01C1C0
01C1C0
01C1C0
03C1C0
0381C0
0381C0
0F81C0
0F01C0
0C0180
0C0180
19C780
E07E00
E07E00
003800
ENDCHAR
STARTCHAR 310A
ENCODING 12554
SWIDTH 1000 0
DWIDTH 24 0
BBX 21 20 1 0
BITMAP
006000
006000
007800
007800
007800
007800
FFFFF8
FFFFF8
007800
007800
007800
006000
006000
00E000
03C000
07C180
070180
1FFFC0
1FFFF0
000070
ENDCHAR
STARTCHAR 310B
ENCODING 12555
SWIDTH 1000 0
DWIDTH 24 0
BBX 19 21 2 -3
BITMAP
FFFC00
FFFC00
001C00
007800
00F800
00E000
03FFE0
03FFE0
0001E0
0001E0
0001E0
0001E0
0001E0
0001E0
0001E0
000180
000180
00E380
007F00
007F00
001C00
ENDCHAR
STARTCHAR 310C
ENCODING 12556
SWIDTH 1000 0
DWIDTH 24 0
BBX 18 23 3 -3
BITMAP
018000
018000
11E000
11E000
11E000
71E000
7FFFC0
7FFFC0
01E1C0
01E1C0
01E1C0
01E1C0
01E1C0
01E1C0
0781C0
0781C0
0781C0
0E01C0
0E01C0
1C0180
703780
F03F80
E00E00
ENDCHAR
STARTCHAR 310D
ENCODING 12557
SWIDTH 1000 0
DWIDTH 24 0
BBX 14 20 4 -2
BITMAP
071C
071C
0618
1E78
1E78
1860
38E0
38E0
30C0
F3C0
F3C0
30C0
38E0
38E0
1860
1E78
1E78
0618
071C
071C
ENDCHAR
STARTCHAR 310E
ENCODING 12558
SWIDTH 1000 0
DWIDTH 24 0
BBX 20 21 1 -3
BITMAP
FFFFF0
FFFFF0
00E000
00E000
03E000
03C000
070000
1FFFE0
1FFFE0
0001E0
0001E0
0001E0
0001E0
0001E0
0001E0
0001E0
0001E0
000180
001B80
001F80
000F00
ENDCHAR
STARTCHAR 310F
ENCODING 12559
SWIDTH 1000 0
DWIDTH 24 0
BBX 21 20 0 -2
BITMAP
1FFFF8
1FFFF8
0F0000
0F0000
0F0000
0F0000
0F0000
0F0000
0F0000
0F0000
0F0000
0F0000
0F0000
0F0000
0C0000
0C0000
1C0000
180000
E00000
E00000
ENDCHAR
STARTCHAR 3110
ENCODING 12560
SWIDTH 1000 0
DWIDTH 24 0
BBX 12 23 6 -3
BITMAP
0060
0060
6070
6070
7870
7870
7870
7870
7870
7870
6070
E1F0
E3F0
E370
FC70
FC70
0070
0070
0070
0070
0070
0070
0070
ENDCHAR
STARTCHAR 3111
ENCODING 12561
SWIDTH 1000 0
DWIDTH 24 0
BBX 9 21 7 -2
BITMAP
0F00
0F00
0F00
0C00
1C00
1C00
1800
3800
F800
E000
3800
3800
1800
1C00
1C00
0C00
0F00
0F00
0380
0380
0380
ENDCHAR
STARTCHAR 3112
ENCODING 12562
SWIDTH 1000 0
DWIDTH 24 0
BBX 21 20 1 -2
BITMAP
FFFFF8
FFFFF8
007000
007000
007000
007000
007000
007000
007000
007000
007000
007000
007000
007000
007000
007000
007000
007000
007000
007000
ENDCHAR
STARTCHAR 3113
ENCODING 12563
SWIDTH 1000 0
DWIDTH 24 0
BBX 21 20 1 0
BITMAP
006000
006000
007800
187980
187980
1E79E0
1E79E0
1E79E0
1E79E0
1E79E0
1E79E0
1E79E0
1FFFE0
1FFFE0
007800
007800
007800
007800
FFFFF8
FFFFF8
ENDCHAR
STARTCHAR 3114
ENCODING 12564
SWIDTH 1000 0
DWIDTH 24 0
BBX 12 23 4 -3
BITMAP
00F0
00F0
01C0
07C0
0780
0E00
0E00
1CF0
71C0
F7C0
E780
0F80
1F80
1F80
7780
F780
E780
0780
0780
0780
0780
0780
0780
ENDCHAR
STARTCHAR 3115
ENCODING 12565
SWIDTH 1000 0
DWIDTH 24 0
BBX 21 21 0 -3
BITMAP
0FFFF8
0FFFF8
000038
000038
000038
000038
0FFFF8
0FFFF8
0F0000
0F0000
0F0000
0F0000
0F0000
0F0000
0F0000
0C0000
0C0000
1C0000
180000
F80000
E00000
ENDCHAR
STARTCHAR 3116
ENCODING 12566
SWIDTH 1000 0
DWIDTH 24 0
BBX 12 18 6 0
BITMAP
FFF0
FFF0
E070
E070
E070
E070
FC70
FE70
EE70
E3F0
E3F0
E070
E070
E070
E070
E070
FFF0
FFF0
ENDCHAR
STARTCHAR 3117
ENCODING 12567
SWIDTH 1000 0
DWIDTH 24 0
BBX 17 21 2 -3
BITMAP
FFFF80
FFFF80
070380
070380
070380
070380
070380
070380
070380
070300
076F00
076F00
071C00
071C00
070000
070000
070000
070000
070000
070000
070000
ENDCHAR
STARTCHAR 3118
ENCODING 12568
SWIDTH 1000 0
DWIDTH 24 0
BBX 20 23 1 -3
BITMAP
00C000
00C000
00E000
00E000
00E000
FFFFF0
FFFFF0
03C000
03C000
03C000
03C000
07FFE0
07FFE0
0001E0
0001E0
0001E0
000180
000380
000380
000300
00EC00
00FC00
007800
ENDCHAR
STARTCHAR 3119
ENCODING 12569
SWIDTH 1000 0
DWIDTH 24 0
BBX 18 20 3 0
BITMAP
018000
018000
01E000
01E000
01E000
01E000
01E000
01E000
018000
038000
038000
030000
030000
0F0000
1C3C00
7C3E00
780E00
FFFF80
FFFFC0
0001C0
ENDCHAR
STARTCHAR 311A
ENCODING 12570
SWIDTH 1000 0
DWIDTH 24 0
BBX 16 23 4 -3
BITMAP
E007
E007
701E
3C3E
1C38
0EF0
0FF0
01C0
0780
0780
0780
0780
0780
0780
0780
0780
0780
0780
0780
0780
0780
0780
0780
ENDCHAR
STARTCHAR 311B
ENCODING 12571
SWIDTH 1000 0
DWIDTH 24 0
BBX 21 18 1 0
BITMAP
FFFFF8
FFFFF8
007000
007000
007000
007000
0FE000
1FE000
1C0000
780000
780000
780000
780000
7800F0
7800F0
1C01C0
1FFFC0
0FFF80
ENDCHAR
STARTCHAR 311C
ENCODING 12572
SWIDTH 1000 0
DWIDTH 24 0
BBX 21 22 1 -2
BITMAP
006000
006000
007000
007000
007000
FFFFF8
FFFFF8
007000
007000
0FF000
0FE000
1C0000
7C0000
780000
780000
780000
780000
7800F0
7C01F0
1C01C0
0FFF80
0FFF80
ENDCHAR
STARTCHAR 311D
ENCODING 12573
SWIDTH 1000 0
DWIDTH 24 0
BBX 20 18 1 0
BITMAP
060C00
060C00
070F00
070F00
070F00
FFFFF0
FFFFF0
070F00
070F00
070F00
071F00
071C00
071C00
077C00
077800
070000
07FF80
03FF80
ENDCHAR
STARTCHAR 311E
ENCODING 12574
SWIDTH 1000 0
DWIDTH 24 0
BBX 21 20 1 -2
BITMAP
FFFFF8
FFFFF8
077000
077000
1F7000
1C7000
1FFFF0
1FFFF0
007070
007070
007070
007070
006070
006070
00E070
038060
0781E0
0701E0
1C0380
1C0380
ENDCHAR
STARTCHAR 311F
ENCODING 12575
SWIDTH 1000 0
DWIDTH 24 0
BBX 18 20 3 -2
BITMAP
FF0000
FF0000
0F0000
0F0000
0F0000
0F0000
030000
038000
038000
038000
038000
018000
01E000
01E000
007000
007C00
003E00
000E00
0007C0
0007C0
ENDCHAR
STARTCHAR 3120
ENCODING 12576
SWIDTH 1000 0
DWIDTH 24 0
BBX 16 19 4 0
BITMAP
0600
0700
0700
1E18
1E1C
1E1C
3818
3078
FFF8
FFE0
03C0
03C0
0700
1E78
3E7C
381C
FFFF
FFFF
0003
ENDCHAR
STARTCHAR 3121
ENCODING 12577
SWIDTH 1000 0
DWIDTH 24 0
BBX 15 19 4 -2
BITMAP
FFFE
FFFE
000E
000E
003C
183C
183C
0470
07F0
03F0
01E0
01E0
01E0
03F0
073C
1F3C
1C00
3800
3800
ENDCHAR
STARTCHAR 3122
ENCODING 12578
SWIDTH 1000 0
DWIDTH 24 0
BBX 18 22 3 -2
BITMAP
FFFE00
FFFE00
1C1E00
1C1E00
1C1E00
1C1E00
1C1E00
181800
783800
7FFFC0
7FFFC0
0001C0
0001C0
0001C0
0001C0
0001C0
000180
000780
001F80
001E00
003800
003800
ENDCHAR
STARTCHAR 3123
ENCODING 12579
SWIDTH 1000 0
DWIDTH 24 0
BBX 17 22 4 -2
BITMAP
300000
300000
380000
380000
380000
380000
380000
300000
F00000
F00000
F00000
FFFF80
FFFF80
000380
000380
000380
000380
000300
000F00
000F00
001C00
001C00
ENDCHAR
STARTCHAR 3124
ENCODING 12580
SWIDTH 1000 0
DWIDTH 24 0
BBX 20 22 1 -2
BITMAP
00C000
00C000
00E000
00E000
00E000
00E000
FFFFF0
FFFFF0
00FC00
00FC00
00DC00
03DC00
03DC00
03DC00
031C00
071C00
071C00
071C00
1F1C00
1E1C00
F80FF0
F80FF0
ENDCHAR
STARTCHAR 3125
ENCODING 12581
SWIDTH 1000 0
DWIDTH 24 0
BBX 17 17 3 1
BITMAP
018000
018000
018000
018000
038000
038000
038000
038000
030000
0F0000
0F0000
1C0000
780000
F80000
E00000
FFFF80
FFFF80
ENDCHAR
STARTCHAR 3126
ENCODING 12582
SWIDTH 1000 0
DWIDTH 24 0
BBX 22 20 1 -2
BITMAP
031800
03DC00
03DC00
03DC00
03DC00
03DC00
03DC00
03DC00
03DC00
03DC00
03DC00
03DC00
03DC00
03DC00
031C00
071C30
0F1C3C
1E1C3C
F80FFC
F80FFC
ENDCHAR
STARTCHAR 3127
ENCODING 12583
SWIDTH 1000 0
DWIDTH 24 0
BBX 4 23 10 -3
BITMAP
C0
C0
F0
F0
F0
F0
F0
F0
F0
F0
F0
F0
F0
F0
F0
F0
F0
F0
F0
F0
F0
F0
F0
ENDCHAR
STARTCHAR 3128
ENCODING 12584
SWIDTH 1000 0
DWIDTH 24 0
BBX 18 22 1 -2
BITMAP
000180
000180
0001C0
0001C0
0001C0
070180
078380
038380
01E200
01FE00
007E00
001C00
001C00
001C00
007E00
007E00
01E380
0381C0
0381C0
070000
F80000
F80000
ENDCHAR
STARTCHAR 3129
ENCODING 12585
SWIDTH 1000 0
DWIDTH 24 0
BBX 18 15 3 1
BITMAP
000180
6001C0
6001C0
7801C0
7801C0
7801C0
7801C0
7801C0
F801C0
E001C0
E00FC0
E00FC0
FFF1C0
0001C0
0001C0
ENDCHAR
STARTCHAR 3220
ENCODING 12832
SWIDTH 1000 0
DWIDTH 24 0
BBX 20 22 3 -2
BITMAP
180180
180180
6000C0
6000C0
6000C0
C00030
C00030
C00030
C00630
DFFFB0
DFFFB0
C00030
C00030
C00030
C00030
C00030
C00030
6000C0
6000C0
6000C0
180180
180180
ENDCHAR
STARTCHAR 3221
ENCODING 12833
SWIDTH 1000 0
DWIDTH 24 0
BBX 20 22 3 -2
BITMAP
180180
180180
6000C0
600CC0
600CC0
CFFE30
CFFE30
C00030
C00030
C00030
C00030
C00030
C00030
C00030
C00630
DFFFB0
DFFFB0
6000C0
6000C0
6000C0
180180
180180
ENDCHAR
STARTCHAR 3222
ENCODING 12834
SWIDTH 1000 0
DWIDTH 24 0
BBX 20 22 3 -2
BITMAP
180180
180180
600CC0
6FFEC0
6FFEC0
C00030
C00030
C00030
C03030
C3FC30
C3FC30
C00030
C00030
C00030
C00630
DFFFB0
DFFFB0
6000C0
6000C0
6000C0
180180
180180
ENDCHAR
STARTCHAR 3223
ENCODING 12835
SWIDTH 1000 0
DWIDTH 24 0
BBX 20 22 3 -2
BITMAP
180180
180180
6000C0
6000C0
7801C0
FFFFF0
DFFFF0
D9B1B0
D9B1B0
D9B1B0
D9B1B0
DBB1B0
DBB1B0
DC3FB0
DC3FB0
D801B0
DFFFB0
FFFFF0
7801C0
6000C0
180180
180180
ENDCHAR
STARTCHAR 3224
ENCODING 12836
SWIDTH 1000 0
DWIDTH 24 0
BBX 20 22 3 -2
BITMAP
180180
180180
600CC0
6FFEC0
6FFEC0
C18030
C18C30
C18C30
CFFE30
CFFE30
C18C30
C18C30
C18C30
C18C30
C18DB0
DFFFB0
DFFFB0
6000C0
6000C0
6000C0
180180
180180
ENDCHAR
STARTCHAR 3225
ENCODING 12837
SWIDTH 1000 0
DWIDTH 24 0
BBX 20 21 3 -2
BITMAP
198180
79E1C0
61E6C0
6066C0
DFFFB0
DFFFB0
C00030
C03030
C33030
C33030
C33C30
C33C30
C30C30
C30C30
C30C30
CC0630
EC06F0
6C06C0
6000C0
180180
180180
ENDCHAR
STARTCHAR 3226
ENCODING 12838
SWIDTH 1000 0
DWIDTH 24 0
BBX 20 22 3 -2
BITMAP
180180
180180
6180C0
6180C0
6180C0
C18030
C18FB0
C18FB0
C3FC30
DFFC30
DD8030
C18030
C18030
C18030
C18030
C1C1B0
C1E1B0
607EC0
607EC0
6000C0
180180
180180
ENDCHAR
STARTCHAR 3227
ENCODING 12839
SWIDTH 1000 0
DWIDTH 24 0
BBX 20 22 3 -2
BITMAP
186180
186180
6030C0
6030C0
6330C0
E330F0
C33030
C33030
C33C30
C33C30
C30C30
C30C30
C30C30
CC0C30
CC0E30
DC0E30
D80630
6006C0
6006C0
6000C0
180180
180180
ENDCHAR
STARTCHAR 3228
ENCODING 12840
SWIDTH 1000 0
DWIDTH 24 0
BBX 20 22 3 -2
BITMAP
198180
198180
6180C0
618CC0
618CC0
CFFE30
CFFE30
C18C30
C18C30
C1BC30
C1BC30
C1B030
C3B030
C3B030
C33630
CF37B0
CC37B0
783EC0
783EC0
6000C0
180180
180180
ENDCHAR
STARTCHAR 3229
ENCODING 12841
SWIDTH 1000 0
DWIDTH 24 0
BBX 20 22 3 -2
BITMAP
180180
180180
6060C0
6060C0
6060C0
C06030
C06030
C06030
C06630
DFFFB0
DFFFB0
C06030
C06030
C06030
C06030
C06030
C06030
6060C0
6060C0
6060C0
180180
180180
ENDCHAR
STARTCHAR 4E00
ENCODING 19968
SWIDTH 1000 0
DWIDTH 24 0
BBX 20 3 3 9
BITMAP
0000C0
FFFFF0
FFFFF0
ENDCHAR
STARTCHAR 4E01
ENCODING 19969
SWIDTH 1000 0
DWIDTH 24 0
BBX 20 24 3 -3
BITMAP
0000C0
FFFFF0
FFFFF0
007000
007000
007000
007000
007000
007000
007000
007000
007000
007000
007000
007000
007000
007000
007000
007000
037000
037000
01F000
01F000
006000
ENDCHAR
STARTCHAR 4E03
ENCODING 19971
SWIDTH 1000 0
DWIDTH 24 0
BBX 23 22 1 -2
BITMAP
006000
006000
007000
007000
007000
007000
007018
007018
0071FE
03FFFE
03FE00
FC7000
FC7000
007000
007000
007000
007018
007018
007018
007FFE
007FFE
003FF8
ENDCHAR
STARTCHAR 4E07
ENCODING 19975
SWIDTH 1000 0
DWIDTH 24 0
BBX 23 23 1 -3
BITMAP
00000C
00000C
FFFFFE
FFFFFE
00E000
00E000
00E060
00E060
00FFF0
00FFF0
00E1E0
00E1E0
00E1E0
03C1E0
03C1E0
07C1E0
0701E0
0701E0
1F01E0
1E01E0
380F80
F80F80
C00300
ENDCHAR
STARTCHAR 4E08
ENCODING 19976
SWIDTH 1000 0
DWIDTH 24 0
BBX 23 24 1 -3
BITMAP
003C00
003C0C
003C0C
3FFFFE
3FFFFE
003C00
003C00
003C00
183C00
183C00
183C00
063C00
067000
077000
037000
00E000
00E000
00F000
038F00
038F00
0703E0
3F03FE
F801FE
C0007C
ENDCHAR
STARTCHAR 4E09
ENCODING 19977
SWIDTH 1000 0
DWIDTH 24 0
BBX 23 20 1 0
BITMAP
000060
000060
1FFFF0
1FFFF0
000000
000000
000000
000000
000180
07FFE0
07FFE0
000000
000000
000000
000000
000000
000000
00000C
FFFFFE
FFFFFE
ENDCHAR
STARTCHAR 4E0A
ENCODING 19978
SWIDTH 1000 0
DWIDTH 24 0
BBX 23 22 1 -2
BITMAP
006000
006000
007800
007800
007800
007800
007980
007980
007FE0
007FE0
007800
007800
007800
007800
007800
007800
007800
007800
00780C
00780C
FFFFFE
FFFFFE
ENDCHAR
STARTCHAR 4E0B
ENCODING 19979
SWIDTH 1000 0
DWIDTH 24 0
BBX 23 23 1 -3
BITMAP
00000C
00000C
FFFFFE
FFFFFE
007800
007800
007800
007800
007F00
007F00
007BE0
0079F0
0079F0
007860
007860
007800
007800
007800
007800
007800
007800
007800
006000
ENDCHAR
STARTCHAR 4E0C
ENCODING 19980
SWIDTH 1000 0
DWIDTH 24 0
BBX 23 23 1 -3
BITMAP
00000C
00000C
FFFFFE
FFFFFE
03CC00
03CF00
03CF00
03CF00
03CF00
03CF00
03CF00
03CF00
03CF00
03CF00
03CF00
03CF00
03CF00
070F00
1F0F00
1E0F00
380F00
F80F00
C00F00
ENDCHAR
STARTCHAR 4E0D
ENCODING 19981
SWIDTH 1000 0
DWIDTH 24 0
BBX 23 24 1 -3
BITMAP
00000C
FFFFFE
FFFFFE
001C00
001C00
001C00
007800
007B00
007B00
00FF80
03FFE0
03DDE0
071C70
1F1C7C
1E1C7C
381C3E
F81C3E
C01C0C
001C00
001C00
001C00
001C00
001C00
001C00
ENDCHAR
STARTCHAR 4E0E
ENCODING 19982
SWIDTH 1000 0
DWIDTH 24 0
BBX 23 24 1 -3
BITMAP
060000
070000
070000
070030
07FFF8
07FFF8
070000
070000
070000
070018
1FFFFE
1FFFFE
060038
060038
000038
000338
FFFFB8
FFFFB8
000038
000038
000038
0001F0
0001F0
000040
ENDCHAR
STARTCHAR 4E10
ENCODING 19984
SWIDTH 1000 0
DWIDTH 24 0
BBX 21 24 3 -3
BITMAP
0000C0
FFFFF0
FFFFF0
01C000
61C600
61C600
71FF80
71FF80
71C000
71C030
7FFFF8
7FFFF8
E000F0
E000F0
0000F0
0000F0
0000F0
0000F0
0000F0
0030F0
0030F0
000FC0
000FC0
000780
ENDCHAR
STARTCHAR 4E11
ENCODING 19985
SWIDTH 1000 0
DWIDTH 24 0
BBX 23 22 1 -3
BITMAP
000030
1FFFFC
1FFFFC
00E070
00E070
00E070
00E070
00E1F0
00E1F0
00E1E0
1FFFE0
1FFFE0
03C1E0
03C1E0
03C1E0
03C1E0
070380
070380
070380
07038C
FFFFFE
FFFFFE
ENDCHAR
STARTCHAR 4E13
ENCODING 19987
SWIDTH 1000 0
DWIDTH 24 0
BBX 23 24 1 -3
BITMAP
001800
001C00
001C00
007860
1FFFF0
1FFFF0
007800
00F80C
00E00C
FFFFFE
FFFFFE
00E000
03C060
07FFF0
07FFF0
0301E0
0301E0
000380
03CF00
03CF00
007C00
001F00
001F00
000C00
ENDCHAR
STARTCHAR 4E14
ENCODING 19988
SWIDTH 1000 0
DWIDTH 24 0
BBX 23 22 1 -2
BITMAP
060180
060180
07FFE0
07FFE0
070380
070380
070380
070380
07FF80
07FF80
070380
070380
07FF80
07FF80
070380
070380
070380
070380
07038C
07038C
FFFFFE
FFFFFE
ENDCHAR
STARTCHAR 4E15
ENCODING 19989
SWIDTH 1000 0
DWIDTH 24 0
BBX 23 24 1 -3
BITMAP
000030
3FFFFC
3FFFFC
001C00
001C00
001C00
007800
007B00
007B00
00FF80
03FFE0
03DDE0
071C70
1F1C7C
1E1C7C
381C3E
F81C3E
C01C0C
001C00
001C00
001C00
001C0C
FFFFFE
FFFFFE
ENDCHAR
STARTCHAR 4E16
ENCODING 19990
SWIDTH 1000 0
DWIDTH 24 0
BBX 23 24 1 -3
BITMAP
186180
186180
1E79E0
1E79E0
1E79E0
1E79E0
1E79EC
1E79EC
FFFFFE
1E79E0
1E79E0
1E79E0
1E79E0
1E79E0
1E79E0
1E7FE0
1E7FE0
1E6180
1E0000
1E0030
1E0030
3FFFFC
3FFFFC
180000
ENDCHAR
STARTCHAR 4E18
ENCODING 19992
SWIDTH 1000 0
DWIDTH 24 0
BBX 23 24 1 -3
BITMAP
000060
001FF0
001FF0
07FF80
07FF80
070000
070000
070000
070000
070030
07FFFC
07FFFC
070F00
070F00
070F00
070F00
070F00
070F00
070F00
070F00
070F00
070F0C
FFFFFE
FFFFFE
ENDCHAR
STARTCHAR 4E19
ENCODING 19993
SWIDTH 1000 0
DWIDTH 24 0
BBX 23 24 1 -3
BITMAP
00000C
FFFFFE
FFFFFE
007800
007800
007800
30780C
3FFFFE
3FFFFE
38783C
38783C
38783C
387C3C
38FF3C
38EF3C
38E3BC
3BE3FC
3BC3FC
3E01BC
3E01BC
38003C
3801FC
3801FC
380030
ENDCHAR
STARTCHAR 4E1A
ENCODING 19994
SWIDTH 1000 0
DWIDTH 24 0
BBX 23 23 1 -2
BITMAP
030C00
03CF00
03CF00
03CF00
03CF30
03CF30
C3CF3C
F3CF3C
33CF3C
3BCF70
3BCF70
3BCF70
1FCF60
1FCF60
1FCFE0
1FCFE0
1BCF80
03CF00
03CF00
03CF0C
03CF0C
FFFFFE
FFFFFE
ENDCHAR
STARTCHAR 4E1B
ENCODING 19995
SWIDTH 1000 0
DWIDTH 24 0
BBX 23 24 1 -3
BITMAP
060300
060300
0703E0
0703E0
070380
070380
070380
070380
070380
070380
070380
070380
070380
070380
1ECF60
1EEF70
3EFF7C
387C3C
30183E
F0783E
C0600C
00000C
FFFFFE
FFFFFE
ENDCHAR
STARTCHAR 4E1C
ENCODING 19996
SWIDTH 1000 0
DWIDTH 24 0
BBX 22 24 1 -3
BITMAP
007800
00F830
00E030
3FFFFC
3FFFFC
03C000
03D800
03D800
071C00
071C60
071C60
1FFFF0
061C00
061C00
031D80
07DC60
07DC60
071C70
1E1C7C
1E1C7C
381C3C
C0FC30
C0FC30
001800
ENDCHAR
STARTCHAR 4E1D
ENCODING 19997
SWIDTH 1000 0
DWIDTH 24 0
BBX 23 23 1 -2
BITMAP
030180
03C1E0
03C1E0
070380
070380
060300
1ECF60
1EEF70
18EC70
3FDFE0
3FDFE0
070D80
1E0380
1E0F80
180F00
3FDFF0
3FDFF0
180C00
000000
00000C
00000C
FFFFFE
FFFFFE
ENDCHAR
STARTCHAR 4E1E
ENCODING 19998
SWIDTH 1000 0
DWIDTH 24 0
BBX 23 24 1 -3
BITMAP
000180
07FFC0
07FFC0
000380
000F80
000E00
007C00
00FC08
00DC08
3FDDBE
3FFFFE
03FFF0
00FFC0
03FFC0
03DC40
071C70
1F1C70
1C1C70
381C3E
F81C3E
C01C08
001C30
1FFFF8
1FFFF8
ENDCHAR
STARTCHAR 4E22
ENCODING 20002
SWIDTH 1000 0
DWIDTH 24 0
BBX 21 24 1 -3
BITMAP
000380
03FFC0
03FFC0
3FF000
3FF000
007000
007180
1FFFC0
1FFFC0
007000
007030
007030
FFFFF8
FFFFF8
007000
00EC00
00EC00
038F00
070380
1F1FC0
1C1FC0
3FF1F0
3FF1F0
1C0040
ENDCHAR
STARTCHAR 4E24
ENCODING 20004
SWIDTH 1000 0
DWIDTH 24 0
BBX 23 24 1 -3
BITMAP
00000C
FFFFFE
FFFFFE
00EF00
00EF00
00EF00
30EF0C
3FFFFE
3FFFFE
38EF3C
38EF3C
38EF3C
38FFBC
3BFFFC
3BDDFC
3B19FC
3F79FC
3E61BC
38003C
3801BC
3801BC
38007C
38007C
300030
ENDCHAR
STARTCHAR 4E25
ENCODING 20005
SWIDTH 1000 0
DWIDTH 24 0
BBX 23 24 1 -3
BITMAP
00000C
3FFFFE
3FFFFE
00EE30
1CEE3C
1CEE3C
07EE70
1FEFFC
1BEF8C
1FFFFE
1FFFFE
1C0000
1C0000
1C0000
1C0000
1C0000
1C0000
1C0000
180000
180000
380000
380000
E00000
C00000
ENDCHAR
STARTCHAR 4E27
ENCODING 20007
SWIDTH 1000 0
DWIDTH 24 0
BBX 23 24 1 -3
BITMAP
007800
007860
007860
3FFFF0
3FFFF0
187860
0779F0
07FBF0
03FB80
037B0C
FFFFFE
FFFFFE
077830
07787C
07787C
071C60
071F60
070F00
070380
070380
07F9E0
1FF9FE
1FC07E
07003C
ENDCHAR
STARTCHAR 4E28
ENCODING 20008
SWIDTH 1000 0
DWIDTH 24 0
BBX 3 24 10 -3
BITMAP
E0
E0
E0
E0
E0
E0
E0
E0
E0
E0
E0
E0
E0
E0
E0
E0
E0
E0
E0
E0
E0
E0
E0
E0
ENDCHAR
STARTCHAR 4E2A
ENCODING 20010
SWIDTH 1000 0
DWIDTH 24 0
BBX 21 24 3 -3
BITMAP
00C000
00C000
01F000
01C000
03F000
03B000
03BC00
0FFE00
0ECE00
1CF7C0
7CF7F8
78F1F8
C0F0E0
C0F0E0
00F000
00F000
00F000
00F000
00F000
00F000
00F000
00F000
00F000
00C000
ENDCHAR
STARTCHAR 4E2B
ENCODING 20011
SWIDTH 1000 0
DWIDTH 24 0
BBX 19 24 4 -3
BITMAP
000300
C00380
C00380
380FE0
3C0FE0
1C0F00
1F1C00
1F1C00
0C6000
00E000
00E000
00E000
00E000
00E000
00E000
00E000
00E000
00E000
00E000
00E000
00E000
00E000
00E000
00C000
ENDCHAR
STARTCHAR 4E2C
ENCODING 20012
SWIDTH 1000 0
DWIDTH 24 0
BBX 12 24 6 -3
BITMAP
01C0
01C0
01C0
01C0
71C0
71C0
1DC0
1DC0
1DC0
0FC0
0FC0
01C0
01F0
03F0
03C0
CFC0
CFC0
7DC0
7DC0
71C0
61C0
61C0
01C0
0180
ENDCHAR
STARTCHAR 4E2D
ENCODING 20013
SWIDTH 1000 0
DWIDTH 24 0
BBX 20 24 3 -3
BITMAP
018000
018000
01C000
01C000
01C000
C1C0C0
FFFFF0
FFFFF0
E1C1C0
E1C1C0
E1C1C0
E1C1C0
E1C1C0
E1C1C0
FFFFC0
FFFFC0
C1C180
01C000
01C000
01C000
01C000
01C000
01C000
018000
ENDCHAR
STARTCHAR 4E30
ENCODING 20016
SWIDTH 1000 0
DWIDTH 24 0
BBX 21 24 1 -3
BITMAP
006000
007C00
007C00
0070C0
7FFFF0
7FFFF0
007000
007000
007000
007180
1FFFC0
1FFFC0
007000
007000
007000
007030
FFFFF8
FFFFF8
007000
007000
007000
007000
007000
006000
ENDCHAR
STARTCHAR 4E32
ENCODING 20018
SWIDTH 1000 0
DWIDTH 24 0
BBX 20 24 4 -3
BITMAP
00E000
30E180
30E180
3FFFE0
3FFFE0
38E380
38E380
3FFF80
3FFF80
30E300
F0E360
C0E060
FFFFF0
FFFFF0
F0E1E0
F0E1E0
F0E1E0
F0E1E0
FFFFE0
FFFFE0
C0E180
00E000
00E000
00C000
ENDCHAR
STARTCHAR 4E34
ENCODING 20020
SWIDTH 1000 0
DWIDTH 24 0
BBX 23 24 1 -3
BITMAP
060600
060600
070F80
070E18
C71FFE
C71FFE
F71E00
F77FC0
F77FC0
F761F8
F7E1F8
F7C030
F76018
F76018
F77FFE
F77FB8
F77FB8
C77FB8
077FB8
077FB8
077FB8
077FF8
077FF8
066030
ENDCHAR
STARTCHAR 4E36
ENCODING 20022
SWIDTH 1000 0
DWIDTH 24 0
BBX 9 13 6 5
BITMAP
C000
E000
6000
7800
7800
7F00
7F80
1F80
1F80
1F80
0F00
0C00
0C00
ENDCHAR
STARTCHAR 4E38
ENCODING 20024
SWIDTH 1000 0
DWIDTH 24 0
BBX 21 24 3 -3
BITMAP
038000
038000
038000
038000
038300
038300
7FFFC0
7FFFC0
038700
038700
0F8700
0F8700
03F700
03FF00
03FF00
03B700
0FB700
0F0700
0F0760
0F0760
1C0778
7807F8
7807F8
C003E0
ENDCHAR
STARTCHAR 4E39
ENCODING 20025
SWIDTH 1000 0
DWIDTH 24 0
BBX 23 24 1 -3
BITMAP
060060
07FFF0
07FFF0
0701E0
0761E0
0761E0
0779E0
077DE0
071DE0
0719E0
0719EC
0701EC
FFFFFE
FFFFFE
0701E0
0701E0
1F01E0
1E01E0
1E01E0
1E0DE0
180DE0
1803E0
3803E0
300180
ENDCHAR
STARTCHAR 4E3A
ENCODING 20026
SWIDTH 1000 0
DWIDTH 24 0
BBX 23 24 1 -3
BITMAP
00C000
10F000
10F000
1CF000
1EF000
0EF000
0CF018
7FFFFE
7FFFFE
00F038
00F038
00F038
01F838
01FE38
01CE38
01C7B8
07C7B8
078638
078038
0F8038
0E0038
1C07F0
FC07F0
E000C0
ENDCHAR
STARTCHAR 4E3B
ENCODING 20027
SWIDTH 1000 0
DWIDTH 24 0
BBX 23 23 1 -2
BITMAP
00E000
00FC00
007C00
001860
1FFFF0
1FFFF0
007800
007800
007800
007800
007980
007980
07FFE0
07FFE0
007800
007800
007800
007800
007800
00780C
00780C
FFFFFE
FFFFFE
ENDCHAR
STARTCHAR 4E3D
ENCODING 20029
SWIDTH 1000 0
DWIDTH 24 0
BBX 23 24 1 -3
BITMAP
00000C
FFFFFE
FFFFFE
000000
300C00
306C0C
3FFFFE
3FFFFE
38EF3C
38EF3C
38EF3C
3EEFBC
3FEFFC
3FEFFC
3BEF7C
3BEF7C
38EF3C
38EF3C
38EF3C
38EF3C
38EF3C
3BEF7C
3BEF7C
30CC30
ENDCHAR
STARTCHAR 4E3E
ENCODING 20030
SWIDTH 1000 0
DWIDTH 24 0
BBX 23 24 1 -3
BITMAP
1980C0
1980C0
0C70F0
0FBDC0
0FBFC0
033780
3FFFF8
3FFFF8
01EE00
03E780
03F780
0F71C0
1C70F8
1C70F8
3BFE3E
C07018
C07198
007180
1FFFC0
1FFFC0
007000
007000
007000
007000
ENDCHAR
STARTCHAR 4E3F
ENCODING 20031
SWIDTH 1000 0
DWIDTH 24 0
BBX 12 24 3 -3
BITMAP
00F0
00F0
00F0
00F0
00F0
00F0
00F0
00F0
00F0
00F0
00F0
00F0
00F0
01F0
01F0
01C0
01C0
0380
0F80
1E00
1C00
7800
F800
C000
ENDCHAR
STARTCHAR 4E43
ENCODING 20035
SWIDTH 1000 0
DWIDTH 24 0
BBX 22 24 1 -3
BITMAP
000060
3FFFF0
3FFFF0
0701E0
0701E0
0701E0
070380
070F80
070F00
0701E0
0701E0
070070
07003C
07003C
07003C
07003C
1F003C
1E003C
1E003C
1E033C
18033C
300FF0
300FF0
C001E0
ENDCHAR
STARTCHAR 4E45
ENCODING 20037
SWIDTH 1000 0
DWIDTH 24 0
BBX 23 24 1 -3
BITMAP
018000
01C000
01C000
078300
07FFC0
07FFC0
078700
0F8700
0E0700
1C1E00
7C1E00
601E00
003800
003E00
003E00
00F700
01F700
01C300
0783C0
0783C0
0E00F8
1E00FE
FC003E
E00018
ENDCHAR
STARTCHAR 4E47
ENCODING 20039
SWIDTH 1000 0
DWIDTH 24 0
BBX 23 24 1 -3
BITMAP
0003FC
03FFFC
03FF80
3FF800
3FF800
007800
007800
007800
007800
00780C
FFFFFE
FFFFFE
007800
007800
007800
007800
00780C
00780C
00780C
00780C
00780E
007FFE
007FFE
001FFC
ENDCHAR
STARTCHAR 4E48
ENCODING 20040
SWIDTH 1000 0
DWIDTH 24 0
BBX 23 24 1 -3
BITMAP
001000
001000
007C00
007000
00F000
00E000
00E180
00E180
03C7E0
0F0780
1F0F80
1C0E00
381D80
F81DE0
C01C60
007070
00F07C
00E03C
03C03C
0FFFFE
0FFFFE
1FE00E
1FE00E
0C000C
ENDCHAR
STARTCHAR 4E49
ENCODING 20041
SWIDTH 1000 0
DWIDTH 24 0
BBX 23 24 1 -3
BITMAP
018000
018000
0060C0
1870F0
1870F0
183CF0
0C31C0
0C31C0
0C01C0
0301C0
0307C0
030780
018780
01EF80
01EE00
007C00
007C00
007C00
01EE00
01EE00
0387C0
1F87FE
FC01FE
E00038
ENDCHAR
STARTCHAR 4E4B
ENCODING 20043
SWIDTH 1000 0
DWIDTH 24 0
BBX 23 23 1 -2
BITMAP
01E000
01FC00
007C00
0018C0
1FFFF0
1FFFF0
0001C0
0003C0
000380
000E00
001E00
001C00
007800
03F800
038000
070000
1F8000
1F8000
F9E000
F9FFFE
307FFE
001FF8
001FF8
ENDCHAR
STARTCHAR 4E4C
ENCODING 20044
SWIDTH 1000 0
DWIDTH 24 0
BBX 23 24 1 -3
BITMAP
03E000
07E0C0
07C0C0
1FFFF0
3FFFF0
3E01C0
DE01C0
DE07C0
1E07C0
1E0188
1FFFFE
1FFFFE
180038
180038
000038
0001B8
FFFFF8
FFFFF8
000038
000038
000038
0001F8
0001F8
0000F0
ENDCHAR
STARTCHAR 4E4D
ENCODING 20045
SWIDTH 1000 0
DWIDTH 24 0
BBX 23 24 1 -3
BITMAP
040000
1F0000
1F0000
1C000C
1FFFFE
1FFFFE
38E000
38E000
20E000
C0E060
C0FFF0
00FFF0
00E000
00E030
00E030
00FFFC
00FFFC
00E000
00E000
00E000
00E000
00E000
00E000
00C000
ENDCHAR
STARTCHAR 4E4E
ENCODING 20046
SWIDTH 1000 0
DWIDTH 24 0
BBX 21 24 3 -3
BITMAP
000E00
007F80
007F80
03F000
7FF180
7F7180
1871C0
1871C0
1C7780
1F7780
0F7E30
0C7C30
FFFFF8
FFFFF8
007000
007000
007000
007000
007000
037000
037000
01F000
01F000
006000
ENDCHAR
STARTCHAR 4E4F
ENCODING 20047
SWIDTH 1000 0
DWIDTH 24 0
BBX 23 24 1 -3
BITMAP
000780
000780
007FF0
3FFFF0
3FFC00
006000
007C00
001E30
000E30
1FFFF8
1FFFF8
0001F0
0007C0
001FC0
001F80
00FC00
07FC00
07E000
1F0000
3F0000
3BE000
F8FFFE
F8FFFE
307FF8
ENDCHAR
STARTCHAR 4E50
ENCODING 20048
SWIDTH 1000 0
DWIDTH 24 0
BBX 23 24 1 -3
BITMAP
000180
0C1FC0
0C1FC0
0FFC00
0FFC00
0F1800
0F1C00
0F1C00
0F1C00
0F1C40
3FFFF0
3FFFF0
001C00
031D80
031D80
0FDC40
0FDC70
0F1C70
1C1C38
3CDC3E
38DC1E
C07C18
C07C18
001800
ENDCHAR
STARTCHAR 4E52
ENCODING 20050
SWIDTH 1000 0
DWIDTH 24 0
BBX 23 24 1 -3
BITMAP
000180
00FFE0
00FFE0
1FFF80
1FFF80
1E0000
1E0030
1FFFFC
1FFFFC
1E0F00
1E0F00
1E0F00
1E0F0C
FFFFFE
FFFFFE
030000
07C000
07C000
070000
1F0000
1E0000
300000
F00000
C00000
ENDCHAR
STARTCHAR 4E53
ENCODING 20051
SWIDTH 1000 0
DWIDTH 24 0
BBX 23 24 1 -3
BITMAP
000180
00FFE0
00FFE0
1FFF80
1FFF80
1E0000
1E0030
1FFFFC
1FFFFC
1E0F00
1E0F00
1E0F00
1E0F0C
FFFFFE
FFFFFE
000C00
000F80
000380
0001F0
0001FC
00007C
00007C
00007C
000030
ENDCHAR
STARTCHAR 4E54
ENCODING 20052
SWIDTH 1000 0
DWIDTH 24 0
BBX 23 24 1 -3
BITMAP
000FF0
3FFFF0
3FFF80
00E000
00E000
00E000
03C00C
FFFFFE
FFFFFE
070380
1F03F0
1E01F0
3F037E
FF03FE
C703BC
070380
070380
070380
070380
070380
060380
180380
380380
300300
ENDCHAR
STARTCHAR 4E56
ENCODING 20054
SWIDTH 1000 0
DWIDTH 24 0
BBX 21 24 3 -3
BITMAP
003E00
03FFC0
03FFC0
7F7000
7F7030
007030
FFFFF8
FFFFF8
0C7600
0F77B0
FF77F8
FF77F8
0F77C0
0F77F0
0F77B0
FF77F8
FF77F8
6F71F0
007000
007000
007000
007000
007000
007000
ENDCHAR
STARTCHAR 4E58
ENCODING 20056
SWIDTH 1000 0
DWIDTH 24 0
BBX 21 24 3 -3
BITMAP
003E00
7FFFC0
7FFFC0
00F000
0EF7B0
0EF7B0
FEF7F8
FEF7F8
0EF7C0
0EF7B0
FEF7F8
FEF7F8
61F9F0
63F9F0
03F800
03F600
03F600
0EF780
1EF7F0
1CF1F0
78F0F8
C0F030
C0F030
00F000
ENDCHAR
STARTCHAR 4E59
ENCODING 20057
SWIDTH 1000 0
DWIDTH 24 0
BBX 21 22 3 -2
BITMAP
000600
000600
7FFF80
7FFF80
000E00
003C00
007C00
007000
01E000
07E000
078000
0E0000
0E0000
1C0000
7C0030
700030
E00030
E00038
E00038
FFFFF8
FFFFF8
7FFFF0
ENDCHAR
STARTCHAR 4E5C
ENCODING 20060
SWIDTH 1000 0
DWIDTH 24 0
BBX 23 24 1 -3
BITMAP
060000
060000
070000
070000
070000
070030
0707FC
0707FC
077E70
07FE70
07E070
FF0070
FF0070
070070
070C70
070FF0
0707FC
0701EC
07000C
07000C
07000E
07FFFE
07FFFE
03FFFC
ENDCHAR
STARTCHAR 4E5D
ENCODING 20061
SWIDTH 1000 0
DWIDTH 24 0
BBX 23 24 1 -3
BITMAP
00C000
00C000
00E000
00E000
00E000
00E180
3FFFE0
3FFFE0
00E380
00E380
00E380
00E380
00E380
00E380
03C380
03C380
0FC380
0F0380
0F038C
1F038C
1C038C
3803FE
F803FE
C001FC
ENDCHAR
STARTCHAR 4E5E
ENCODING 20062
SWIDTH 1000 0
DWIDTH 24 0
BBX 23 24 1 -3
BITMAP
070000
1F0030
1C0030
3BFFFC
3BFFFC
200000
C00000
C00180
000180
1FFFC0
1FFFC0
000380
000FC0
000FC0
001E00
007000
007000
00E000
030000
07000C
07000C
03FFFE
03FFFE
00FFF0
ENDCHAR
STARTCHAR 4E5F
ENCODING 20063
SWIDTH 1000 0
DWIDTH 24 0
BBX 23 24 1 -3
BITMAP
006000
006000
007000
007000
007000
187000
1C71C0
1C71C0
1C7FF0
1FFFF0
1FF1C0
FC71C0
FC71C0
1C71C0
1C77C0
1C77C0
1C7198
1C6018
1C0018
1C0018
1C001E
1FFFFE
1FFFFE
0FFFF8
ENDCHAR
STARTCHAR 4E60
ENCODING 20064
SWIDTH 1000 0
DWIDTH 24 0
BBX 21 24 1 -3
BITMAP
000060
7FFFF8
7FFFF8
0000E0
0C00E0
0C00E0
0380E0
0380E0
01E0E0
01E0E0
01E0E0
0183E0
000EE0
007EE0
007CE0
03F0E0
03F0E0
1F80E0
FF80E0
FC00E0
6000E0
0007E0
0007E0
0000C0
ENDCHAR
STARTCHAR 4E61
ENCODING 20065
SWIDTH 1000 0
DWIDTH 24 0
BBX 22 24 1 -3
BITMAP
006000
00F000
00F000
03E180
07E1E0
0701E0
1E0780
3FFF80
3FFE00
181C30
18FC3C
00E03C
070070
3FFFF0
3FFFE0
180780
180780
000E00
007C00
00FC00
00F000
07C000
FFC000
F80000
ENDCHAR
STARTCHAR 4E66
ENCODING 20070
SWIDTH 1000 0
DWIDTH 24 0
BBX 23 24 1 -3
BITMAP
007860
00787C
00783C
00786C
1FFFFC
1FFFF0
0079E0
0079E0
0079E0
0079E0
0079EC
0079EC
FFFFFE
FFFFFE
00783C
00783C
00783C
00783C
00783C
0079FC
0079F0
007860
007860
007800
ENDCHAR
STARTCHAR 4E69
ENCODING 20073
SWIDTH 1000 0
DWIDTH 24 0
BBX 23 24 1 -3
BITMAP
180C00
180C00
1E0F00
1F8F00
1FEF00
1FEF00
1E0F00
1E0F00
1E0F00
1E0F00
1E0F00
1E0F00
DF8F00
FFEF00
FFEF00
F38F00
F38F00
F38F00
F38F18
F38F18
F38F18
FF83FE
FF83FE
F381F8
ENDCHAR
STARTCHAR 4E70
ENCODING 20080
SWIDTH 1000 0
DWIDTH 24 0
BBX 23 24 1 -3
BITMAP
000030
3FFFFC
3FFFFC
001870
181F70
181F70
07DDE0
07DDE0
031D80
301C00
301C00
1E1C00
1F7800
1F780C
06780C
FFFFFE
FFFFFE
007800
00EF00
00EF00
03C3F0
07C3FE
3F01FE
38007C
ENDCHAR
STARTCHAR 4E71
ENCODING 20081
SWIDTH 1000 0
DWIDTH 24 0
BBX 23 24 1 -3
BITMAP
03C000
3FE380
3FE380
070380
070380
070380
070380
FFE380
FFE380
070380
070380
070380
376380
3FFB80
3FFB80
38E380
38E380
38E380
38E380
38E386
38E386
3FE3FE
3FE3FE
30C1FC
ENDCHAR
STARTCHAR 4E73
ENCODING 20083
SWIDTH 1000 0
DWIDTH 24 0
BBX 21 24 1 -3
BITMAP
03EC00
1FFE00
1FFE00
F36E00
FFEE00
3F8E00
1B8E00
3FEE00
3FEE00
018E00
018E00
038E00
038E00
038E00
3FEE00
FB8E00
FB8E00
338E00
038E30
038E30
038E30
1F0FF8
1F0FF8
0C07F0
ENDCHAR
STARTCHAR 4E7E
ENCODING 20094
SWIDTH 1000 0
DWIDTH 24 0
BBX 22 24 1 -3
BITMAP
1E0600
1E0E08
1E0E08
FFEFFC
FFEFFC
1E0E00
DE8800
FFB800
FFB000
F38030
FF8FF8
FF8FF8
F38070
FF8070
FF8070
DE01E0
DE01E0
1E0180
FF8780
FF8F88
1E0E08
1E07FC
1E07FC
1E01F8
ENDCHAR
STARTCHAR 4E86
ENCODING 20102
SWIDTH 1000 0
DWIDTH 24 0
BBX 17 24 4 -3
BITMAP
000300
FFFF80
FFFF80
000F00
000F00
001C00
007800
007800
00E000
00E000
00E000
00E000
00E000
00E000
00E000
00E000
00E000
00E000
00E000
00E000
18E000
07E000
07E000
03C000
ENDCHAR
STARTCHAR 4E88
ENCODING 20104
SWIDTH 1000 0
DWIDTH 24 0
BBX 23 24 1 -3
BITMAP
000180
1FFFE0
1FFFE0
000380
031F80
031C00
00F800
00F80C
00600C
FFFFFE
FFFFFE
00783C
007860
007860
007800
007800
007800
007800
007800
007800
007800
03E000
03E000
00C000
ENDCHAR
STARTCHAR 4E89
ENCODING 20105
SWIDTH 1000 0
DWIDTH 24 0
BBX 23 24 1 -3
BITMAP
00C000
00E180
00E180
03FFE0
07FFE0
070380
1E0F30
3FFFFC
3FFFFC
C07870
C07870
007870
FFFFFE
FFFFFE
007870
007870
1FFFF0
1FFFF0
007860
007860
007800
03F800
03F800
006000
ENDCHAR
STARTCHAR 4E8B
ENCODING 20107
SWIDTH 1000 0
DWIDTH 24 0
BBX 23 24 1 -3
BITMAP
007800
007830
007830
FFFFFC
FFFFFC
187860
1FFFF0
1FFFF0
1E79E0
1FFFE0
1FFFE0
187980
3FFFF0
3FFFF0
007870
FFFFFE
FFFFFE
007870
3FFFF0
3FFFF0
007860
03F800
03F800
006000
ENDCHAR
STARTCHAR 4E8C
ENCODING 20108
SWIDTH 1000 0
DWIDTH 24 0
BBX 23 17 1 1
BITMAP
000060
1FFFF0
1FFFF0
000000
000000
000000
000000
000000
000000
000000
000000
000000
000000
00000C
00000C
FFFFFE
FFFFFE
ENDCHAR
STARTCHAR 4E8D
ENCODING 20109
SWIDTH 1000 0
DWIDTH 24 0
BBX 23 24 1 -3
BITMAP
000180
07FFE0
07FFE0
000000
000000
000000
00000C
FFFFFE
FFFFFE
001C00
001C00
001C00
001C00
001C00
001C00
001C00
001C00
001C00
001C00
001C00
001C00
00FC00
00FC00
007800
ENDCHAR
STARTCHAR 4E8E
ENCODING 20110
SWIDTH 1000 0
DWIDTH 24 0
BBX 21 24 3 -3
BITMAP
000180
1FFFC0
1FFFC0
007000
007000
007000
007000
007030
007030
FFFFF8
FFFFF8
007000
007000
007000
007000
007000
007000
007000
007000
007000
007000
03F000
03F000
006000
ENDCHAR
STARTCHAR 4E8F
ENCODING 20111
SWIDTH 1000 0
DWIDTH 24 0
BBX 23 24 1 -3
BITMAP
000180
07FFE0
07FFE0
000000
000000
000000
00000C
FFFFFE
FFFFFE
00E000
00E000
03C000
03C060
03C060
07FFF0
07FFF0
0301E0
0001E0
000380
006380
006380
001F00
001F00
000C00
ENDCHAR
STARTCHAR 4E91
ENCODING 20113
SWIDTH 1000 0
DWIDTH 24 0
BBX 23 24 1 -3
BITMAP
000180
1FFFE0
1FFFE0
000000
000000
000000
000000
00000C
00000C
FFFFFE
FFFFFE
007800
00EC00
00EF00
00E300
03C380
07C3E0
0701E0
0601E0
1FFFF0
1FFFF0
3FE070
3FE070
180060
ENDCHAR
STARTCHAR 4E92
ENCODING 20114
SWIDTH 1000 0
DWIDTH 24 0
BBX 23 23 1 -2
BITMAP
000030
3FFFFC
3FFFFC
00E000
00E000
00E000
03C180
03FFE0
03FFE0
03C380
03C380
03C380
070F00
070F00
070F00
1FFF00
1FFF00
061C00
001C00
007C0C
00780C
FFFFFE
FFFFFE
ENDCHAR
STARTCHAR 4E93
ENCODING 20115
SWIDTH 1000 0
DWIDTH 24 0
BBX 23 24 1 -3
BITMAP
000060
1FFFF0
1FFFF0
000000
000000
000000
00000C
FFFFFE
FFFFFE
03CF00
03CF00
03CF00
03CF00
03CF00
03CF00
03CF00
03CF00
03CF00
070F00
1F0F00
1E0F00
380F00
F80F00
C00F00
ENDCHAR
STARTCHAR 4E94
ENCODING 20116
SWIDTH 1000 0
DWIDTH 24 0
BBX 23 23 1 -2
BITMAP
000030
3FFFFC
3FFFFC
00E000
00E000
00E000
00E000
00E180
00E180
3FFFE0
3FFFE0
00E380
00E380
00E380
00E380
03C380
03C380
03C380
03C380
03C38C
03C38C
FFFFFE
FFFFFE
ENDCHAR
STARTCHAR 4E95
ENCODING 20117
SWIDTH 1000 0
DWIDTH 24 0
BBX 23 24 1 -3
BITMAP
030300
030300
03C380
03C380
03C380
1FFFF0
03C380
03C380
03C380
03C380
03C38C
03C38C
FFFFFE
FFFFFE
03C380
03C380
03C380
070380
070380
070380
1E0380
1C0380
380380
300300
ENDCHAR
STARTCHAR 4E98
ENCODING 20120
SWIDTH 1000 0
DWIDTH 24 0
BBX 23 24 1 -3
BITMAP
000030
3FFFFC
3FFFFC
000000
000000
000000
060060
07FFF0
07FFF0
0701E0
0701E0
0701E0
07FFE0
07FFE0
0701E0
0701E0
07FFE0
07FFE0
060060
060060
000000
000000
FFFFFE
FFFFFE
ENDCHAR
STARTCHAR 4E9A
ENCODING 20122
SWIDTH 1000 0
DWIDTH 24 0
BBX 23 23 1 -2
BITMAP
000030
3FFFFC
3FFFFC
03CF00
03CF00
03CF00
03CF30
C3CF3C
C3CF3C
33CF3C
3BCF7C
3BCF70
3BCF70
3FCFF0
1FCFE0
1FCF80
1FCF80
1BCF00
03CF00
03CF0C
03CF0C
FFFFFE
FFFFFE
ENDCHAR
STARTCHAR 4E9B
ENCODING 20123
SWIDTH 1000 0
DWIDTH 24 0
BBX 23 24 1 -3
BITMAP
030C00
038E00
038E00
638E30
7BFEF8
7BFEF8
7B8FF0
7B8FF8
7B8F98
7B8E18
7BFE1E
7BFE1E
FF8FFE
FF8FFE
7807F8
000000
0FFF80
0FFF80
000000
000000
000000
000018
FFFFFE
FFFFFE
ENDCHAR
STARTCHAR 4E9F
ENCODING 20127
SWIDTH 1000 0
DWIDTH 24 0
BBX 23 24 1 -3
BITMAP
000180
07FFE0
07FFE0
000380
000F80
000F00
007C00
007C0C
001C0C
30DDFE
3FFDFE
3FFC0E
3BDD8C
3BDDFC
3BDC7C
3BDC70
3FDDFC
3FDDFC
30DDBE
30DF9E
001F0C
001C00
FFFFFE
FFFFFE
ENDCHAR
STARTCHAR 4EA0
ENCODING 20128
SWIDTH 1000 0
DWIDTH 24 0
BBX 23 8 1 9
BITMAP
00E000
00E000
007800
007800
007800
007C0C
FFFFFE
FFFFFE
ENDCHAR
STARTCHAR 4EA1
ENCODING 20129
SWIDTH 1000 0
DWIDTH 24 0
BBX 23 24 1 -3
BITMAP
00E000
00FC00
007C00
00780C
FFFFFE
FFFFFE
1E0000
1E0000
1E0000
1E0000
1E0000
1E0000
1E0000
1E0000
1E0000
1E0000
1E0000
1E0000
1E0000
1E0060
1E0060
1FFFF0
1FFFF0
1E0000
ENDCHAR
STARTCHAR 4EA2
ENCODING 20130
SWIDTH 1000 0
DWIDTH 24 0
BBX 23 24 1 -3
BITMAP
00E000
00FC00
007C00
00180C
FFFFFE
FFFFFE
030180
03FFE0
03FFE0
03C380
03C380
03C380
03C380
03C380
03C380
03C380
03C380
03C380
07038C
07038C
07038C
1E03FE
FE03FE
F001FC
ENDCHAR
STARTCHAR 4EA4
ENCODING 20132
SWIDTH 1000 0
DWIDTH 24 0
BBX 23 24 1 -3
BITMAP
006000
007030
007030
3FFFFC
3FFFFC
030600
03C180
07C1E0
0701E0
1E0670
1F07FC
1B07FC
30CE30
30CE30
00EE00
00FE00
007C00
001C00
007E00
007E00
00E7E0
07E7FE
FF01FE
F8003C
ENDCHAR
STARTCHAR 4EA5
ENCODING 20133
SWIDTH 1000 0
DWIDTH 24 0
BBX 20 24 3 -3
BITMAP
018000
01E000
01E000
01E0C0
FFFFF0
FFFFF0
01E000
03EC00
038C00
0F3E00
1FFE00
1FFC00
0C7000
0C7000
01E600
03EF80
038F80
0F3C00
1C7E00
FDFF80
E1E780
0381C0
1F81C0
1C0180
ENDCHAR
STARTCHAR 4EA6
ENCODING 20134
SWIDTH 1000 0
DWIDTH 24 0
BBX 23 24 1 -3
BITMAP
006000
007C00
001C00
001C0C
FFFFFE
FFFFFE
03C380
1BC380
1BC380
1FC3E0
3FC3F0
3BC3F0
FBC3BC
FBC3BE
F3C3BE
33C3BE
33C3BE
03C38C
03C380
07C380
070380
1E0380
3E0380
300380
ENDCHAR
STARTCHAR 4EA7
ENCODING 20135
SWIDTH 1000 0
DWIDTH 24 0
BBX 23 24 1 -3
BITMAP
00E000
00FC00
007C00
001830
3FFFFC
3FFFFC
030180
03E3E0
03E3E0
18CF0C
1FFFFE
1FFFFE
1E0000
1E0000
1E0000
1E0000
1E0000
1E0000
380000
380000
380000
300000
F00000
C00000
ENDCHAR
STARTCHAR 4EA8
ENCODING 20136
SWIDTH 1000 0
DWIDTH 24 0
BBX 21 24 3 -3
BITMAP
006000
007030
007030
FFFFF8
FFFFF8
0C0180
0FFFC0
0FFFC0
0F0780
0FFF80
0FFFC0
0C06C0
7FFFF0
7FFFF0
0007C0
000E00
003E00
003C00
003C00
033C00
033C00
01FC00
01FC00
007000
ENDCHAR
STARTCHAR 4EA9
ENCODING 20137
SWIDTH 1000 0
DWIDTH 24 0
BBX 21 24 1 -3
BITMAP
00E000
00F030
007030
FFFFF8
FFFFF8
000000
180040
1FFFF0
1FFFF0
1E71C0
1E71C0
1E71C0
1E71C0
1FFFC0
1FFFC0
1E71C0
1E71C0
1E71C0
1E71C0
1E71C0
1E71C0
1FFFC0
1FFFC0
180180
ENDCHAR
STARTCHAR 4EAB
ENCODING 20139
SWIDTH 1000 0
DWIDTH 24 0
BBX 23 24 1 -3
BITMAP
001800
001C0C
001C0C
3FFFFE
3FFFFE
030060
03FFF0
03FFF0
03C1E0
03FFE0
03FFE0
030060
07FFE0
07FFE0
000380
000F0C
FFFFFE
FFFFFE
001C00
031C00
031C00
00FC00
00FC00
007800
ENDCHAR
STARTCHAR 4EAC
ENCODING 20140
SWIDTH 1000 0
DWIDTH 24 0
BBX 21 24 1 -3
BITMAP
00E000
00F030
007030
FFFFF8
FFFFF8
000000
040180
07FFC0
07FFC0
070380
070380
070380
07FF80
07FF80
046200
077200
077380
077180
1C71C0
1C71F0
187070
20F040
20F040
006000
ENDCHAR
STARTCHAR 4EAD
ENCODING 20141
SWIDTH 1000 0
DWIDTH 24 0
BBX 23 24 1 -3
BITMAP
006000
007C60
001C60
1FFFF0
1FFFF0
000000
07FFE0
07FFE0
0701E0
07FFE0
07FFE0
060060
30000C
FFFFFE
FFFFFE
F0018E
F7FFEE
37FFEC
001C00
001C00
001C00
00FC00
00FC00
007800
ENDCHAR
STARTCHAR 4EAE
ENCODING 20142
SWIDTH 1000 0
DWIDTH 24 0
BBX 23 24 1 -3
BITMAP
007000
007C30
003C30
3FFFF8
3FFFF8
0C0040
0FFFF0
0FFFF0
0F01C0
0FFFC0
2FFFD8
2C0198
3FFFFE
FFFFFE
E301B8
C3FFF0
C3FFF0
038380
0F8398
0F8398
0F0398
1C03FE
3C03FE
2001F8
ENDCHAR
STARTCHAR 4EB2
ENCODING 20146
SWIDTH 1000 0
DWIDTH 24 0
BBX 21 24 1 -3
BITMAP
00E000
00F040
007040
3FFFF0
3FFFF0
070380
038E00
038E00
031C30
FFFFF8
FFFFF8
007000
007040
3FFFF0
3FFFF0
067200
077380
077180
1E71F0
1E71F0
387078
C3F030
C3F030
006000
ENDCHAR
STARTCHAR 4EB3
ENCODING 20147
SWIDTH 1000 0
DWIDTH 24 0
BBX 23 24 1 -3
BITMAP
007800
1FFFF0
1FFFF0
03FF80
03FF80
03C380
03FF80
33FF8C
33030C
FFFFFE
FFFFFE
F0033C
C00FB0
C01FB0
001F00
03FC00
03FC00
007800
3FFFEC
3FFFEC
00780C
007FFE
007FFE
001FFC
ENDCHAR
STARTCHAR 4EB5
ENCODING 20149
SWIDTH 1000 0
DWIDTH 24 0
BBX 23 24 1 -3
BITMAP
001C00
3FFFFC
3FFFFC
071C60
3FFFF0
3FFFF0
071DE0
071DE0
1FFDEC
3FFFEE
371FEE
1F71FE
1FF1FE
06E07C
036030
079C7C
1F9DFC
1F8DF0
3B8380
3B8380
C3F1F0
C3F1FC
03E07C
008030
ENDCHAR
STARTCHAR 4EBA
ENCODING 20154
SWIDTH 1000 0
DWIDTH 24 0
BBX 23 24 1 -3
BITMAP
006000
007C00
007C00
007800
007800
007800
007800
007800
007800
01EC00
01EC00
01EC00
01EE00
03EE00
038200
038380
0783C0
0701C0
1E01F0
1E01F8
180078
30003E
F0003E
C00018
ENDCHAR
STARTCHAR 4EBB
ENCODING 20155
SWIDTH 1000 0
DWIDTH 24 0
BBX 13 24 4 -3
BITMAP
0060
00E0
00E0
03F8
07F8
07C0
1F00
3F00
3F00
C700
C700
0700
0700
0700
0700
0700
0700
0700
0700
0700
0700
0700
0700
0700
ENDCHAR
STARTCHAR 4EBF
ENCODING 20159
SWIDTH 1000 0
DWIDTH 24 0
BBX 23 24 1 -3
BITMAP
0C0000
0C0000
0F000C
1F7FFE
1F7FFE
1C000E
38003C
3C007C
3C0070
DC01E0
DC07E0
1C0780
1C0E00
1C1E00
1C1C00
1C7000
1C700C
1C700C
1CE00C
1CE00C
1CE00E
1C7FFE
1C7FFE
1C1FFC
ENDCHAR
STARTCHAR 4EC0
ENCODING 20160
SWIDTH 1000 0
DWIDTH 24 0
BBX 23 24 1 -3
BITMAP
060300
060300
070380
070380
1F0380
1E0380
180380
180380
3E038C
3EFFFE
3EFFFE
DE0380
1E0380
1E0380
1E0380
1E0380
1E0380
1E0380
1E0380
1E0380
1E0380
1E0380
1E0380
180300
ENDCHAR
STARTCHAR 4EC1
ENCODING 20161
SWIDTH 1000 0
DWIDTH 24 0
BBX 23 24 1 -3
BITMAP
030000
0FC000
0FC000
0F0030
1FFFFC
1CFFFC
380000
FC0000
DC0000
1C0000
1C0000
1C0000
1C0000
1C0000
1C0000
1C0000
1C0000
1C0000
1C000C
1FFFFE
1FFFFE
1C0000
1C0000
1C0000
ENDCHAR
STARTCHAR 4EC2
ENCODING 20162
SWIDTH 1000 0
DWIDTH 24 0
BBX 23 24 1 -3
BITMAP
030C00
030C00
0FCE00
0F0E00
1F0E0C
1C0E0C
38FFFE
38FFFE
DC0E3C
1C0E3C
1C0E3C
1C0E3C
1C0E3C
1C0E3C
1C0E3C
1C1E3C
1C1E3C
1C1C3C
1C703C
1C707C
1CE670
1FC1F0
1FC1F0
1B0060
ENDCHAR
STARTCHAR 4EC3
ENCODING 20163
SWIDTH 1000 0
DWIDTH 24 0
BBX 23 24 1 -3
BITMAP
030000
0FC00C
0FC00C
0F7FFE
1F7FFE
1C01E0
3801E0
FC01E0
DC01E0
1C01E0
1C01E0
1C01E0
1C01E0
1C01E0
1C01E0
1C01E0
1C01E0
1C01E0
1C01E0
1C0DE0
1C0DE0
1C03E0
1C03E0
1C0180
ENDCHAR
STARTCHAR 4EC4
ENCODING 20164
SWIDTH 1000 0
DWIDTH 24 0
BBX 23 24 1 -3
BITMAP
300030
3FFFF8
3FFFF8
381800
381C00
381C00
381C00
381C00
381C00
381C00
381C00
381C00
381C00
381C00
381C00
381F00
387F00
387F00
38FB80
38FB80
3BE1C0
37007E
FF007E
D80038
ENDCHAR
STARTCHAR 4EC5
ENCODING 20165
SWIDTH 1000 0
DWIDTH 24 0
BBX 23 24 1 -3
BITMAP
060000
070030
070030
077FF8
1F7FF8
1E00F0
1860F0
3E60F0
3E60F0
3E31C0
FE31C0
DE31C0
1E0DC0
1E0FC0
1E0F80
1E0600
1E0F80
1E0F80
1E3DC0
1E3DC0
1E70F8
1EF0FE
1FE03E
1B0018
ENDCHAR
STARTCHAR 4EC6
ENCODING 20166
SWIDTH 1000 0
DWIDTH 24 0
BBX 23 24 1 -3
BITMAP
030F00
0FCF00
0FCF00
0F0F00
1F0F00
1C0F00
380F00
FC0F80
DC0F80
1C0F60
1C0F70
1C0F70
1C0F3C
1C0F3E
1C0F3E
1C0F0C
1C0F0C
1C0F00
1C0F00
1C0F00
1C0F00
1C0F00
1C0F00
1C0C00
ENDCHAR
STARTCHAR 4EC7
ENCODING 20167
SWIDTH 1000 0
DWIDTH 24 0
BBX 23 24 1 -3
BITMAP
031800
031800
0FDC00
0F1C00
1F1C00
1C1C00
381CC0
381CC0
DCFFF0
1C1DC0
1C1DC0
1C1DC0
1C1DC0
1C1DC0
1C1DC0
1C1DC0
1C1DC0
1C79C0
1C79D8
1C79D8
1CE1D8
1CC1FE
1CC1FE
1B00F8
ENDCHAR
STARTCHAR 4EC9
ENCODING 20169
SWIDTH 1000 0
DWIDTH 24 0
BBX 23 24 1 -3
BITMAP
0310C0
0FDFF0
0FDFF0
0F1DC0
1F1DC0
1C1DC0
381DC0
381DC0
DC1DC0
1C1DC0
1C1DC0
1C1DC0
1C1DC0
1C1DC0
1C1DC0
1C1DC0
1C1DC0
1C1DC0
1C71D8
1C71D8
1C71D8
1CE1FE
1CE1FE
1B00F8
ENDCHAR
STARTCHAR 4ECA
ENCODING 20170
SWIDTH 1000 0
DWIDTH 24 0
BBX 23 24 1 -3
BITMAP
001000
001C00
001C00
007C00
00FE00
00EE00
03C780
03C780
0F61E0
1F71F0
1C1070
381C3E
C0118C
CFFFEC
0FFFE0
000780
000780
000780
000E00
000E00
000E00
001C00
001C00
001C00
ENDCHAR
STARTCHAR 4ECB
ENCODING 20171
SWIDTH 1000 0
DWIDTH 24 0
BBX 22 24 1 -3
BITMAP
003000
003C00
003C00
00F000
01FE00
01CE00
078700
0F87E0
0E01E0
1C00FC
FE06FC
E60618
078700
078700
078700
078700
078700
078700
078700
078700
0E0700
0E0700
1C0700
100600
ENDCHAR
STARTCHAR 4ECD
ENCODING 20173
SWIDTH 1000 0
DWIDTH 24 0
BBX 23 24 1 -3
BITMAP
060030
060030
077FFC
077FFC
1F1C70
1E1C70
181C70
3E1C70
3E1C60
3E1D8C
FE1DFE
DE1DFE
1E1C3C
1E1C3C
1E1C3C
1E703C
1E703C
1E703C
1E703C
1E703C
1EE03C
1EE1FC
1F81F0
1B0060
ENDCHAR
STARTCHAR 4ECE
ENCODING 20174
SWIDTH 1000 0
DWIDTH 24 0
BBX 23 24 1 -3
BITMAP
040200
0783E0
0783E0
070380
070380
070380
070380
070380
070380
070380
070380
070380
070380
070380
070380
0783E0
1FEFE0
1CEE60
1C7E70
3C7E7C
381C3C
20103E
E0703E
C0600C
ENDCHAR
STARTCHAR 4ED1
ENCODING 20177
SWIDTH 1000 0
DWIDTH 24 0
BBX 23 24 1 -3
BITMAP
001800
007C00
007C00
007800
00FC00
00EC00
03C380
0FC3E0
0F01E0
1C01FC
1C01FC
3BC33E
C3CF8C
C3DF8C
03DF00
03DC00
03FC00
03F800
0FC000
0FC030
03C030
03FFFC
03FFFC
007FF0
ENDCHAR
STARTCHAR 4ED3
ENCODING 20179
SWIDTH 1000 0
DWIDTH 24 0
BBX 23 24 1 -3
BITMAP
003000
007C00
007C00
007000
00FC00
00EC00
038380
0783E0
0701E0
1F01FC
3FFFFE
3BFFFE
C3838C
C3838C
038380
038380
038F80
038F80
038330
038330
038030
03FFFC
03FFFC
00FFF0
ENDCHAR
STARTCHAR 4ED4
ENCODING 20180
SWIDTH 1000 0
DWIDTH 24 0
BBX 23 24 1 -3
BITMAP
030000
0FC030
0FC030
0F7FFC
1F7FFC
1C0070
3801E0
FC01E0
DC0180
1C0300
1C0380
1C0380
1C038C
1CFFFE
1CFFFE
1C0380
1C0380
1C0380
1C0380
1C0380
1C0380
1C1F00
1C1F00
180C00
ENDCHAR
STARTCHAR 4ED5
ENCODING 20181
SWIDTH 1000 0
DWIDTH 24 0
BBX 23 24 1 -3
BITMAP
030380
0FC380
0FC380
0F0380
1F0380
1C0380
38038C
FCFFFE
DCFFFE
1C0380
1C0380
1C0380
1C0380
1C0380
1C0380
1C0380
1C0380
1C0380
1C0380
1C03B0
1C03B0
1C7FFC
1C7FFC
1C0000
ENDCHAR
STARTCHAR 4ED6
ENCODING 20182
SWIDTH 1000 0
DWIDTH 24 0
BBX 23 24 1 -3
BITMAP
060300
060300
070380
070380
1F0398
1E6398
1873FE
3E7FFE
3E7FB8
3FF3B8
FFF3B8
DE73B8
1E73B8
1E73F8
1E73F8
1E73B0
1E73B0
1E7000
1E7018
1E7018
1E7018
1E7FFE
1E7FFE
183FF8
ENDCHAR
STARTCHAR 4ED7
ENCODING 20183
SWIDTH 1000 0
DWIDTH 24 0
BBX 23 24 1 -3
BITMAP
030180
0FC1E0
0FC1E0
0F01E0
1F01E0
1C01E0
3801EC
FCFFFE
DCFFFE
1C01E0
1C61E0
1C61E0
1C19E0
1C19E0
1C1DE0
1C1FE0
1C0F80
1C0380
1C0FE0
1C0FE0
1C0F7C
1C1F7E
1CFC3E
1CE00C
ENDCHAR
STARTCHAR 4ED8
ENCODING 20184
SWIDTH 1000 0
DWIDTH 24 0
BBX 23 24 1 -3
BITMAP
00C060
00C060
03E070
03C070
07C076
07C076
077FFE
077FFE
1F0070
3F1870
3F1870
371C70
C70F70
C70F70
070F70
070C70
070C70
070070
070070
070070
070370
0701F0
0701F0
070060
ENDCHAR
STARTCHAR 4ED9
ENCODING 20185
SWIDTH 1000 0
DWIDTH 24 0
BBX 23 24 1 -3
BITMAP
0C0300
0C0300
0F0380
1F0380
1F0380
1C0380
380380
3C0380
3CE38E
DCE38E
DCE38E
1CE38E
1CE38E
1CE38E
1CE38E
1CE38E
1CE38E
1CE38E
1CE38E
1CE38E
1CFFFE
1CE00E
1CE00E
1C0000
ENDCHAR
STARTCHAR 4EDD
ENCODING 20189
SWIDTH 1000 0
DWIDTH 24 0
BBX 23 24 1 -3
BITMAP
007800
00FC00
00FC00
03CF00
0FCFE0
0F03E0
1C01FE
3C01FE
20003C
C00300
CFFF80
0FFF80
007800
007800
007800
007800
007800
007800
007800
007800
007800
007860
3FFFF0
3FFFF0
ENDCHAR
STARTCHAR 4EDE
ENCODING 20190
SWIDTH 1000 0
DWIDTH 24 0
BBX 23 24 1 -3
BITMAP
030000
0FC018
0FC018
0F7FFE
1F7FFE
1C03B8
3803B8
FC1BB8
DC1BB8
1C7BB8
1C7FB8
1C1FB8
1C03B8
1C0FB8
1C0E38
1C0E38
1C0E38
1C0E38
1C1C38
1C1C38
1C79B8
1C79F8
1CE0F8
18C030
ENDCHAR
STARTCHAR 4EDF
ENCODING 20191
SWIDTH 1000 0
DWIDTH 24 0
BBX 23 24 1 -3
BITMAP
030030
0FC0FC
0FC1FC
0F1FF0
1F1FF0
1C0380
380380
FC0380
DC0380
1C038C
1CFFFE
1CFFFE
1C0380
1C0380
1C0380
1C0380
1C0380
1C0380
1C0380
1C0380
1C0380
1C0380
1C0380
1C0300
ENDCHAR
STARTCHAR 4EE1
ENCODING 20193
SWIDTH 1000 0
DWIDTH 24 0
BBX 23 24 1 -3
BITMAP
030300
0FCF80
0FCF80
0F0F00
1F1F0C
1C3C0C
383FFE
FC7FFE
DC7000
1C0030
1C3FFC
1C3FFC
1C0070
1C03F0
1C03E0
1C0F00
1C3F00
1C3C00
1C700C
1C700C
1C700C
1C7FFE
1C7FFE
183FFC
ENDCHAR
STARTCHAR 4EE3
ENCODING 20195
SWIDTH 1000 0
DWIDTH 24 0
BBX 23 24 1 -3
BITMAP
060C60
060C60
070F70
070F3C
1F0F3C
1E0F30
180F0C
3EFFFE
3EFFFE
3E0F00
FE0F00
DE0F00
1E0F00
1E0F80
1E0380
1E0380
1E0380
1E01E0
1E01E6
1E01F6
1E0076
1E007E
1E007E
18003C
ENDCHAR
STARTCHAR 4EE4
ENCODING 20196
SWIDTH 1000 0
DWIDTH 24 0
BBX 23 24 1 -3
BITMAP
001000
001C00
001C00
007C00
007C00
00EE00
03EF80
03C380
0F61E0
1C1070
3C1C7E
381C3E
C0118C
CFFFEC
0FFFE0
000380
00CF80
00CE00
006C00
007C00
007000
001C00
001C00
001000
ENDCHAR
STARTCHAR 4EE5
ENCODING 20197
SWIDTH 1000 0
DWIDTH 24 0
BBX 23 24 1 -3
BITMAP
000300
000300
2303C0
3883C0
3883C0
38E3C0
38E3C0
38E3C0
3883C0
3803C0
3803C0
3803C0
3803C0
3803C0
3807C0
386730
3BEF38
3B8E38
3F0E38
3F0E38
FC381E
20701E
23F01E
038018
ENDCHAR
STARTCHAR 4EE8
ENCODING 20200
SWIDTH 1000 0
DWIDTH 24 0
BBX 23 24 1 -3
BITMAP
030000
0FC030
0FC030
0F7FFC
1F7FFC
1C0000
380000
380000
DC0000
1C0060
1C1FF0
1C1FF0
1C0000
1C0000
1C0000
1C0000
1C0000
1C0000
1C0000
1C000C
1C000C
1CFFFE
1CFFFE
180000
ENDCHAR
STARTCHAR 4EEA
ENCODING 20202
SWIDTH 1000 0
DWIDTH 24 0
BBX 23 24 1 -3
BITMAP
0C0C00
0C0C00
0F0E00
1F0FB0
1F0FB8
1C03B8
38623E
3C7A3E
3C783E
DC18F8
DC1CF8
1C1CF0
1C0DC0
1C0FC0
1C0FC0
1C0380
1C0F80
1C0F80
1C1DC0
1C7DF0
1C78F0
1C60FE
1CE0FE
1CC038
ENDCHAR
STARTCHAR 4EEB
ENCODING 20203
SWIDTH 1000 0
DWIDTH 24 0
BBX 23 24 1 -3
BITMAP
030180
0FC1E0
0FC1E0
0F03E0
1F03E0
1C0380
380F00
FC0F30
DC0C30
1C1C7C
1C7DFC
1C79F0
1C61E0
1CE3E0
1CC380
1C0F00
1C0F30
1C0F30
1C0C0C
1C1C0C
1C1DFE
1C7F8E
1C7F8E
18180C
ENDCHAR
STARTCHAR 4EEC
ENCODING 20204
SWIDTH 1000 0
DWIDTH 24 0
BBX 23 24 1 -3
BITMAP
066000
066000
07780C
071BFE
1FDBFE
1EC03C
18E03C
18E03C
3EE03C
3EE03C
3EE03C
DEE03C
1EE03C
1EE03C
1EE03C
1EE03C
1EE03C
1EE03C
1EE03C
1EE03C
1EE03C
1EE1FC
1EE1FC
18C030
ENDCHAR
STARTCHAR 4EF0
ENCODING 20208
SWIDTH 1000 0
DWIDTH 24 0
BBX 23 24 1 -3
BITMAP
0C0C00
0F1F0C
0F1F0C
1F7BFE
1FFBFE
1CE38E
38E38E
3CE38E
3CE38E
DCE38E
DCE38E
1CE38E
1CE38E
1CE3EE
1CE3EE
1CE3BE
1CFFBE
1CFF8C
1CFB80
1CFB80
1CC380
1C0380
1C0380
1C0300
ENDCHAR
STARTCHAR 4EF2
ENCODING 20210
SWIDTH 1000 0
DWIDTH 24 0
BBX 23 24 1 -3
BITMAP
030380
0FC380
0FC380
0F0380
1F038C
1C038C
387FFE
387FFE
DC73BC
DC73BC
1C73BC
1C73BC
1C73BC
1C73BC
1C7FFC
1C7FFC
1C738C
1C0380
1C0380
1C0380
1C0380
1C0380
1C0380
180300
ENDCHAR
STARTCHAR 4EF3
ENCODING 20211
SWIDTH 1000 0
DWIDTH 24 0
BBX 23 24 1 -3
BITMAP
036180
0FF9C0
0FF9C0
0F79D8
1F79DE
1C79DE
3879DE
FC7FDE
DC7FDE
1C79D8
1C79D8
1C79F0
1C79F0
1C79F0
1C79C0
1C79C0
1C79C0
1C79C0
1C7FC0
1CFFC0
1CF9C0
1C61FE
1C61FE
1800F8
ENDCHAR
STARTCHAR 4EF5
ENCODING 20213
SWIDTH 1000 0
DWIDTH 24 0
BBX 23 24 1 -3
BITMAP
030C00
0FCF00
0FCF00
0F1C30
1F1FFC
1C1FFC
387B80
387B80
DC0380
1C0380
1C038C
1C038C
1CFFFE
1CFFFE
1C0380
1C0380
1C0380
1C0380
1C0380
1C0380
1C0380
1C0380
1C0380
180300
ENDCHAR
STARTCHAR 4EF6
ENCODING 20214
SWIDTH 1000 0
DWIDTH 24 0
BBX 23 24 1 -3
BITMAP
060300
060300
076380
077B80
1F7BB0
1E7BB0
187FFC
3EFFFC
3EE380
3EC380
FFC380
DF0380
1E038C
1E038C
1EFFFE
1E0380
1E0380
1E0380
1E0380
1E0380
1E0380
1E0380
1E0380
180300
ENDCHAR
STARTCHAR 4EF7
ENCODING 20215
SWIDTH 1000 0
DWIDTH 24 0
BBX 23 24 1 -3
BITMAP
060600
060600
070780
070F80
1F0F80
1E0F80
181DE0
3E7DFC
3E707C
3EE03E
FFF1BE
DF118C
1E1DE0
1E1DE0
1E1DE0
1E1DE0
1E1DE0
1E1DE0
1E1DE0
1E1DE0
1E71E0
1E71E0
1EE1E0
18C1E0
ENDCHAR
STARTCHAR 4EFB
ENCODING 20219
SWIDTH 1000 0
DWIDTH 24 0
BBX 23 24 1 -3
BITMAP
060060
070FF0
070FF0
06FF00
1EFF00
1E0F00
180F00
3E0F00
3E0F00
3E0F0C
FFFFFE
DFFFFE
1E0F00
1E0F00
1E0F00
1E0F00
1E0F00
1E0F00
1E0F00
1E0F30
1E0F30
1EFFFC
1EFFFC
180000
ENDCHAR
STARTCHAR 4EFD
ENCODING 20221
SWIDTH 1000 0
DWIDTH 24 0
BBX 23 24 1 -3
BITMAP
060180
060180
071980
071DC0
1F1DC0
1E1C40
187870
3E7878
3E6038
3EE03E
FEE03E
DEC018
1F7FF0
1F7FF0
1E1C70
1E1C70
1E1C70
1E1C70
1E1C70
1E1C70
1E7870
1E61F0
1EE1F0
18C040
ENDCHAR
STARTCHAR 4EFF
ENCODING 20223
SWIDTH 1000 0
DWIDTH 24 0
BBX 23 24 1 -3
BITMAP
030F00
0FCFE0
0FC3E0
0F018C
1F7FFE
1C7FFE
380F00
FC0F0C
DC0F0C
1C0FFE
1C0FFE
1C0F3C
1C0F3C
1C0F3C
1C0F3C
1C1F3C
1C1F3C
1C1C3C
1C1C3C
1C1C7C
1C7B70
1C7BF0
1C61F0
1CC060
ENDCHAR
STARTCHAR 4F01
ENCODING 20225
SWIDTH 1000 0
DWIDTH 24 0
BBX 23 23 1 -2
BITMAP
001000
001000
007C00
00EE00
00EE00
03C780
0F01E0
1F01FC
1C007C
38103E
F81C3E
C01C0C
0C1C60
0F1FF0
0F1FF0
0F1C00
0F1C00
0F1C00
0F1C00
0F1C30
0F1C30
3FFFFC
3FFFFC
ENDCHAR
STARTCHAR 4F09
ENCODING 20233
SWIDTH 1000 0
DWIDTH 24 0
BBX 23 24 1 -3
BITMAP
030E00
0FCF80
0FC780
0F078C
1F7FFE
1C7FFE
380000
FC1030
DC1030
1C1FFC
1C1FFC
1C1C70
1C1C70
1C1C70
1C1C70
1C1C70
1C1C70
1C1C70
1C1C76
1C1C76
1C1C76
1C707E
1CF07E
18C03C
ENDCHAR
STARTCHAR 4F0A
ENCODING 20234
SWIDTH 1000 0
DWIDTH 24 0
BBX 23 24 1 -3
BITMAP
0C0000
0F0030
0F0030
1FFFFC
1FFFFC
1C1C70
381C70
3FFFFE
3FFFFE
DC1C70
DC1C70
1C1C70
1CFFF0
1CFFF0
1C1C30
1C1C00
1C1C00
1C1C00
1C1C00
1C7C00
1C7800
1CE000
1FE000
1B0000
ENDCHAR
STARTCHAR 4F0D
ENCODING 20237
SWIDTH 1000 0
DWIDTH 24 0
BBX 23 24 1 -3
BITMAP
0C0000
0F0030
0F0030
0FFFFC
1FFFFC
1C1C00
181C00
7C1C00
7C1C00
7C1C30
FCFFFC
DCFFFC
1C1C70
1C1C70
1C1C70
1C1C70
1C1C70
1C1C70
1C1C70
1C1C70
1C1C70
1FFFFE
1FFFFE
1C0000
ENDCHAR
STARTCHAR 4F0E
ENCODING 20238
SWIDTH 1000 0
DWIDTH 24 0
BBX 23 24 1 -3
BITMAP
060300
070380
070380
07038C
1FFFFE
1EFFFE
180380
180380
3E03B0
3E7FFC
3E7FFC
DE1870
1E1C70
1E1DF0
1E0DE0
1E0FE0
1E0FE0
1E0380
1E0FE0
1E0FE0
1E1C7C
1E7C7E
1EF83E
18C00C
ENDCHAR
STARTCHAR 4F0F
ENCODING 20239
SWIDTH 1000 0
DWIDTH 24 0
BBX 23 24 1 -3
BITMAP
060C00
070F40
070F40
070F70
1F0F70
1E0F70
180F00
3EFFF8
3EFFF8
3E0F00
FE0F00
DE0F00
1E1F80
1E1F80
1E1D80
1E1DC0
1E7DC0
1E7040
1E7070
1EF078
1EE038
1E803E
1F803E
1B0008
ENDCHAR
STARTCHAR 4F10
ENCODING 20240
SWIDTH 1000 0
DWIDTH 24 0
BBX 23 24 1 -3
BITMAP
008CC0
03EEF0
03EEF0
038E38
078E38
078E30
070E3E
1F0FFE
1F0FF0
3FFE18
3FFE3E
370E3E
C70EF8
C70FF8
0707F0
0707C0
070FC0
070FC0
071DC6
077DF6
0770F6
0780FE
0780FE
070038
ENDCHAR
STARTCHAR 4F11
ENCODING 20241
SWIDTH 1000 0
DWIDTH 24 0
BBX 23 24 1 -3
BITMAP
030380
0FC380
0FC380
0F0380
1F038C
1C038C
387FFE
FC7FFE
DC0F80
1C0FE0
1C1FE0
1C1FE0
1C1FB0
1C1FB0
1C1BB0
1C7BBC
1C7BBE
1C638E
1CC38E
1CC38E
1C038C
1C0380
1C0380
1C0300
ENDCHAR
STARTCHAR 4F17
ENCODING 20247
SWIDTH 1000 0
DWIDTH 24 0
BBX 22 24 1 -3
BITMAP
003000
00F800
00F800
01DE00
01DE00
078700
0F87E0
0E03E0
1C00FC
E60618
E78718
078700
078700
078700
078700
078700
0FC780
0FC7C0
0EFEE0
1EFEF8
1CDE78
70387C
F0F87C
C0C018
ENDCHAR
STARTCHAR 4F18
ENCODING 20248
SWIDTH 1000 0
DWIDTH 24 0
BBX 23 24 1 -3
BITMAP
060C40
070E70
070E70
070E3C
1F0E3C
1E0E30
180E00
3EFFFC
3EFFFC
3E0E00
3E0E00
DE0F80
1E3DC0
1E3DC0
1E3DC0
1E3DC0
1E3DC0
1E3DC0
1E71C6
1E71C6
1E71C6
1EE1FE
1EE1FE
1B007E
ENDCHAR
STARTCHAR 4F19
ENCODING 20249
SWIDTH 1000 0
DWIDTH 24 0
BBX 23 24 1 -3
BITMAP
0C0300
0F03E0
0F03E0
1F0380
1F638C
1C638C
38638E
3C7BBE
3C7BBC
DCFBF0
DCFBF0
1C6380
1C0380
1C0FE0
1C0FE0
1C0F60
1C1F70
1C1C70
1C1C70
1C1C7C
1C783C
1C603E
1C603E
18C00C
ENDCHAR
STARTCHAR 4F1A
ENCODING 20250
SWIDTH 1000 0
DWIDTH 24 0
BBX 23 24 1 -3
BITMAP
003C00
003C00
007000
01FC00
01FC00
038F00
0F03E0
1F03FC
1C037C
3BFFBE
FBFFBE
C0000C
000060
1FFFF0
1FFFF0
01E300
03E380
038180
0F01E0
0F01E0
1FFFE0
1FFFF0
1FF070
0C0060
ENDCHAR
STARTCHAR 4F1B
ENCODING 20251
SWIDTH 1000 0
DWIDTH 24 0
BBX 23 24 1 -3
BITMAP
030000
0FDC18
0FDC18
0F1FFE
1F1FFE
1C1C00
381C18
381C18
DC1F1E
1C1DB8
1C1DB8
1C1DF0
1C1C70
1C1C70
1C1DB8
1C1F1E
1C1F1E
1C1C18
1C1C00
1C1C18
1C1C18
1C1FFE
1C1FFE
181C00
ENDCHAR
STARTCHAR 4F1E
ENCODING 20254
SWIDTH 1000 0
DWIDTH 24 0
BBX 23 24 1 -3
BITMAP
001800
007C00
007C00
007800
00FC00
00EC00
03C380
03FB80
0779E0
1E787C
1E787C
3879BE
C679EC
C77BEC
077B80
037B0C
FFFFFE
FFFFFE
007800
007800
007800
007800
007800
007800
ENDCHAR
STARTCHAR 4F1F
ENCODING 20255
SWIDTH 1000 0
DWIDTH 24 0
BBX 23 24 1 -3
BITMAP
0C0C00
0F0F30
0F0F30
0FFFFC
1FFFFC
1C0F00
180F60
7CFFF0
7CFFF0
7C0F00
7C0F00
DC0F0C
DFFFFE
1FFFFE
1C0F3C
1C0F3C
1C0F3C
1C0F3C
1C0F7C
1C0F7C
1C0F30
1C0F00
1C0F00
1C0F00
ENDCHAR
STARTCHAR 4F20
ENCODING 20256
SWIDTH 1000 0
DWIDTH 24 0
BBX 23 24 1 -3
BITMAP
060300
070F80
070F80
070F30
1FFFFC
1EFFFC
180F00
3E1F0C
3E1C0C
3FFFFE
FFFFFE
DE1C00
1E7830
1EFFFC
1EFFFC
1E6070
1E6070
1E01E0
1E1D80
1E1FE0
1E0FE0
1E01F0
1E01F0
180060
ENDCHAR
STARTCHAR 4F22
ENCODING 20258
SWIDTH 1000 0
DWIDTH 24 0
BBX 23 24 1 -3
BITMAP
030000
0FDFFC
0FDFFC
0F0E70
1F0E70
1C0E70
381C70
FC1C70
DC1C70
1C7FFE
1C7FFE
1C01F0
1C03F0
1C0FF0
1C0FF0
1C0E70
1C0E70
1C1C70
1C7070
1C7070
1CE070
1C03F0
1C03F0
1801E0
ENDCHAR
STARTCHAR 4F24
ENCODING 20260
SWIDTH 1000 0
DWIDTH 24 0
BBX 23 24 1 -3
BITMAP
060C00
070F00
070F00
073C0C
1F3FFE
1E3FFE
187000
187000
3EEF00
3FEF0C
3F0F0C
DEFFFE
DEFFFE
1E0F3C
1E0F3C
1E0F3C
1E0F3C
1E3C3C
1E3C3C
1E7C3C
1E703C
1EE1F0
1FE1F0
1B0060
ENDCHAR
STARTCHAR 4F25
ENCODING 20261
SWIDTH 1000 0
DWIDTH 24 0
BBX 23 24 1 -3
BITMAP
031800
0FDC0C
0FDC0C
0F1C3E
1F1C3E
1C1C3C
381C70
381C70
DC1F80
1C1C0C
1CFFFE
1CFFFE
1C1D80
1C1D80
1C1D80
1C1C60
1C1C70
1C1C70
1C1C3C
1C1C3C
1C1DBE
1C7F0E
1C7F0E
181C0C
ENDCHAR
STARTCHAR 4F26
ENCODING 20262
SWIDTH 1000 0
DWIDTH 24 0
BBX 23 24 1 -3
BITMAP
030200
0FCF80
0FCF80
0F0E00
1F1F80
1C1F80
381C70
FC7C7C
DC783C
1C600E
1C600E
1CDC00
1C1C7C
1C1C7C
1C1C70
1C1DC0
1C1FC0
1C1F80
1C7C00
1CFC0C
1CDC0C
1C1FFE
1C1FFE
1C0FFC
ENDCHAR
STARTCHAR 4F27
ENCODING 20263
SWIDTH 1000 0
DWIDTH 24 0
BBX 23 24 1 -3
BITMAP
030300
0FC380
0FC380
0F0F80
1F0FE0
1C0FE0
381C70
381C70
DC783C
1C600E
1C600E
1CDFFC
1C1C70
1C1C70
1C1C70
1C1DF0
1C1DF0
1C1C60
1C1C00
1C1C0C
1C1C0C
1C1FFE
1C1FFE
180FFC
ENDCHAR
STARTCHAR 4F2A
ENCODING 20266
SWIDTH 1000 0
DWIDTH 24 0
BBX 23 24 1 -3
BITMAP
0C6F00
0F7F00
0F1F00
1F0F0C
1FFFFE
1CFFFE
380F3C
3C0F3C
3C0F3C
DC0F3C
DC0FBC
1C0FBC
1C0F7C
1C0F7C
1C0F3C
1C0F3C
1C0F3C
1C0F3C
1C0F3C
1C1F3C
1C1C3C
1C61FC
1CE1FC
1CC070
ENDCHAR
STARTCHAR 4F2B
ENCODING 20267
SWIDTH 1000 0
DWIDTH 24 0
BBX 23 24 1 -3
BITMAP
030300
0FC380
0FC380
0F03E0
1F1BEC
1C198C
387FFE
387FFE
DC780E
1C600C
1C600C
1C0000
1C0000
1C0000
1C0000
1C0000
1C0000
1C0000
1C000C
1C000C
1C7FFE
1C0000
1C0000
180000
ENDCHAR
STARTCHAR 4F2F
ENCODING 20271
SWIDTH 1000 0
DWIDTH 24 0
BBX 23 24 1 -3
BITMAP
030180
0FC3E0
0FC3E0
0F0F80
1F1F8C
1C1C0C
387FFE
FC7FFE
DC1C3C
1C1C3C
1C1C3C
1C1C3C
1C1C3C
1C1FFC
1C1FFC
1C1C3C
1C1C3C
1C1C3C
1C1C3C
1C1C3C
1C1C3C
1C1FFC
1C1FFC
1C1C3C
ENDCHAR
STARTCHAR 4F30
ENCODING 20272
SWIDTH 1000 0
DWIDTH 24 0
BBX 23 24 1 -3
BITMAP
0C0300
0C0300
0F0380
1F0380
1F038C
1C038C
38FFFE
3CFFFE
3C0380
DC0380
DC6380
1C638C
1C7FFE
1C7FFE
1C783C
1C783C
1C783C
1C783C
1C783C
1C783C
1C7FFC
1C7FFC
1C783C
186030
ENDCHAR
STARTCHAR 4F32
ENCODING 20274
SWIDTH 1000 0
DWIDTH 24 0
BBX 23 24 1 -3
BITMAP
03600C
0FFFFE
0FFFFE
0F783C
1F783C
1C783C
38783C
FC7FFC
DC7FFC
1C780C
1C7B0C
1C7B00
1C7B8C
1C7B8C
1C7BBE
1C7BBE
1C7BBC
1C7BBC
1C7BBC
1C7BB0
1C63E0
1CCF86
1CCFFE
1801FC
ENDCHAR
STARTCHAR 4F34
ENCODING 20276
SWIDTH 1000 0
DWIDTH 24 0
BBX 23 24 1 -3
BITMAP
030300
030300
0FE38C
0F7B8E
1F7FBE
1C1FBC
381BB0
FC1BF0
DC03E0
1C7FFC
1C7FFC
1C0380
1C0380
1C0380
1C0380
1C0380
1C0380
1CFFFE
1C0380
1C0380
1C0380
1C0380
1C0380
1C0300
ENDCHAR
STARTCHAR 4F36
ENCODING 20278
SWIDTH 1000 0
DWIDTH 24 0
BBX 23 24 1 -3
BITMAP
060E00
060E00
070E00
071F80
1F1FC0
1E1DC0
1878F0
3E7CF8
3E6C38
3ECE3E
3ECE3E
DF02C8
DF7FF8
1E7FF0
1E01C0
1E01C0
1E63C0
1E6380
1E1E00
1E1E00
1E0E00
1E0380
1E0380
180200
ENDCHAR
STARTCHAR 4F38
ENCODING 20280
SWIDTH 1000 0
DWIDTH 24 0
BBX 23 24 1 -3
BITMAP
030380
0FC380
0FC380
0F0380
1F7398
1C7398
387FFE
FC7FFE
DC73B8
1C73B8
1C7FF8
1C7FF8
1C73B8
1C73B8
1C73B8
1C7FF8
1C7FF8
1C73B8
1C0380
1C0380
1C0380
1C0380
1C0380
1C0300
ENDCHAR
STARTCHAR 4F3A
ENCODING 20282
SWIDTH 1000 0
DWIDTH 24 0
BBX 23 24 1 -3
BITMAP
03000C
077FFE
077FFE
07003C
1F003C
1C003C
38FFFC
FCFFFC
DC61BC
1C7FFC
1C7FFC
1C7BBC
1C7BBC
1C7BBC
1C7BBC
1C7FBC
1C7FBC
1C633C
1C003C
1C01BC
1C01BC
1C007C
1C007C
1C0030
ENDCHAR
STARTCHAR 4F3C
ENCODING 20284
SWIDTH 1000 0
DWIDTH 24 0
BBX 23 24 1 -3
BITMAP
060180
060180
0701C0
07C1C0
1FE1C0
1EE1C0
18F9C0
18F9C0
3EEDC0
3EEFC0
3EEFC0
DEEDC0
1EE1C0
1EE1C0
1EE1C0
1EEDC0
1EEDC0
1EFFF0
1FE7B8
1FEFBE
1ECE0E
1E1C0E
1E7C0E
186008
ENDCHAR
STARTCHAR 4F3D
ENCODING 20285
SWIDTH 1000 0
DWIDTH 24 0
BBX 23 24 1 -3
BITMAP
0CC000
0FE000
0FE000
1CE186
1CEDFE
1CEDFE
3BFFEE
3FFFEE
3CEDEE
DCEDEE
DCEDEE
1CEDEE
1CEDEE
1CEDEE
1CEDEE
1CEDEE
1CEDEE
1CEDEE
1CCDEE
1CCDFE
1CCDFE
1F7D8C
1F7D8C
1B1800
ENDCHAR
STARTCHAR 4F43
ENCODING 20291
SWIDTH 1000 0
DWIDTH 24 0
BBX 22 24 1 -3
BITMAP
030000
0FC000
0FC000
0F0000
0F0000
1CC030
38FFFC
FCFFFC
DCEE70
1CEE70
1CEE70
1CEE70
1CFFF0
1CFFF0
1CEE70
1CEE70
1CEE70
1CEE70
1CEE70
1CEE70
1CFFF0
1CC060
1CC060
1C0000
ENDCHAR
STARTCHAR 4F46
ENCODING 20294
SWIDTH 1000 0
DWIDTH 24 0
BBX 23 24 1 -3
BITMAP
060000
07180C
07180C
071FFE
1F1FFE
1E1C3C
181C3C
181C3C
3E1C3C
3E1FFC
3E1FFC
DE1C3C
1E1C3C
1E1C3C
1E1FFC
1E1830
1E1830
1E0000
1E0000
1E000C
1E000C
1EFFFE
1EFFFE
180000
ENDCHAR
STARTCHAR 4F4D
ENCODING 20301
SWIDTH 1000 0
DWIDTH 24 0
BBX 23 24 1 -3
BITMAP
061800
061800
070F00
070F80
1F03B0
1E0330
18FFFC
3EFFFC
3E0000
3E0060
FEC070
DEC070
1EE1E0
1EF9E0
1E79E0
1E7980
1E7980
1E6380
1E6380
1E0F0C
1E0C0C
1FFFFE
1FFFFE
180000
ENDCHAR
STARTCHAR 4F4E
ENCODING 20302
SWIDTH 1000 0
DWIDTH 24 0
BBX 23 24 1 -3
BITMAP
060030
0663FC
0763FC
077FFC
1F7FE0
1E79E0
1879E0
3E79EC
3E79EC
3E7FFE
FE7FFE
DE79E0
1E79E0
1E79E0
1E79E0
1E7870
1E7870
1E7870
1E7B76
1E7B76
1E7BB6
1EFFBE
1EFFBE
18630C
ENDCHAR
STARTCHAR 4F4F
ENCODING 20303
SWIDTH 1000 0
DWIDTH 24 0
BBX 23 24 1 -3
BITMAP
061C00
071F80
070F80
070330
1F7FFC
1E7FFC
180380
180380
3E0380
3E0380
3E0380
DE0380
1E1FF0
1E1FF0
1E0380
1E0380
1E0380
1E0380
1E0380
1E038C
1E038C
1EFFFE
1EFFFE
180000
ENDCHAR
STARTCHAR 4F50
ENCODING 20304
SWIDTH 1000 0
DWIDTH 24 0
BBX 23 24 1 -3
BITMAP
030F00
0FCF0C
0FCF0C
0F7FFE
1F7FFE
1C0F00
380F00
380F00
DC0F00
1C1C00
1C1C30
1C1C30
1C7FFC
1C7FFC
1C6380
1CC380
1FC380
1F0380
1C0380
1C0380
1C0380
1C038C
1CFFFE
18FFFE
ENDCHAR
STARTCHAR 4F51
ENCODING 20305
SWIDTH 1000 0
DWIDTH 24 0
BBX 23 24 1 -3
BITMAP
030E00
0FCE18
0FCE18
0F7FFE
1F7FFE
1C0E00
380E00
FC1E00
DC1C00
1C7800
1C7818
1C7818
1CDFFE
1FDFFE
1F1C38
1C1C38
1C1C38
1C1C38
1C1C38
1C1C38
1C1C38
1C1FF8
1C1FF8
1C1838
ENDCHAR
STARTCHAR 4F53
ENCODING 20307
SWIDTH 1000 0
DWIDTH 24 0
BBX 23 24 1 -3
BITMAP
060C00
060C00
070F00
070F00
1F0F30
1E0F30
18FFFC
18FFFC
3E0F00
3E1F80
3E1F80
DE1F80
DE7FE0
1E7F60
1E7F60
1E7F70
1E6F70
1EEF3C
1EFFFE
1EFFFE
1F0F0C
1F0F0C
1E0F00
180F00
ENDCHAR
STARTCHAR 4F55
ENCODING 20309
SWIDTH 1000 0
DWIDTH 24 0
BBX 23 24 1 -3
BITMAP
060000
07000C
07000C
07FFFE
1FFFFE
1E0070
18C670
18C670
3EFFF0
3EFFF0
3EEE70
DEEE70
DEEE70
1EEE70
1EEE70
1EFE70
1EFE70
1ECC70
1ECC70
1E0070
1E0670
1E07F0
1E01F0
180060
ENDCHAR
STARTCHAR 4F57
ENCODING 20311
SWIDTH 1000 0
DWIDTH 24 0
BBX 23 24 1 -3
BITMAP
030C00
0FCE00
0FC600
0F6786
1FFFFE
1CFFFE
38E00E
FCEC0E
DC6C0C
1C0E00
1C0E30
1C0E30
1C0E7C
1C0FFC
1C0FF0
1C0F80
1C0F80
1C3E0C
1C7E0C
1C7E0C
1CCE0E
1C0FFC
1C0FFC
1807F0
ENDCHAR
STARTCHAR 4F58
ENCODING 20312
SWIDTH 1000 0
DWIDTH 24 0
BBX 23 24 1 -3
BITMAP
001800
001800
007800
00FC00
00FC00
03CF00
0703E0
1F03F0
1E0070
38FF3E
F8FF3E
C0000C
000060
1FFFF0
1FFFF0
007800
007800
067B00
077B80
077B80
1E79F0
3EF9FC
30F87C
006030
ENDCHAR
STARTCHAR 4F59
ENCODING 20313
SWIDTH 1000 0
DWIDTH 24 0
BBX 23 24 1 -3
BITMAP
003000
00F800
00F800
01DE00
01DE00
078700
0F87E0
1E07FE
1C06FE
E7FF18
E7FF18
003800
003860
1FFFF8
1FFFF8
063E00
07BFC0
07BBC0
0E38E0
1E38F8
1C3878
61F860
61F860
003000
ENDCHAR
STARTCHAR 4F5A
ENCODING 20314
SWIDTH 1000 0
DWIDTH 24 0
BBX 23 24 1 -3
BITMAP
030300
030300
0FDB80
0F1B80
1F7FF8
1C7FF8
387B80
387B80
DCE380
1CC388
1CFFFE
1C7FFE
1C0380
1C0380
1C0380
1C03E0
1C0FF0
1C0FF0
1C0F38
1C0F38
1C1C3E
1C7C3E
1CF80E
18C008
ENDCHAR
STARTCHAR 4F5B
ENCODING 20315
SWIDTH 1000 0
DWIDTH 24 0
BBX 23 24 1 -3
BITMAP
0C1980
0C1980
0F1DC0
1F1DCC
1FFFFE
1CFFFE
381DCC
3CDDCC
3CDDCC
DCFFFC
DCFFFC
1CDDC0
1CDDC6
1CFFFE
1CFFFE
1CDDCE
1CDDCE
1C1DCE
1C1DCE
1C7DFE
1C79FE
1CE1CC
1CE1CC
18C180
ENDCHAR
STARTCHAR 4F5C
ENCODING 20316
SWIDTH 1000 0
DWIDTH 24 0
BBX 23 24 1 -3
BITMAP
060C00
070F00
070F00
071C0C
1F1FFE
1E1FFE
187F00
187F00
3E6F30
3ECFFC
3ECFFC
DE0F00
1E0F00
1E0F0C
1E0F0C
1E0FFE
1E0FFE
1E0F00
1E0F00
1E0F00
1E0F00
1E0F00
1E0F00
180F00
ENDCHAR
STARTCHAR 4F5D
ENCODING 20317
SWIDTH 1000 0
DWIDTH 24 0
BBX 23 24 1 -3
BITMAP
030600
0FCF80
0FCF80
0F0E00
1F0E00
1C1C18
387FFE
FCFFFE
DCE038
1C61B8
1C61B8
1C7FF8
1C7FB8
1C7FB8
1C7FB8
1C7FB8
1C7FB8
1C7FB8
1C6038
1C6038
1C01B8
1C00F8
1C00F8
180030
ENDCHAR
STARTCHAR 4F5E
ENCODING 20318
SWIDTH 1000 0
DWIDTH 24 0
BBX 23 24 1 -3
BITMAP
030030
0FDFFC
0FDFFC
0F0000
1F000C
1C000C
38FFFE
FCFFFE
DC0E00
1C0E60
1C1E70
1C1C70
1CFFFE
1CFFFE
1C1C70
1C7070
1C77F0
1C77E0
1C1F80
1C1F80
1C7DE0
1CFDFC
1FE07C
1B0030
ENDCHAR
STARTCHAR 4F5F
ENCODING 20319
SWIDTH 1000 0
DWIDTH 24 0
BBX 23 24 1 -3
BITMAP
031C00
0FDC30
0FDC30
0F1FFC
1F1FFC
1C1070
386C70
386C70
DC07E0
1C0780
1C0780
1C0E70
1C1C3E
1C1C3E
1C660C
1C0780
1C0780
1C01E0
1C1000
1C1000
1C0F80
1C07FC
1C07FC
180070
ENDCHAR
STARTCHAR 4F60
ENCODING 20320
SWIDTH 1000 0
DWIDTH 24 0
BBX 23 24 1 -3
BITMAP
060600
060600
070F80
070E00
1F1E0C
1E1C0C
181FFE
181FFE
3E763C
3EC7B0
FED7B0
DE1780
1E1FE0
1E7FF0
1E7FB0
1E77BC
1EF7BE
1EE78E
1F078C
1F078C
1E0780
1E1F80
1E1F80
180600
ENDCHAR
STARTCHAR 4F63
ENCODING 20323
SWIDTH 1000 0
DWIDTH 24 0
BBX 23 24 1 -3
BITMAP
030000
0FE006
0FE006
0F7FFE
1F7FFE
1C7B8E
387B8E
387B8E
DC7FFE
DC7FFE
1C7B8E
1C7B8E
1C7FFE
1C7FFE
1C7B8E
1C7B8E
1C7B8E
1C7B8E
1C7B8E
1C7B8E
1C638E
1CE3BE
1FC3BE
1B030C
ENDCHAR
STARTCHAR 4F64
ENCODING 20324
SWIDTH 1000 0
DWIDTH 24 0
BBX 23 24 1 -3
BITMAP
030018
0FFFFE
0FFFFE
0F6000
1F7800
1C7800
3878C0
FC7FF0
DC7FF0
1C79C0
1C7DC0
1C7DC0
1C7FC0
1C7FC0
1C7FC0
1C79C0
1C79C0
1C79C0
1C7FD8
1C7FD8
1CFDDE
1CF9FE
1CF9FE
1860F8
ENDCHAR
STARTCHAR 4F65
ENCODING 20325
SWIDTH 1000 0
DWIDTH 24 0
BBX 23 23 1 -2
BITMAP
001800
001800
007800
00FC00
00FC00
03CF00
0F03E0
1F03F0
1C0070
3801BE
FFFFFE
CFFFEC
000180
000180
18C1E0
0CE380
0CE380
0F7B80
0FFB80
03FF30
036C30
3FFFFC
3FFFFC
ENDCHAR
STARTCHAR 4F67
ENCODING 20327
SWIDTH 1000 0
DWIDTH 24 0
BBX 23 24 1 -3
BITMAP
030300
030300
0FC380
0F03B0
1F03FC
1C03FC
380380
380380
DC038C
1CFFFE
1CFFFE
1C0380
1C03E0
1C03E0
1C03F0
1C03FC
1C03FC
1C03BC
1C03B0
1C03B0
1C0380
1C0380
1C0380
180300
ENDCHAR
STARTCHAR 4F69
ENCODING 20329
SWIDTH 1000 0
DWIDTH 24 0
BBX 23 24 1 -3
BITMAP
030000
030000
07C00C
07FFFC
1FFFFC
1CE03C
38EFBC
FCFFFC
DCFFFC
1CE33C
1CFFFC
1CFFFC
1CFB7C
1CFB7C
1CDB6C
1CDB6C
1CDB6C
1CDBEC
1CDB6C
1CDB6C
1F030C
1C030C
1C030E
1C0306
ENDCHAR
STARTCHAR 4F6C
ENCODING 20332
SWIDTH 1000 0
DWIDTH 24 0
BBX 23 24 1 -3
BITMAP
060C00
070F00
070F00
070F30
1FFFFC
1EFFFC
180F70
180F70
3E0F60
3E0F8C
FFFFFE
DFFFFE
1E1C0C
1E7F3E
1E7F3E
1EEF70
1EEFF0
1ECFE0
1F0F0C
1F0F0C
1E0F0C
1E0FFE
1E0FFE
1803FC
ENDCHAR
STARTCHAR 4F6F
ENCODING 20335
SWIDTH 1000 0
DWIDTH 24 0
BBX 23 24 1 -3
BITMAP
0C6030
0F7C7C
0F1C7C
1F0DE0
1F7FFC
1C7FFC
380380
3C03B0
3C03B0
DC7FFC
DC7FFC
1C0380
1C038C
1CFFFE
1CFFFE
1C0380
1C0380
1C0380
1C0380
1C0380
1C0380
1C0380
1C0380
1C0300
ENDCHAR
STARTCHAR 4F70
ENCODING 20336
SWIDTH 1000 0
DWIDTH 24 0
BBX 23 24 1 -3
BITMAP
030018
0FFFFE
0FFFFE
0F0F00
1F0F00
1C0C00
383018
FC7FFE
DC7FFE
1C7038
1C7038
1C7038
1C7038
1C7FF8
1C7FF8
1C7038
1C7038
1C7038
1C7038
1C7038
1C7038
1C7FF8
1C7FF8
1C7038
ENDCHAR
STARTCHAR 4F73
ENCODING 20339
SWIDTH 1000 0
DWIDTH 24 0
BBX 23 24 1 -3
BITMAP
060300
070380
070380
0703B0
1F7FFC
1E7FFC
180380
180380
3E038C
3EFFFE
3EFFFE
DE0380
1E0380
1E03B0
1E03B0
1E7FFC
1E7FFC
1E0380
1E0380
1E0380
1E0380
1E038C
1EFFFE
18FFFE
ENDCHAR
STARTCHAR 4F74
ENCODING 20340
SWIDTH 1000 0
DWIDTH 24 0
BBX 23 24 1 -3
BITMAP
03000C
0FFFFE
0FFFFE
0F3C70
1F3C70
1C3C70
383FF0
383FF0
DC3C70
1C3C70
1C3C70
1C3FF0
1C3C70
1C3C70
1C3C70
1C3C7E
1C3C7E
1DFFF0
1C7070
1C7070
1C0070
1C0070
1C0070
180060
ENDCHAR
STARTCHAR 4F76
ENCODING 20342
SWIDTH 1000 0
DWIDTH 24 0
BBX 23 24 1 -3
BITMAP
030300
0FC380
0FC380
0F038C
1FFFFE
1CFFFE
380380
380380
DC03B0
1C7FFC
1C7FFC
1C0000
1C600C
1C600C
1C7FFE
1C783C
1C783C
1C783C
1C783C
1C783C
1C783C
1C7FFC
1C7FFC
186030
ENDCHAR
STARTCHAR 4F7B
ENCODING 20347
SWIDTH 1000 0
DWIDTH 24 0
BBX 23 24 1 -3
BITMAP
031DC0
0FDDC0
0FDDC0
0F1DD8
1F1DDE
1C1DDE
38FDF8
38FDF8
DC7DC0
1C1DC0
1C1DC0
1C1DF8
1C7DDE
1C7DDE
1CFDDE
1CDDD8
1CDDD8
1C1DC0
1C1DD8
1C1DD8
1C1DD8
1C79FE
1C79FE
18C0F8
ENDCHAR
STARTCHAR 4F7C
ENCODING 20348
SWIDTH 1000 0
DWIDTH 24 0
BBX 23 24 1 -3
BITMAP
030380
0FC3D8
0FC1D8
0F7FFE
1F7FFE
1C0CC0
380E30
380E30
DC1CF8
DC1CFE
1C18FE
1C6CD8
1CEDD8
1CCDC0
1C0380
1C0380
1C0380
1C03C0
1C0EF0
1C1EF8
1C1C38
1C783E
1CF83E
18C018
ENDCHAR
STARTCHAR 4F7E
ENCODING 20350
SWIDTH 1000 0
DWIDTH 24 0
BBX 23 24 1 -3
BITMAP
031C60
0FDDF0
0FDDF0
0F787C
1F787E
1C603E
38D80C
FCDFFE
DC1FFE
1C1C3C
1C1C3C
1C1C3C
1C1FFC
1C1FFC
1C1C3C
1C1C3C
1C1FFC
1C1FFC
1C1C3C
1C1C3C
1C1C3C
1C787C
1CF87C
18C030
ENDCHAR
STARTCHAR 4F7F
ENCODING 20351
SWIDTH 1000 0
DWIDTH 24 0
BBX 23 24 1 -3
BITMAP
040300
040300
070380
07038C
1FFFFE
1CFFFE
18638C
3C7FFE
3C7FFE
3C7BBC
FC7BBC
DC7BBC
1C7FFC
1C7FFC
1C63B0
1C1B80
1C1B80
1C0F00
1C0F80
1C0F80
1C1DF0
1C7DFE
1FF87E
1B800C
ENDCHAR
STARTCHAR 4F83
ENCODING 20355
SWIDTH 1000 0
DWIDTH 24 0
BBX 23 24 1 -3
BITMAP
031818
0FDFFE
0FDFFE
0F1C38
1F1C38
1C1C38
381C38
FC1C38
DC1C38
1C1FF8
1C1FF8
1C1DB8
1C0DB0
1C0DB0
1C0DB0
1C0DB0
1C0DB0
1C0DB0
1C0DB6
1C1DB6
1C19B6
1C603E
1CE03E
18C018
ENDCHAR
STARTCHAR 4F84
ENCODING 20356
SWIDTH 1000 0
DWIDTH 24 0
BBX 23 24 1 -3
BITMAP
0C000C
1FFFFE
1FFFFE
1C0F00
3C0F00
380F00
381C3C
381C3C
DC783E
1C1FEC
1C1FEC
1C0380
1C0380
1C03B0
1C03B0
1CFFFC
1CFFFC
1C0380
1C0380
1C0380
1C0380
1C038C
1FFFFE
1BFFFE
ENDCHAR
STARTCHAR 4F88
ENCODING 20360
SWIDTH 1000 0
DWIDTH 24 0
BBX 23 24 1 -3
BITMAP
030300
0FCF80
0FCF80
0F0F30
1F1FF8
1C1FF8
387870
FCFDF0
DCDDC0
1C0F80
1C1F80
1C1C00
1CE318
1CE318
1C0FFE
1C1C38
1C1C38
1C7F70
1CFFE0
1CC3C0
1C0380
1C1C00
1CFC00
1CE000
ENDCHAR
STARTCHAR 4F89
ENCODING 20361
SWIDTH 1000 0
DWIDTH 24 0
BBX 23 24 1 -3
BITMAP
030300
0FC380
0FC380
0F7FFC
1F7FFC
1C0F80
381DE0
FC7DF0
DC7870
1C603E
1CFFFE
1CDFEC
1C0000
1CFFFC
1CFFFC
1C1C30
1C7FFC
1C7FFC
1C1870
1C1870
1C0070
1C03E0
1C03E0
180180
ENDCHAR
STARTCHAR 4F8B
ENCODING 20363
SWIDTH 1000 0
DWIDTH 24 0
BBX 23 24 1 -3
BITMAP
0C020C
0FFF8E
0FFF8E
1F780E
1F780E
1C600E
386D8E
3CFFCE
3CFFCE
DCCDCE
DCEDCE
1CEDCE
1F7DCE
1F7DCE
1C79CE
1C1DCE
1C7FCE
1C6F8E
1CEC0E
1CEC0E
1CC00E
1F003E
1F003E
18000C
ENDCHAR
STARTCHAR 4F8D
ENCODING 20365
SWIDTH 1000 0
DWIDTH 24 0
BBX 23 24 1 -3
BITMAP
030380
0FC3B0
0FC3B0
0F1FFC
1F1FFC
1C0380
38038C
3C038C
DCFFFE
1C0070
1C0076
1C0076
1C7FFE
1C7FFE
1C1870
1C1C70
1C1F70
1C0F70
1C0C70
1C0C70
1C0370
1C01F0
1C01F0
1C0060
ENDCHAR
STARTCHAR 4F8F
ENCODING 20367
SWIDTH 1000 0
DWIDTH 24 0
BBX 23 24 1 -3
BITMAP
030380
0FF380
0FFB80
0F7BB0
1F7FFC
1C7FFC
386380
FCE380
DCC380
1C038C
1CFFFE
1CFFFE
1C0FE0
1C0FF0
1C0FF0
1C1FF0
1C1FF0
1C1FBC
1C7BBE
1C7BBE
1C638E
1CC38C
1CC38C
180300
ENDCHAR
STARTCHAR 4F91
ENCODING 20369
SWIDTH 1000 0
DWIDTH 24 0
BBX 23 24 1 -3
BITMAP
030380
0FC380
0FC380
0F038C
1FFFFE
1CFFFE
380F00
381F00
DC1C0C
DC7FFE
1C7FFE
1CDC3C
1CDC3C
1C1C3C
1C1FFC
1C1FFC
1C1C3C
1C1C3C
1C1FFC
1C1FFC
1C1C3C
1C1C7C
1C1C7C
181830
ENDCHAR
STARTCHAR 4F94
ENCODING 20372
SWIDTH 1000 0
DWIDTH 24 0
BBX 23 24 1 -3
BITMAP
030380
0FCFE0
0FCF60
0F1C70
1F7FFC
1C7BFC
387F30
FC7F30
DC0F00
1C1F80
1C7FB0
1C7BB0
1C7FFC
1CFFFC
1CC380
1C038C
1C7FFE
1C7FFE
1C0380
1C0380
1C0380
1C0380
1C0380
180300
ENDCHAR
STARTCHAR 4F97
ENCODING 20375
SWIDTH 1000 0
DWIDTH 24 0
BBX 23 24 1 -3
BITMAP
0CC018
0FFFFE
0FFFFE
1FE038
1FE038
1CE038
38FFF8
3CFFF8
3CE038
DCEFB8
DCEFB8
1CEDB8
1CEDB8
1CEDB8
1CEDB8
1CEFB8
1CEFB8
1CEDB8
1CE038
1CE1B8
1CE1B8
1CC0F8
1FC0F8
1B0030
ENDCHAR
STARTCHAR 4F9B
ENCODING 20379
SWIDTH 1000 0
DWIDTH 24 0
BBX 23 24 1 -3
BITMAP
066180
0771C0
0771C0
0771C0
1FFFFC
1EFFFC
1871C0
3E71C0
3E71C0
3E71C0
FE71C0
DE71C0
1E71CC
1FFFFE
1FFFFE
1E1180
1E7DC0
1E7CC0
1E70F0
1E70F0
1EE0FC
1EE0FC
1F803C
1B0030
ENDCHAR
STARTCHAR 4F9D
ENCODING 20381
SWIDTH 1000 0
DWIDTH 24 0
BBX 23 24 1 -3
BITMAP
060C00
070F00
070300
07038C
1FFFFE
1EFFFE
180380
3E0F80
3E0F00
3E0F0C
FE1F8E
DE1D8E
1E1DBC
1E7DFC
1E7DF0
1EFC60
1FFC70
1F1C70
1E1DFC
1E1FFE
1E1F3E
1E7C0C
1E7C0C
181800
ENDCHAR
STARTCHAR 4FA0
ENCODING 20384
SWIDTH 1000 0
DWIDTH 24 0
BBX 23 24 1 -3
BITMAP
0C0300
0C0300
0F0380
1F03B0
1F7FFC
1C7FFC
381BB0
3C1FFC
3C1FFC
DC0FE0
DC0FEC
1C038C
1CFFFE
1CFFFE
1C0380
1C0FE0
1C0FE0
1C0F60
1C1C70
1C7C7C
1C783C
1C603E
1CE03E
1CC00C
ENDCHAR
STARTCHAR 4FA3
ENCODING 20387
SWIDTH 1000 0
DWIDTH 24 0
BBX 23 24 1 -3
BITMAP
031830
0FDFF8
0FDFF8
0F1C70
1F1C70
1C1C70
381C70
FC1FF0
DC1FF0
1C1830
1C1830
1C0000
1C6018
1C7FFE
1C7FFE
1C7838
1C7838
1C7838
1C7838
1C7838
1C7838
1C7FF8
1C7FF8
1C7838
ENDCHAR
STARTCHAR 4FA5
ENCODING 20389
SWIDTH 1000 0
DWIDTH 24 0
BBX 23 24 1 -3
BITMAP
063000
073C30
073C30
07FFF8
1FFFF8
1E3CC0
183DF0
183DF0
3E0FD8
3E0F98
FE3FFE
DE3DFE
1E60F8
1EFFF8
1EFFF0
1E3DC0
1E3DC0
1E3DC0
1E3DD8
1E7DD8
1E71D8
1EE1FE
1EE1FE
1B00F8
ENDCHAR
STARTCHAR 4FA6
ENCODING 20390
SWIDTH 1000 0
DWIDTH 24 0
BBX 23 24 1 -3
BITMAP
030380
0FC38C
0FC38C
0F03FE
1F03FE
1C0380
387B8C
FC7FFE
DC7FFE
1C7B3C
1C7BBC
1C7BBC
1C7BBC
1C7BBC
1C7BBC
1C7BBC
1C7BBC
1C63B0
1C0F00
1C1F70
1C1C70
1C783E
1CF81E
18C00C
ENDCHAR
STARTCHAR 4FA7
ENCODING 20391
SWIDTH 1000 0
DWIDTH 24 0
BBX 23 24 1 -3
BITMAP
18000C
1F030E
1F030E
1FFF8E
3FFF8E
3B030E
3B636E
3B7B6E
337B6E
FB7B6E
FB7B6E
3B7B6E
3B7B6E
3B7B6E
3B7B6E
3B7B6E
3B7B6E
3B7B0E
38EC0E
38EF0E
3BCF0E
3B03BE
3B03BE
36030C
ENDCHAR
STARTCHAR 4FA8
ENCODING 20392
SWIDTH 1000 0
DWIDTH 24 0
BBX 23 24 1 -3
BITMAP
030000
0FC3FC
0FC3FC
0F7F00
1F7F00
1C0F00
380F0C
FCFFFE
DCFFFE
1C0F60
1C0F60
1C1C70
1C183C
1C7C7E
1C7C6E
1CDC76
1CDC76
1C1C70
1C1C70
1C1C70
1C1870
1C6070
1CE070
1CC060
ENDCHAR
STARTCHAR 4FA9
ENCODING 20393
SWIDTH 1000 0
DWIDTH 24 0
BBX 23 24 1 -3
BITMAP
060600
060600
070E00
070F80
1F1FE0
1E1DE0
187070
3EF07E
3EE03E
3F1FEC
FF1FEC
DE0000
1E0030
1EFFFC
1EFFFC
1E0E00
1E1E60
1E1C60
1E1070
1E7070
1E71FC
1EFE3C
1EFE3C
186030
ENDCHAR
STARTCHAR 4FAA
ENCODING 20394
SWIDTH 1000 0
DWIDTH 24 0
BBX 23 24 1 -3
BITMAP
030300
0FC3B0
0FC3B0
0F7FFC
1F7FFC
1C1870
381DE0
FC1FE0
DC0F80
1C1DF0
1C7DFE
1C783E
1CD86C
1CDC7C
1C1C70
1C1C70
1C1C70
1C1C70
1C1C70
1C1C70
1C7870
1C7870
1CE070
18C060
ENDCHAR
STARTCHAR 4FAC
ENCODING 20396
SWIDTH 1000 0
DWIDTH 24 0
BBX 23 24 1 -3
BITMAP
030780
0FD786
0FD786
0F7FFE
1F7FFE
1C779E
38679C
FC679C
DC0780
1C0F9C
1C1FBE
1C1E3E
1C7FBC
1C7FBC
1CEFF0
1CEFE0
1C0E60
1C0E30
1C0E3C
1C0E3C
1C0FBE
1C1FBE
1C1E1E
180C1C
ENDCHAR
STARTCHAR 4FAE
ENCODING 20398
SWIDTH 1000 0
DWIDTH 24 0
BBX 23 24 1 -3
BITMAP
0C1C00
0F7C18
0F7818
1F7FFE
1FFFFE
1CE018
387FFE
3C7FFE
3C7B38
DC7BB8
DC7BB8
1C79B8
1CFFFE
1CFFFE
1C7B38
1C7BB8
1C7BB8
1C79B8
1C7FFE
1CFFFE
1CE038
1C00F8
1C00F8
180030
ENDCHAR
STARTCHAR 4FAF
ENCODING 20399
SWIDTH 1000 0
DWIDTH 24 0
BBX 23 24 1 -3
BITMAP
060030
077FFC
077FFC
070380
1F038C
1E038C
18FFFE
3EFFFE
3E1800
3E1C30
3E1C30
DE7FFC
DE7FFC
1EE380
1EC380
1FFFFE
1FFFFE
1E03E0
1E0F70
1E1F7C
1E1C3C
1E783E
1EF83E
18C00C
ENDCHAR
STARTCHAR 4FB5
ENCODING 20405
SWIDTH 1000 0
DWIDTH 24 0
BBX 23 24 1 -3
BITMAP
047FF0
077FF0
0700F0
071FF0
1F1FF0
1C00F0
187FF0
187FF0
3D80D8
3FFFFE
3FFFFE
DF8038
1F7FF0
1F7FF0
1C61C0
1C19C0
1C1FC0
1C1F80
1C0F80
1C1FF0
1C1DF0
1C78FE
1FF8FE
1B8018
ENDCHAR
STARTCHAR 4FBF
ENCODING 20415
SWIDTH 1000 0
DWIDTH 24 0
BBX 23 24 1 -3
BITMAP
040018
077FFE
077FFE
070380
1F6398
1C6398
187FFE
187FFE
3C7BB8
3C7FF8
3C7FF8
DC7BB8
1C7FF8
1C7FF8
1C63B0
1C1B80
1C1F80
1C1E00
1C0F80
1C1FC0
1C1DC0
1C78FE
1FF8FE
1B8018
ENDCHAR
STARTCHAR 4FC3
ENCODING 20419
SWIDTH 1000 0
DWIDTH 24 0
BBX 23 24 1 -3
BITMAP
066030
077FFC
077FFC
077870
1F7870
1E7870
187870
3E7FF0
3E7FF0
3E6360
FE63E0
DE0380
1E63B0
1E7BFC
1E7BFC
1E7B80
1E7B80
1E7B80
1E6F80
1E6F80
1EE3E0
1EE3FE
1FC1FE
1B003C
ENDCHAR
STARTCHAR 4FC4
ENCODING 20420
SWIDTH 1000 0
DWIDTH 24 0
BBX 23 24 1 -3
BITMAP
060D80
073FCC
073FCC
06F9CE
1EF9CE
1E79C6
1879C0
3FFFFE
3FFFFE
3E79C0
FE7FCC
DE7FCC
1E7DCE
1EFDFE
1EF9FC
1FF9F0
1FF9F0
1F79C0
1E7FC6
1E7FC6
1E7CF6
1EF83E
1EF83E
18600E
ENDCHAR
STARTCHAR 4FC5
ENCODING 20421
SWIDTH 1000 0
DWIDTH 24 0
BBX 23 24 1 -3
BITMAP
030370
030370
0FC3B0
0F038C
1FFFFE
1CFFFE
380380
380380
DC638C
1C7FBE
1C7FBE
1C1BF0
1C03E0
1C03E0
1C0FF0
1C1BB0
1C1BB0
1C7BBC
1CE38E
1CE38E
1C038C
1C0F80
1C0F80
180300
ENDCHAR
STARTCHAR 4FCA
ENCODING 20426
SWIDTH 1000 0
DWIDTH 24 0
BBX 23 24 1 -3
BITMAP
060F60
071F70
071C70
07783C
1FFFFE
1EFFFE
181DEC
3E7DFC
3E7870
3E6C3E
FEEF3E
DECF0C
1E1FFC
1E1FFC
1E1C70
1E7B70
1E7BF0
1E61E0
1EC3E0
1EC3E0
1E0F7C
1E1F7E
1EFC3E
18E00C
ENDCHAR
STARTCHAR 4FCE
ENCODING 20430
SWIDTH 1000 0
DWIDTH 24 0
BBX 23 23 1 -2
BITMAP
0C0000
0C0000
1F1818
1F1FFE
1C1FFE
1C1C38
3F1C38
FFFC38
E3FC38
C0DFF8
D8DFF8
181C38
1F1C38
1F1C38
1C1C38
3C1FF8
3C1FF8
3F1C38
23FC38
E3FC38
C0DC38
C07FFE
C07FFE
ENDCHAR
STARTCHAR 4FCF
ENCODING 20431
SWIDTH 1000 0
DWIDTH 24 0
BBX 23 24 1 -3
BITMAP
030300
0FE39E
0FE39E
0F73B8
1F7FB8
1C7FB8
3813E0
FC73E0
DC6398
1C7FFE
1C7FFE
1C7038
1C7038
1C7038
1C7FF8
1C7038
1C7038
1C7038
1C7FF8
1C7FF8
1C7038
1C70F8
1C70F8
1C7030
ENDCHAR
STARTCHAR 4FD0
ENCODING 20432
SWIDTH 1000 0
DWIDTH 24 0
BBX 23 24 1 -3
BITMAP
0C030C
0F1F8E
0F1F8E
1FFC0E
1FFC0E
1C1C0E
381D8E
381D8E
3CFFEE
FCFFEE
DC1DEE
1C7FEE
1C7FEE
1C7FEE
1CFDEE
1CFDEE
1CDDEE
1F1D8E
1F1D8E
1C1C0E
1C1C0E
1C1C3E
1C1C3E
18180C
ENDCHAR
STARTCHAR 4FD1
ENCODING 20433
SWIDTH 1000 0
DWIDTH 24 0
BBX 23 24 1 -3
BITMAP
031FFC
0FDFFC
0FC03C
0F0C70
1F0FF0
1C03E0
38618C
FC7FFE
DC7FFE
1C7BBC
1C7BBC
1C7BBC
1C7FFC
1C7FFC
1C7BBC
1C7BBC
1C7FFC
1C7FFC
1C7BBC
1C7BBC
1C7BBC
1C787C
1C787C
186030
ENDCHAR
STARTCHAR 4FD7
ENCODING 20439
SWIDTH 1000 0
DWIDTH 24 0
BBX 23 24 1 -3
BITMAP
030C60
030C60
0FDF30
0F1C3C
1F7FBC
1C63B0
380C60
FC1C70
DC1C70
1C7830
1C703C
1C603C
1CCC3E
1FDFFE
1F1FFC
1C1C70
1C1C70
1C1C70
1C1C70
1C1C70
1C1C70
1C1FF0
1C1FF0
1C1C70
ENDCHAR
STARTCHAR 4FD8
ENCODING 20440
SWIDTH 1000 0
DWIDTH 24 0
BBX 23 24 1 -3
BITMAP
030070
0FCFFC
0FCFFC
0F7F30
0F7F30
1CCC3C
3CEF7C
FCEF70
DC6360
1C7FFC
1C7FFC
1C0070
1C03E0
1C03EC
1C038C
1CFFFE
1CFFFE
1C0380
1C0380
1C1B80
1C1B80
1C0F80
1C0F80
1C0300
ENDCHAR
STARTCHAR 4FDA
ENCODING 20442
SWIDTH 1000 0
DWIDTH 24 0
BBX 23 24 1 -3
BITMAP
03600C
0FFFFE
0FFFFE
0F7BBC
1F7BBC
1C7BBC
387FFC
387FFC
DC7BBC
1C7BBC
1C7BBC
1C7FFC
1C638C
1C638C
1C0380
1C03B0
1C7FFC
1C7FFC
1C0380
1C0380
1C0380
1C038C
1CFFFE
18FFFE
ENDCHAR
STARTCHAR 4FDC
ENCODING 20444
SWIDTH 1000 0
DWIDTH 24 0
BBX 23 24 1 -3
BITMAP
030380
0FE38C
0FE38C
0F7FFE
1F7FFE
1C7BBC
387FFC
387FFC
DC7BBC
1C7FFC
1C7FFC
1C000C
1CFFFE
1CFFFE
1C0F0C
1C1FFE
1C1FFE
1C783C
1C003C
1C037C
1C0370
1C01F0
1C01F0
180060
ENDCHAR
STARTCHAR 4FDD
ENCODING 20445
SWIDTH 1000 0
DWIDTH 24 0
BBX 23 24 1 -3
BITMAP
066030
077FFC
077FFC
077870
1F7870
1E7870
187870
187870
3E7FF0
3E6360
FE63EC
DE038C
1EFFFE
1EFFFE
1E0FE0
1E1FF0
1E1FF0
1E1BB0
1E7BBC
1E7BBE
1E638E
1EC38C
1EC38C
180300
ENDCHAR
STARTCHAR 4FDE
ENCODING 20446
SWIDTH 1000 0
DWIDTH 24 0
BBX 23 24 1 -3
BITMAP
007000
007000
007000
03EF00
07EFF0
0701F0
38003E
FFFFBE
C7FF8C
003030
1FFC3C
1FFC3C
1E73BC
1FF3BC
1FF3BC
1E73BC
1FF3BC
1FF3BC
1E73BC
1E73BC
18703C
19F07C
39F07C
306030
ENDCHAR
STARTCHAR 4FDF
ENCODING 20447
SWIDTH 1000 0
DWIDTH 24 0
BBX 23 24 1 -3
BITMAP
030380
0FCFE0
0FCF60
0F1C70
1F7FFC
1C7BFC
387F30
FC7F30
DC0F00
1C1C30
1C1C30
1C7FFC
1C7FFC
1C638C
1C038C
1CFFFE
1CFFFE
1C0380
1C0FE0
1C0FE0
1C1C7C
1C7C7E
1CF83E
18C00C
ENDCHAR
STARTCHAR 4FE1
ENCODING 20449
SWIDTH 1000 0
DWIDTH 24 0
BBX 23 24 1 -3
BITMAP
060C00
070F0C
070F0C
07FFFE
1FFFFE
1E0000
180060
180060
3E7FF0
3E0000
FE7FF0
DE7FF0
1E0000
1E6030
1E6030
1E7FFC
1E7FFC
1E7870
1E7870
1E7870
1E7870
1E7FF0
1E7FF0
186060
ENDCHAR
STARTCHAR 4FE3
ENCODING 20451
SWIDTH 1000 0
DWIDTH 24 0
BBX 23 24 1 -3
BITMAP
03180C
0FDFFE
0FDFFE
0F1C3C
1F1C3C
1C1C3C
381FFC
FC1FFC
DC0030
1C1FFC
1C1FFC
1C0380
1C038C
1C7FFE
1C7FFE
1C0380
1C0FE0
1C0F60
1C0F70
1C1F7C
1C1C3C
1C783E
1CF83E
18C00C
ENDCHAR
STARTCHAR 4FE6
ENCODING 20454
SWIDTH 1000 0
DWIDTH 24 0
BBX 23 24 1 -3
BITMAP
030180
0FC1D8
0FC1D8
0F7FFE
1F7FFE
1C01C0
381FF8
FC1FF8
DC0380
1C7FFE
1C7FFE
1C0F00
1C1C38
1C1C38
1C1838
1C7FFE
1C7FFE
1C6C38
1CCF38
1CCF38
1C0338
1C00F8
1C00F8
180030
ENDCHAR
STARTCHAR 4FE8
ENCODING 20456
SWIDTH 1000 0
DWIDTH 24 0
BBX 23 24 1 -3
BITMAP
03000C
0FFFFE
0FFFFE
0F1DCC
1FDDFE
1CDDFE
38FDF0
38FDF0
DC7DC0
DFFFFE
1FFFFE
1C7800
1C7800
1C7800
1C7800
1C7800
1C7800
1C7800
1C7800
1C7800
1C6000
1CE000
1FC000
1B0000
ENDCHAR
ENDFONT
